<svg xmlns="http://www.w3.org/2000/svg" width="54" height="54" viewBox="0 0 54 54">
  <g id="Group_173775" data-name="Group 173775" transform="translate(1.25 1.25)">
    <line id="Line_88861" data-name="Line 88861" x1="10.638" y2="2.127" transform="translate(30.112 30.203)" fill="none" stroke="#2193ff" stroke-linecap="round" stroke-linejoin="round" stroke-width="4"/>
    <path id="Path_121683" data-name="Path 121683" d="M19.653,13.366l-5.022,2.122a3.156,3.156,0,0,1-2.493-.036A3.284,3.284,0,0,1,10.4,13.609a3.389,3.389,0,0,1,1.569-4.222l5.02-2.5a4.358,4.358,0,0,1,3.542-.209l10.309,4.062" transform="translate(11.514 6.897)" fill="none" stroke="#2193ff" stroke-linecap="round" stroke-linejoin="round" stroke-width="4"/>
    <path id="Path_121684" data-name="Path 121684" d="M5.2,20.958H8.756l6.776,5.169a1.844,1.844,0,0,0,2.556.2l9.467-7.818a1.871,1.871,0,0,0,.287-2.587l-5.216-5.8" transform="translate(5.439 11.458)" fill="none" stroke="#2193ff" stroke-linecap="round" stroke-linejoin="round" stroke-width="4"/>
    <path id="Path_121685" data-name="Path 121685" d="M17.51,8.571l-.549-.444a3.971,3.971,0,0,0-3.833-.491l-7.933,3.38" transform="translate(5.432 8.068)" fill="none" stroke="#2193ff" stroke-linecap="round" stroke-linejoin="round" stroke-width="4"/>
    <path id="Path_121686" data-name="Path 121686" d="M1.39,24.919H7.3a2.536,2.536,0,0,0,2.667-2.382v-11.9A2.536,2.536,0,0,0,7.3,8.252H1.39" transform="translate(0.782 9.165)" fill="none" stroke="#2193ff" stroke-linecap="round" stroke-linejoin="round" stroke-width="4"/>
    <path id="Path_121687" data-name="Path 121687" d="M27.328,24.919H21.417a2.536,2.536,0,0,1-2.667-2.382v-11.9a2.536,2.536,0,0,1,2.667-2.38h5.911" transform="translate(22 9.165)" fill="none" stroke="#2193ff" stroke-linecap="round" stroke-linejoin="round" stroke-width="4"/>
    <circle id="Ellipse_8208" data-name="Ellipse 8208" cx="25" cy="25" r="25" transform="translate(0.75 0.75)" fill="none" stroke="#2193ff" stroke-linecap="round" stroke-linejoin="round" stroke-width="4"/>
  </g>
</svg>
