<svg xmlns="http://www.w3.org/2000/svg" width="22.1" height="22.1" viewBox="0 0 22.1 22.1">
  <g id="Group_173786" data-name="Group 173786" transform="translate(-0.2 -0.2)">
    <g id="Group_173784" data-name="Group 173784" transform="translate(0.75 0.75)">
      <circle id="Ellipse_8211" data-name="Ellipse 8211" cx="2.8" cy="2.8" r="2.8" transform="translate(1.4)" fill="none" stroke="#0095ff" stroke-linecap="round" stroke-linejoin="round" stroke-width="1.1"/>
      <line id="Line_88867" data-name="Line 88867" y2="5.6" transform="translate(4.2 7)" fill="none" stroke="#0095ff" stroke-linecap="round" stroke-linejoin="round" stroke-width="1.1"/>
      <path id="Path_121692" data-name="Path 121692" d="M8.627,10.415A4.2,4.2,0,0,0,.75,12.45v2.8h1.4l.7,7h4.2l.467-4.76" transform="translate(-0.75 -1.25)" fill="none" stroke="#0095ff" stroke-linecap="round" stroke-linejoin="round" stroke-width="1.1"/>
    </g>
    <g id="Group_173785" data-name="Group 173785" transform="translate(10.55 10.083)">
      <rect id="Rectangle_36776" data-name="Rectangle 36776" width="11.2" height="8.867" rx="0.75" transform="translate(0 2.8)" fill="none" stroke="#0095ff" stroke-linecap="round" stroke-linejoin="round" stroke-width="1.1"/>
      <line id="Line_88868" data-name="Line 88868" x2="11.2" transform="translate(0 6.067)" fill="none" stroke="#0095ff" stroke-linecap="round" stroke-linejoin="round" stroke-width="1.1"/>
      <line id="Line_88869" data-name="Line 88869" y2="1.867" transform="translate(5.6 6.067)" fill="none" stroke="#0095ff" stroke-linecap="round" stroke-linejoin="round" stroke-width="1.1"/>
      <path id="Path_121693" data-name="Path 121693" d="M18.233,10.75H15.9a1.4,1.4,0,0,0-1.4,1.4v1.4h5.133v-1.4A1.4,1.4,0,0,0,18.233,10.75Z" transform="translate(-11.467 -10.75)" fill="none" stroke="#0095ff" stroke-linecap="round" stroke-linejoin="round" stroke-width="1.1"/>
    </g>
  </g>
</svg>
