<svg xmlns="http://www.w3.org/2000/svg" width="22.1" height="22.1" viewBox="0 0 22.1 22.1">
  <g id="Group_173797" data-name="Group 173797" transform="translate(-0.2 -0.2)">
    <line id="Line_88883" data-name="Line 88883" x2="0.7" y2="4.2" transform="translate(14.75 13.35)" fill="none" stroke="#0095ff" stroke-linecap="round" stroke-linejoin="round" stroke-width="1.1"/>
    <line id="Line_88884" data-name="Line 88884" x2="3.5" transform="translate(14.05 17.55)" fill="none" stroke="#0095ff" stroke-linecap="round" stroke-linejoin="round" stroke-width="1.1"/>
    <line id="Line_88885" data-name="Line 88885" x2="7" transform="translate(14.75 10.55)" fill="none" stroke="#0095ff" stroke-linecap="round" stroke-linejoin="round" stroke-width="1.1"/>
    <path id="Path_121724" data-name="Path 121724" d="M14.95,13.35h5.6a1.4,1.4,0,0,0,1.4-1.4V2.15a1.4,1.4,0,0,0-1.4-1.4H5.15a1.4,1.4,0,0,0-1.4,1.4" transform="translate(-0.2)" fill="none" stroke="#0095ff" stroke-linecap="round" stroke-linejoin="round" stroke-width="1.1"/>
    <rect id="Rectangle_36778" data-name="Rectangle 36778" width="7" height="11.2" rx="1.5" transform="translate(0.75 10.55)" fill="none" stroke="#0095ff" stroke-linecap="round" stroke-linejoin="round" stroke-width="1.1"/>
    <line id="Line_88886" data-name="Line 88886" x2="7" transform="translate(0.75 18.95)" fill="none" stroke="#0095ff" stroke-linecap="round" stroke-linejoin="round" stroke-width="1.1"/>
    <path id="Path_121725" data-name="Path 121725" d="M3.75,8.05V6.65a1.4,1.4,0,0,1,1.4-1.4h5.6a1.4,1.4,0,0,1,1.4,1.4v8.4a1.4,1.4,0,0,1-1.4,1.4" transform="translate(-0.2 -0.3)" fill="none" stroke="#0095ff" stroke-linecap="round" stroke-linejoin="round" stroke-width="1.1"/>
    <line id="Line_88887" data-name="Line 88887" x2="1.4" transform="translate(10.55 13.35)" fill="none" stroke="#0095ff" stroke-linecap="round" stroke-linejoin="round" stroke-width="1.1"/>
    <line id="Line_88888" data-name="Line 88888" x2="8.4" transform="translate(3.55 7.75)" fill="none" stroke="#0095ff" stroke-linecap="round" stroke-linejoin="round" stroke-width="1.1"/>
  </g>
</svg>
