<svg xmlns="http://www.w3.org/2000/svg" width="547" height="406.781" viewBox="0 0 547 406.781">
  <g id="Coffee_break-pana_1_" data-name="Coffee break-pana (1)" transform="translate(-47.788 -182.651)">
    <g id="freepik--Character--inject-2" transform="translate(47.788 182.432)">
      <path id="Path_118013" data-name="Path 118013" d="M401.36,262.184c9.158-10.914,14.457-13.921,21.116-21.319,5.6-6.248,11.3-12.653,14.6-20.378s3.781-17.149-.863-24.142a216.038,216.038,0,0,0-25.669-3.594,77.79,77.79,0,0,0-19.084,1.2l-6.714,16.27,14.651,4.791-22.45,20.3-17.727,20.6,8.87,25.554,11.932,1.1Z" transform="translate(55.546 -148.13)" fill="#a2714b"/>
      <path id="Path_118014" data-name="Path 118014" d="M408.294,196.93a26.9,26.9,0,0,1-2.9,3.019l-7.2,7.058c-2.826,2.758-5.416,5.228-7.352,6.941a23.325,23.325,0,0,1-3.232,2.614,29.207,29.207,0,0,1,2.9-3.006l7.2-7.071c2.826-2.758,5.416-5.228,7.353-6.928A24.207,24.207,0,0,1,408.294,196.93Z" transform="translate(64.298 -146.937)" fill="#956746"/>
      <path id="Path_118015" data-name="Path 118015" d="M418.616,201.306c-.092.078-.615-.5-1.661-1.111a7.646,7.646,0,0,0-4.474-1.059,7.854,7.854,0,0,0-4.239,1.817c-.916.784-1.308,1.451-1.426,1.4s.2-.81,1.1-1.751a7.135,7.135,0,0,1,9.315-.81C418.276,200.548,418.669,201.267,418.616,201.306Z" transform="translate(70.212 -146.476)" fill="#956746"/>
      <path id="Path_118017" data-name="Path 118017" d="M369.38,225.257a107.1,107.1,0,0,0,11.277-14.992,37.881,37.881,0,0,0,5.678-17.711c0-.941-.3-7.542-1.2-7.843-.654-.2-1.164,5.621-1.714,6.026a32.309,32.309,0,0,0-10.466,16,85.42,85.42,0,0,0-3.545,18.5" transform="translate(58.678 -150.691)" fill="#263238"/>
      <path id="Path_118020" data-name="Path 118020" d="M339.232,192.525c.17.353,2.106-.248,4.291.523s3.4,2.418,3.742,2.235.065-.64-.458-1.4a5.939,5.939,0,0,0-2.878-2.117,5.709,5.709,0,0,0-3.519-.092C339.546,191.963,339.154,192.355,339.232,192.525Z" transform="translate(49.381 -148.622)" fill="#263238"/>
      <path id="Path_118021" data-name="Path 118021" d="M355.673,197.563c.157.353,2.093-.248,4.278.523s3.415,2.431,3.742,2.248.065-.654-.458-1.4a5.887,5.887,0,0,0-2.878-2.131,5.7,5.7,0,0,0-3.519-.078C355.987,197,355.581,197.406,355.673,197.563Z" transform="translate(54.449 -147.073)" fill="#263238"/>
      <path id="Path_118022" data-name="Path 118022" d="M348.148,209.306a15.7,15.7,0,0,0-3.323-1.882c-.536-.248-1.034-.549-.994-.954a3.057,3.057,0,0,1,.955-1.529l3.14-3.673c4.422-5.228,7.85-9.646,7.6-9.816s-3.925,3.921-8.373,9.15l-3.074,3.712a3.358,3.358,0,0,0-1.06,2.091,1.464,1.464,0,0,0,.628,1.137,4.3,4.3,0,0,0,.9.471,14.489,14.489,0,0,0,3.6,1.294Z" transform="translate(50.552 -148.621)" fill="#263238"/>
      <path id="Path_118023" data-name="Path 118023" d="M353.6,208c-.353-.144-1.177,2.235-3.807,3.2s-5.063-.17-5.233.157.406.654,1.465,1.059a6.3,6.3,0,0,0,4.291,0,5.441,5.441,0,0,0,3.035-2.745C353.82,208.72,353.767,208,353.6,208Z" transform="translate(51.017 -143.539)" fill="#263238"/>
      <path id="Path_118024" data-name="Path 118024" d="M359.91,187.776c0,.667,2.29,1.15,4.749,2.353s4.291,2.614,4.814,2.222c.249-.209.079-.889-.562-1.765a8.751,8.751,0,0,0-3.232-2.614,8.89,8.89,0,0,0-4.056-.9C360.551,187.149,359.91,187.449,359.91,187.776Z" transform="translate(55.759 -149.965)" fill="#263238"/>
      <path id="Path_118025" data-name="Path 118025" d="M343.933,182.909c.209.64,1.9.64,3.715,1.307s3.231,1.5,3.768,1.111c.249-.2.183-.784-.327-1.49a5.4,5.4,0,0,0-2.734-1.856,5.342,5.342,0,0,0-3.3,0C344.234,182.177,343.841,182.609,343.933,182.909Z" transform="translate(50.829 -151.607)" fill="#263238"/>
      <path id="Path_118026" data-name="Path 118026" d="M374.343,206.75c.288,0,10.806.536,7.091,10.156s-12.625,3.921-12.533,3.621S374.343,206.75,374.343,206.75Z" transform="translate(58.53 -143.921)" fill="#ffbe9d"/>
      <path id="Path_118027" data-name="Path 118027" d="M372.237,217.027a2.825,2.825,0,0,0,.353.418,1.754,1.754,0,0,0,1.243.51c1.164,0,2.617-1.307,3.362-2.98a5.892,5.892,0,0,0,.445-2.614,2.064,2.064,0,0,0-.759-1.778.917.917,0,0,0-1.164.078c-.235.222-.249.431-.3.431s-.144-.235.079-.614a1.137,1.137,0,0,1,.615-.444,1.309,1.309,0,0,1,1.021.1,2.614,2.614,0,0,1,1.177,2.17,6.06,6.06,0,0,1-.458,2.9c-.811,1.921-2.5,3.346-4.043,3.215a1.937,1.937,0,0,1-1.439-.85C372.159,217.262,372.2,217.027,372.237,217.027Z" transform="translate(59.55 -142.931)" fill="#eb996e"/>
      <path id="Path_118028" data-name="Path 118028" d="M350.144,173.5c-1.217-1.464,5.429-4.653,9.93-4.862,6.8-.34,16.249,1.542,20.933,5.15,5.678,4.353,9.734,9.646,10.649,16.731a40.643,40.643,0,0,1-3.4,20.914,12.248,12.248,0,0,1-3.676,5.32c-2.185,1.595-5.233,1.908-6.332,4.875a4.327,4.327,0,0,1-2.159,2.536c-2.486,1.163-3.925-1.438-4.239-3.581-.615-4.588.929-9.15,2.447-13.542a30.309,30.309,0,0,1,4.226-8.875c1.1-1.412,2.46-2.614,3.48-4.091a6.218,6.218,0,0,0,1.217-5.058,7.162,7.162,0,0,0-.471-1.1,10.742,10.742,0,0,0-9.158-5.817c-6.162-.222-16.524-1.033-18.2-3.817-2.42-4-2.616-6.052-2.616-6.052Z" transform="translate(52.703 -155.637)" fill="#263238"/>
      <path id="Path_118029" data-name="Path 118029" d="M379.95,172.744a22.594,22.594,0,0,0-16.563-5.529,11.779,11.779,0,0,0-8.308,4.065c-1.923,2.523-2.093,6.536.2,8.692l.144.2c3.545,2.993,6.424,3.5,11.068,3.7,3.925.183,7.85-.732,11.7-.536a20.944,20.944,0,0,1,11.552,4.183A34.125,34.125,0,0,0,379.95,172.744Z" transform="translate(53.813 -156.081)" fill="#263238"/>
      <path id="Path_118030" data-name="Path 118030" d="M388.534,187.23a8.589,8.589,0,0,1-1.845,2.418,21.169,21.169,0,0,1-5.966,4.313,21.47,21.47,0,0,1-7.065,2.052,9.286,9.286,0,0,1-3.048,0,26.672,26.672,0,0,0,17.924-8.758Z" transform="translate(59.057 -149.916)" fill="#455a64"/>
      <path id="Path_118032" data-name="Path 118032" d="M302.969,282.362,256.656,234,246.7,249.685l12.285,23.449s13.384,21.907,20.278,29.619,7.392,6.052,7.392,6.052Z" transform="translate(20.858 -135.553)" fill="#a2714b"/>
      <path id="Path_118033" data-name="Path 118033" d="M246.594,223.724c-.157-.1-8.268-1.307-11.5-1.765a3.391,3.391,0,0,0-2.381.523l-4.867,3.228-3.99,8.457,1.191.8L223.83,242.6a2.422,2.422,0,0,0,3.925-.288,33.588,33.588,0,0,0,3.532-5.725l5.233-.091-.235.484-5.4,1.372-1.805,4.588,1.609,4.745,3.637,3.32,1.57-.065,2.957,1.778s3-2.614.458-5.228c0,0,2.447,2.405,3.794,1.464l10.99,4.993,8.648-8.339,2.342-6.64s-13.776-13.489-14.614-14.13a14.4,14.4,0,0,0-3.872-1.111Z" transform="translate(13.807 -139.262)" fill="#a2714b"/>
      <path id="Path_118034" data-name="Path 118034" d="M236.3,243.941a10.894,10.894,0,0,1-.092-1.66A5.136,5.136,0,0,0,234.362,239l-.2-.157-.2-.144.065-.235a6.961,6.961,0,0,0,.144-3.7,12.4,12.4,0,0,1-.419-1.555,2.823,2.823,0,0,1,.863,1.425,6.412,6.412,0,0,1,.065,4.039l-.131-.379.222.17a5,5,0,0,1,1.9,3.777C236.691,243.392,236.363,243.967,236.3,243.941Z" transform="translate(16.868 -135.795)" fill="#956746"/>
      <path id="Path_118035" data-name="Path 118035" d="M233.395,246.8a3.985,3.985,0,0,0-.209-5.738c-.288-.405-.6-.784-.9-1.163l-.118-.144v-.183a3.174,3.174,0,0,0-.589-3.189c-.576-.654-1.125-.85-1.086-.941s.628,0,1.4.641a3.527,3.527,0,0,1,.9,3.725l-.065-.327q.471.549.942,1.176a6.729,6.729,0,0,1,1.191,2.444,3.814,3.814,0,0,1-.131,2.261C234.3,246.639,233.395,246.874,233.395,246.8Z" transform="translate(15.86 -135.121)" fill="#956746"/>
      <path id="Path_118036" data-name="Path 118036" d="M234.513,237.462c.1.157-.379.641-1.073,1.072s-1.308.667-1.426.5.379-.64,1.073-1.072S234.408,237.3,234.513,237.462Z" transform="translate(16.325 -134.505)" fill="#956746"/>
      <path id="Path_118037" data-name="Path 118037" d="M235.929,242.823c-.2,0-.484-.928-1.308-1.856s-1.635-1.412-1.57-1.595,1.217.078,2.106,1.163S236.112,242.823,235.929,242.823Z" transform="translate(16.649 -133.919)" fill="#956746"/>
      <path id="Path_118038" data-name="Path 118038" d="M237.835,244.712c-.183-.092.89-2.51,1.308-5.712s0-5.8.183-5.83a11.375,11.375,0,0,1,.5,5.921A11.509,11.509,0,0,1,237.835,244.712Z" transform="translate(18.118 -135.808)" fill="#956746"/>
      <path id="Path_118039" data-name="Path 118039" d="M230.661,227.691c.092,0,0,.51-.275,1.242a8.546,8.546,0,0,1-1.544,2.68,4.606,4.606,0,0,1-2.734,1.542c-.837.1-1.308-.144-1.308-.222s.5,0,1.191-.248a5.234,5.234,0,0,0,2.342-1.529,14.5,14.5,0,0,0,1.609-2.418C230.295,228.1,230.583,227.651,230.661,227.691Z" transform="translate(14.106 -137.491)" fill="#956746"/>
      <path id="Path_118040" data-name="Path 118040" d="M233.7,232.776c-.118-.144.157-.549.445-1.033s.536-.9.733-.863.222.627-.144,1.229S233.8,232.933,233.7,232.776Z" transform="translate(16.84 -136.511)" fill="#956746"/>
      <path id="Path_118041" data-name="Path 118041" d="M207.81,221.983l.131,19.8c0,6.653,26.82,6.431,26.48-.183,0-.392-.131-19.8-.131-19.8Z" transform="translate(8.868 -139.299)" fill="#455a64"/>
      <path id="Path_118042" data-name="Path 118042" d="M227.593,224.5a15.008,15.008,0,0,1,4.775,0,4.58,4.58,0,0,1,3.022,1.555,5.224,5.224,0,0,1,.719,2.614,10.173,10.173,0,0,1-.51,5.137,6.617,6.617,0,0,1-3.493,3.163,10.633,10.633,0,0,1-4.7.68v-3.019a12.674,12.674,0,0,0,2.813-.17,4.344,4.344,0,0,0,2.46-1.307,5.982,5.982,0,0,0,1.033-4.431,3.213,3.213,0,0,0-.5-1.752,2.827,2.827,0,0,0-2.3-.863,8.537,8.537,0,0,0-3.271.653" transform="translate(14.911 -138.527)" fill="#455a64"/>
      <path id="Path_118043" data-name="Path 118043" d="M221.786,191.987a1.008,1.008,0,0,1-.563.235,1.858,1.858,0,0,1-1.57-.745,2.378,2.378,0,0,1-.536-1.189,1.737,1.737,0,0,1,.484-1.49,2.933,2.933,0,0,1,3.585-.34,4.024,4.024,0,0,1,1.609,4.091,9.33,9.33,0,0,1-2.368,4.51,15.683,15.683,0,0,0-3.009,4.444,5.12,5.12,0,0,0,.994,5.228c1.308,1.477,3.061,2.457,4.448,3.921a5.07,5.07,0,0,1,1.4,2.614,4.388,4.388,0,0,1-.458,2.81,10.279,10.279,0,0,1-3.6,3.595,15.7,15.7,0,0,0-3.31,2.706,9.406,9.406,0,0,0-2.132,5.673,20.894,20.894,0,0,0,.144,2.287,2,2,0,0,1-.2-.575,7.836,7.836,0,0,1-.209-1.712,9.288,9.288,0,0,1,2.028-5.973,14.792,14.792,0,0,1,3.349-2.863,9.886,9.886,0,0,0,3.362-3.412,3.7,3.7,0,0,0,.379-2.418,4.418,4.418,0,0,0-1.243-2.274c-1.308-1.307-3.074-2.3-4.487-3.921a5.812,5.812,0,0,1-1.112-5.869,15.959,15.959,0,0,1,3.179-4.614,8.833,8.833,0,0,0,2.276-4.2,3.5,3.5,0,0,0-1.308-3.595,2.54,2.54,0,0,0-3.061.183,1.672,1.672,0,0,0,0,2.248,1.714,1.714,0,0,0,1.308.771C221.59,192.065,221.76,191.921,221.786,191.987Z" transform="translate(11.547 -149.679)" fill="#263238"/>
      <path id="Path_118044" data-name="Path 118044" d="M229.155,225.907l10.466-.5,11.879,3.372,14.823,12.64s-11.317,8.392-14.98,4.732S243.4,234.39,243.4,234.39l-4.213-1.778S225.361,232.573,229.155,225.907Z" transform="translate(15.246 -138.191)" fill="#a2714b"/>
      <path id="Path_118045" data-name="Path 118045" d="M259.612,235.7a3.328,3.328,0,0,1-.589-.418l-1.635-1.307-5.887-4.889h.092l-11.905-3.307h.039l-10.466.51.288-.17-.092.157a2.874,2.874,0,0,0,0,3.281,6.268,6.268,0,0,0,3.022,1.778,25.74,25.74,0,0,0,6.816.993h.065l4.2,1.8h.092v.092a83.537,83.537,0,0,0,5.325,8.836c.706,1.007,1.308,1.765,1.727,2.274a5.228,5.228,0,0,1,.641.8,5,5,0,0,1-.759-.68,27.371,27.371,0,0,1-1.871-2.209,71.617,71.617,0,0,1-5.56-8.771l.144.131-4.226-1.752h.118a25.482,25.482,0,0,1-7.025-.98,6.9,6.9,0,0,1-3.349-1.987,3,3,0,0,1-.654-2.013,4.73,4.73,0,0,1,.628-2l.079-.183.092-.157h.3l10.466-.471h.1l11.853,3.438h0l5.77,5.059c.615.562,1.125,1.033,1.544,1.4A2.048,2.048,0,0,1,259.612,235.7Z" transform="translate(15.141 -138.298)" fill="#956746"/>
      <path id="Path_118046" data-name="Path 118046" d="M234.154,237.582a6.591,6.591,0,0,1-.89.6,8.694,8.694,0,0,1-1.112.562,13.816,13.816,0,0,1-1.544.64,27.089,27.089,0,0,1-9.5,1.529,29.648,29.648,0,0,1-9.472-1.634,20.506,20.506,0,0,1-2.682-1.137c-.615-.314-.942-.51-.916-.562s1.426.549,3.742,1.242a34.24,34.24,0,0,0,9.341,1.412,30.325,30.325,0,0,0,9.328-1.307C232.715,238.21,234.049,237.478,234.154,237.582Z" transform="translate(8.939 -134.456)" fill="#263238"/>
      <path id="Path_118047" data-name="Path 118047" d="M228.213,242.256a73.772,73.772,0,0,1-.379-10.221,74.755,74.755,0,0,1,.3-10.235,79.034,79.034,0,0,1,.379,10.222A79.973,79.973,0,0,1,228.213,242.256Z" transform="translate(15.024 -139.299)" fill="#263238"/>
      <path id="Path_118048" data-name="Path 118048" d="M218.216,228.237a1.6,1.6,0,0,1-.222-.327,4.651,4.651,0,0,1-.34-1.085,6.53,6.53,0,0,1,.785-4.065,15.454,15.454,0,0,1,4.147-4.536,13.924,13.924,0,0,0,4.7-5.477,5.106,5.106,0,0,0,.131-3.542,7.5,7.5,0,0,0-1.949-2.8c-1.609-1.542-3.336-2.889-4.082-4.575a4.258,4.258,0,0,1,.17-4.1,2.459,2.459,0,0,1,.824-.784c.236-.131.366-.17.379-.144a4.407,4.407,0,0,0-.981,1.072,4.036,4.036,0,0,0,0,3.751c.746,1.529,2.394,2.758,4.095,4.34A8.039,8.039,0,0,1,228,208.984a5.694,5.694,0,0,1-.118,4,14.133,14.133,0,0,1-4.88,5.725,15.483,15.483,0,0,0-4.121,4.274,6.609,6.609,0,0,0-.955,3.817A14.406,14.406,0,0,0,218.216,228.237Z" transform="translate(11.885 -146.978)" fill="#263238"/>
      <path id="Path_118049" data-name="Path 118049" d="M100.16,244.247,74.649,224.993s11.029-32.351,6.672-36.363L42.19,236.666l38.477,31.619Z" transform="translate(-42.19 -149.486)" fill="#282a22"/>
      <g id="Group_148311" data-name="Group 148311" transform="translate(0 39.144)" opacity="0.3">
        <path id="Path_118050" data-name="Path 118050" d="M100.16,244.247,74.649,224.993s11.029-32.351,6.672-36.363L42.19,236.666l38.477,31.619Z" transform="translate(-42.19 -188.63)" fill="#2f3128"/>
      </g>
      <path id="Path_118051" data-name="Path 118051" d="M60.259,230.109a2.54,2.54,0,0,1-3.349-.471,2.417,2.417,0,0,1,.432-3.307,2.618,2.618,0,0,1,3.545.51,2.521,2.521,0,0,1-.837,3.4" transform="translate(-37.796 -138.053)" fill="#e0e0e0"/>
      <g id="Group_148312" data-name="Group 148312" transform="translate(0 39.105)" opacity="0.6">
        <path id="Path_118052" data-name="Path 118052" d="M42.19,236.675l4,3.032,36.03-47.186s.811-2.9-.89-3.921Z" transform="translate(-42.19 -188.6)" fill="#fff"/>
      </g>
      <path id="Path_118053" data-name="Path 118053" d="M69.167,216c-.249-.183-1.308.9-3.009,1.438s-3.179.353-3.258.641,1.557,1.046,3.6.366S69.416,216.136,69.167,216Z" transform="translate(-35.806 -141.085)" fill="#263238"/>
      <path id="Path_118054" data-name="Path 118054" d="M70.674,210.861c-.183-.235-1.413.458-3.048.444s-2.878-.627-3.061-.392,1.02,1.451,3.061,1.451S70.9,211.058,70.674,210.861Z" transform="translate(-35.298 -142.673)" fill="#263238"/>
      <path id="Path_118055" data-name="Path 118055" d="M66.408,204.919c-.222.17.68,1.451,2.46,1.9s3.179-.235,3.061-.5-1.308-.131-2.8-.523S66.617,204.71,66.408,204.919Z" transform="translate(-34.734 -144.495)" fill="#263238"/>
      <path id="Path_118056" data-name="Path 118056" d="M72.775,219.861c-.288-.078-.837,1.307-2.015,2.51s-2.433,1.948-2.329,2.235,1.753,0,3.114-1.516S73.1,219.887,72.775,219.861Z" transform="translate(-34.102 -139.896)" fill="#263238"/>
      <path id="Path_118057" data-name="Path 118057" d="M109.406,230.412,86.472,208.192S101.465,177.423,97.54,172.9L52.81,215.773l34.264,36.1Z" transform="translate(-38.916 -154.316)" fill="#3a3d31"/>
      <path id="Path_118058" data-name="Path 118058" d="M70.232,212.548a2.539,2.539,0,0,1-3.271-.876,2.443,2.443,0,0,1,.837-3.241,2.618,2.618,0,0,1,3.454.954,2.535,2.535,0,0,1-1.308,3.268" transform="translate(-34.646 -143.497)" fill="#e0e0e0"/>
      <g id="Group_148313" data-name="Group 148313" transform="translate(13.894 18.623)" opacity="0.6">
        <path id="Path_118059" data-name="Path 118059" d="M52.81,215.763l3.6,3.5,41.564-42.415s1.164-2.771-.406-3.921Z" transform="translate(-52.81 -172.93)" fill="#fff"/>
      </g>
      <path id="Path_118060" data-name="Path 118060" d="M80.784,199.537c-.209-.209-1.4.732-3.153,1.059s-3.192,0-3.31.248,1.413,1.229,3.519.784S81.033,199.694,80.784,199.537Z" transform="translate(-32.286 -146.145)" fill="#263238"/>
      <path id="Path_118061" data-name="Path 118061" d="M82.867,194.8c-.157-.261-1.452.274-3.088,0s-2.774-.993-2.983-.771.837,1.582,2.865,1.817S83.063,195.01,82.867,194.8Z" transform="translate(-31.529 -147.84)" fill="#263238"/>
      <path id="Path_118062" data-name="Path 118062" d="M79.361,188.366c-.249.144.5,1.529,2.211,2.183s3.179.157,3.1-.118-1.308-.3-2.721-.863S79.6,188.183,79.361,188.366Z" transform="translate(-30.745 -149.575)" fill="#263238"/>
      <path id="Path_118063" data-name="Path 118063" d="M83.992,203.851c-.288-.1-.994,1.15-2.316,2.248s-2.617,1.634-2.617,1.935,1.74.183,3.271-1.137S84.215,203.917,83.992,203.851Z" transform="translate(-30.823 -144.813)" fill="#263238"/>
      <path id="Path_118064" data-name="Path 118064" d="M94.318,208.27s68.816,54.31,81.729,55.918l14.653,2.379,29.449,12.666,90.913,47.827,28.508,19.894,14.64,27.632,1.243,16.6s-65.768,8-75.449,2.091-92.666-67.825-96.97-72.661S100.48,283,69.29,229.327Z" transform="translate(-33.835 -143.454)" fill="#4b5744"/>
      <path id="Path_118065" data-name="Path 118065" d="M61.32,255.154s49.911,46.31,84.882,59.747a427.454,427.454,0,0,1,62.929,30.625l58.651,31.906,75.344-33.984L328.25,316.8,205.912,288.04,81.69,225.13S61.856,245.481,61.32,255.154Z" transform="translate(-36.292 -138.277)" fill="#46513f"/>
      <path id="Path_118066" data-name="Path 118066" d="M250.9,330.12a31.209,31.209,0,0,1,29.122-15.685" transform="translate(22.152 -110.871)" fill="#263238"/>
      <path id="Path_118067" data-name="Path 118067" d="M257.286,305.66a17.178,17.178,0,0,1-5.456,18.4" transform="translate(22.439 -113.546)" fill="#263238"/>
      <path id="Path_118068" data-name="Path 118068" d="M222.93,282.2a7.1,7.1,0,0,1,1.4.6c.877.431,2.132,1.072,3.676,1.9,3.088,1.634,7.287,4,11.775,6.784s8.569,5.451,11.421,7.464c1.426.993,2.617,1.817,3.349,2.418a6.537,6.537,0,0,1,1.177.967,6.615,6.615,0,0,1-1.308-.758l-3.467-2.235c-2.931-1.9-6.973-4.5-11.513-7.281s-8.687-5.228-11.775-6.941l-3.572-2.078A5.745,5.745,0,0,1,222.93,282.2Z" transform="translate(13.53 -120.751)" fill="#455a64"/>
      <path id="Path_118069" data-name="Path 118069" d="M283.491,386.813l-.589-.366-1.688-1.15-6.541-4.483-23.758-16.561-35.193-24.639-20.776-14.574-10.977-7.712q-5.534-3.921-11.461-7.686c-7.915-4.915-15.87-9.4-23.261-14.182s-14.391-9.555-21.05-14.208-12.887-9.084-18.643-13.4a183.3,183.3,0,0,1-15.385-12.823,142.184,142.184,0,0,1-19.088-21.763c-.994-1.385-1.845-2.614-2.617-3.751s-1.308-2.026-1.805-2.784-.824-1.307-1.086-1.738-.353-.614-.353-.614.157.2.406.575l1.138,1.7c.5.758,1.112,1.673,1.871,2.758s1.609,2.327,2.617,3.7a146.578,146.578,0,0,0,19.193,21.567A190.162,190.162,0,0,0,109.829,267.4c5.769,4.287,12.075,8.679,18.682,13.345s13.619,9.424,21.037,14.156,15.333,9.241,23.261,14.169c3.925,2.47,7.85,5.058,11.5,7.712l10.977,7.712,20.749,14.6,35.1,24.769L274.778,380.6l6.411,4.575,1.648,1.2a6.644,6.644,0,0,1,.654.431Z" transform="translate(-33.857 -138.507)" fill="#455a64"/>
      <path id="Path_118070" data-name="Path 118070" d="M359.6,230.11s-23.955,12.927-28.429,18.3c-4.16,5.019-50.526,51.369-50.526,51.369s-30,8.914-28.782,11.411c2.132,4.562,10.545,12.757,15.045,16.992a41.837,41.837,0,0,1,5.39,6.078c3.794,5.228,11.212,15.463,17.335,24a57.009,57.009,0,0,1,9.524,26.22l21.155-11.62c10.793-4.353,16.681-16.143,28.547-22.221l35.638-38.324,10.859-22.155,3.611-54.519-5.142.366L373.9,238.619S356.639,236.737,359.6,230.11Z" transform="translate(22.437 -136.747)" fill="#e6505c"/>
      <path id="Path_118071" data-name="Path 118071" d="M349.864,245.41l16.393-7.241a144.561,144.561,0,0,1,13.083-11.189s-20.449,25.449-2.5,33.984S409.312,247,409.312,247a112.14,112.14,0,0,0-5.7,9.895c-2.093,4.34-12.743,18.182-12.743,18.182a24.825,24.825,0,0,1-6.437,13.855c-6.123,6.993-13,18.574-18.473,21.541s-17.688,8.4-17.688,8.4a155.328,155.328,0,0,1-2.237-40.128C347.823,257.788,349.864,245.41,349.864,245.41Z" transform="translate(51.349 -137.709)" fill="#e6505c"/>
      <path id="Path_118072" data-name="Path 118072" d="M370.2,265.749a7.473,7.473,0,0,1-1.387-1.007,27.386,27.386,0,0,1-3.375-3.268,13.354,13.354,0,0,1-3.061-6.261,21.731,21.731,0,0,1,.51-8.535,43.924,43.924,0,0,1,6.345-14.038c1.086-1.647,2.041-2.928,2.721-3.8a8.429,8.429,0,0,1,1.125-1.307,7.6,7.6,0,0,1-.9,1.451c-.615.915-1.5,2.235-2.538,3.921a47.033,47.033,0,0,0-6.083,13.934,21.77,21.77,0,0,0-.563,8.261,13.21,13.21,0,0,0,2.826,6.078C368.319,264.168,370.307,265.645,370.2,265.749Z" transform="translate(56.456 -137.54)" fill="#263238"/>
      <path id="Path_118073" data-name="Path 118073" d="M371.325,282.985a3.684,3.684,0,0,1-.628.3c-.419.17-1.047.431-1.871.732a23.66,23.66,0,0,1-7.274,1.386,10.958,10.958,0,0,1-5.024-1.15,9.362,9.362,0,0,1-4.095-4.3c-1.858-3.83-2.067-8.561-1.675-13.28a52.582,52.582,0,0,1,2.76-13.149,46.507,46.507,0,0,1,5.233-9.659c1.766-2.614,3.323-4.562,4.409-5.921.523-.614.942-1.124,1.308-1.542s.458-.523.484-.51a3.205,3.205,0,0,1-.379.588l-1.164,1.634c-1.034,1.4-2.525,3.425-4.226,6.013a47.616,47.616,0,0,0-5,9.62,54.268,54.268,0,0,0-2.682,12.979c-.379,4.666-.17,9.307,1.57,12.953a8.891,8.891,0,0,0,3.768,4.078,10.658,10.658,0,0,0,4.775,1.163,25.768,25.768,0,0,0,7.183-1.15l1.9-.614a2.772,2.772,0,0,1,.628-.17Z" transform="translate(52.886 -134.973)" fill="#263238"/>
      <path id="Path_118074" data-name="Path 118074" d="M365.3,235.05a32.825,32.825,0,0,1-2.891,2.353,56.023,56.023,0,0,0-6.45,6.169,57.3,57.3,0,0,0-5.364,7.137,31.986,31.986,0,0,1-1.989,3.137,14.371,14.371,0,0,1,1.583-3.385,43.055,43.055,0,0,1,5.233-7.346,43.578,43.578,0,0,1,6.672-6.091A15.085,15.085,0,0,1,365.3,235.05Z" transform="translate(52.275 -135.23)" fill="#263238"/>
      <g id="Group_148314" data-name="Group 148314" transform="translate(400.846 99.82)" opacity="0.3">
        <path id="Path_118075" data-name="Path 118075" d="M366.36,235.05h0a59.579,59.579,0,0,0-17.78,39.736c0,1.307.353,3.046,1.661,3.072a1.752,1.752,0,0,0,1.6-1.5,8.423,8.423,0,0,0-.2-2.353c-.5-6.287.876-13.711,3.061-20.365S362.212,240.657,366.36,235.05Z" transform="translate(-348.58 -235.05)"/>
      </g>
      <g id="Group_148315" data-name="Group 148315" transform="translate(415.407 91.52)" opacity="0.3">
        <path id="Path_118076" data-name="Path 118076" d="M372.2,228.7c-4.461,4.98-8.635,10.365-10.885,16.652s-2.355,13.594,1.06,19.332c.942,1.582,2.839,3.176,4.435,2.248a2.861,2.861,0,0,0,.916-3.385,14.246,14.246,0,0,0-2.015-3.215c-3.1-4.51-3.205-10.535-1.583-15.764s4.749-9.816,7.85-14.378" transform="translate(-359.71 -228.7)"/>
      </g>
      <g id="Group_148316" data-name="Group 148316" transform="translate(286.999 189.238)" opacity="0.3">
        <path id="Path_118077" data-name="Path 118077" d="M261.56,303.46a69.744,69.744,0,0,0,25.041,9.777c7.536,1.176,15.215-.144,22.751-1.307,19.624-3.163,39.628-6.026,59.383-8.418H261.56" transform="translate(-261.56 -303.46)"/>
      </g>
      <path id="Path_118078" data-name="Path 118078" d="M316.06,348.328a3.5,3.5,0,0,1,1.151-.327,12.1,12.1,0,0,1,3.232-.118,16.059,16.059,0,0,1,9.564,4.523,17.06,17.06,0,0,1,3.532,4.719,11.494,11.494,0,0,1,1.191,4.679,12.1,12.1,0,0,1-.327,3.229,3.777,3.777,0,0,1-.406,1.111,24.812,24.812,0,0,0,.262-4.313,11.575,11.575,0,0,0-1.308-4.418,17.216,17.216,0,0,0-3.441-4.523,16.621,16.621,0,0,0-9.158-4.536,25.743,25.743,0,0,0-4.291-.026Z" transform="translate(42.24 -100.597)" fill="#263238"/>
      <rect id="Rectangle_36038" data-name="Rectangle 36038" width="151.526" height="29.292" rx="10.33" transform="translate(225.064 247.731)" fill="#455a64"/>
      <path id="Path_118218" data-name="Path 118218" d="M8.333.008l6.866,0A8.191,8.191,0,0,1,23.4,8.2l-.07,165.706a8.208,8.208,0,0,1-8.2,8.2l-6.866,0a8.191,8.191,0,0,1-8.2-8.195L.129,8.21A8.208,8.208,0,0,1,8.333.008Z" transform="matrix(0.834, 0.552, -0.552, 0.834, 445.897, 116.207)" fill="#455a64"/>
      <path id="Path_118079" data-name="Path 118079" d="M261.86,325c.262,0,9.158,8.692,11.251,14.574s4.828,20.247,6.084,25.711c1.74,7.49,4.514,14.7,14.758,15.175l38.791.157a7.014,7.014,0,0,0,5.913-3.2L372.606,325H362l-29.633,44.1h-33.6a7.578,7.578,0,0,1-6.057-2.876,5.543,5.543,0,0,1-1.02-2.039c-.759-3.032-3.415-18.744-6.633-25.567A125.764,125.764,0,0,0,277.285,325Z" transform="translate(25.531 -107.607)" fill="#263238"/>
      <path id="Path_118080" data-name="Path 118080" d="M290.018,363.709a2.395,2.395,0,1,1-2.381-2.379,2.392,2.392,0,0,1,2.381,2.379Z" transform="translate(32.736 -96.45)" fill="#455a64"/>
      <path id="Path_118081" data-name="Path 118081" d="M318.7,363.709a2.395,2.395,0,1,1-2.381-2.379A2.392,2.392,0,0,1,318.7,363.709Z" transform="translate(41.578 -96.45)" fill="#455a64"/>
      <rect id="Rectangle_36040" data-name="Rectangle 36040" width="133.105" height="7.202" rx="2.54" transform="translate(275.29 210.23)" fill="#263238"/>
      <path id="Path_118082" data-name="Path 118082" d="M307.939,319.625h-1.308l-3.794.078-14.182.17c-6.057,0-13.345.118-21.574.092h-6.358c-2.146,0-4.5-.431-6.371.68a2.417,2.417,0,0,0-1.177,2.614,3.243,3.243,0,0,0,2.08,2.288,16.289,16.289,0,0,0,6.973.928h25.721l66.343.1,20.108.1,5.469.065h1.413a2.235,2.235,0,0,1,.484,0h-1.9l-5.469.065-20.108.1-66.343.1H262.306a16.368,16.368,0,0,1-7.287-.994,3.844,3.844,0,0,1-2.433-2.745c0-.314-.079-.614-.065-.954a3.163,3.163,0,0,1,.262-.928,3.335,3.335,0,0,1,1.308-1.385,6.9,6.9,0,0,1,3.4-.837c1.151,0,2.224.078,3.31.092l6.345.091h40.478Z" transform="translate(22.652 -109.395)" fill="#455a64"/>
      <path id="Path_118083" data-name="Path 118083" d="M277.4,357.644a6.411,6.411,0,0,1-.445-1.372c-.275-1.033-.6-2.3-.981-3.791a113.73,113.73,0,0,0-3.611-12.391,44.521,44.521,0,0,0-3.009-6.379,37.082,37.082,0,0,0-3.362-4.679c-2.159-2.5-3.755-3.791-3.663-3.921a7.359,7.359,0,0,1,1.164.863,23.992,23.992,0,0,1,2.852,2.719,31.378,31.378,0,0,1,3.546,4.666,40.759,40.759,0,0,1,3.114,6.47,87.149,87.149,0,0,1,3.441,12.509c.34,1.621.6,2.941.772,3.856A5.787,5.787,0,0,1,277.4,357.644Z" transform="translate(25.675 -107.573)" fill="#455a64"/>
      <rect id="Rectangle_36041" data-name="Rectangle 36041" width="8.438" height="106.254" transform="translate(299.179 277.022)" fill="#263238"/>
      <path id="Path_118084" data-name="Path 118084" d="M276.01,438.88,363.7,456.121v9.15L276.01,452.082Z" transform="translate(29.894 -72.635)" fill="#263238"/>
      <ellipse id="Ellipse_8143" data-name="Ellipse 8143" cx="7.771" cy="7.764" rx="7.771" ry="7.764" transform="translate(378.056 391.472)" fill="#263238"/>
      <path id="Path_118085" data-name="Path 118085" d="M291,438.88,220.05,456.186v9.15L291,451.245Z" transform="translate(12.642 -72.635)" fill="#263238"/>
      <ellipse id="Ellipse_8144" data-name="Ellipse 8144" cx="7.771" cy="7.764" rx="7.771" ry="7.764" transform="translate(232.692 391.472)" fill="#263238"/>
      <ellipse id="Ellipse_8145" data-name="Ellipse 8145" cx="7.771" cy="7.764" rx="7.771" ry="7.764" transform="translate(295.647 391.472)" fill="#263238"/>
      <path id="Path_118086" data-name="Path 118086" d="M285.016,473.8h-17.6l.17-66.466H285.2Z" transform="translate(27.245 -82.324)" fill="#263238"/>
      <path id="Path_118087" data-name="Path 118087" d="M284.434,407.529a52.021,52.021,0,0,1-8.334.34,51.913,51.913,0,0,1-8.321-.34,51.9,51.9,0,0,1,8.321-.34,52.017,52.017,0,0,1,8.334.34Z" transform="translate(27.356 -82.38)" fill="#455a64"/>
      <path id="Path_118088" data-name="Path 118088" d="M284.018,449.659a52.011,52.011,0,0,1-8.334.34,52.012,52.012,0,0,1-8.334-.34,52.019,52.019,0,0,1,8.334-.34A52.018,52.018,0,0,1,284.018,449.659Z" transform="translate(27.224 -69.442)" fill="#455a64"/>
      <g id="Group_148318" data-name="Group 148318" transform="matrix(0.921, 0.391, -0.391, 0.921, 393.408, 0)">
        <g id="Group_147122" data-name="Group 147122" transform="translate(18.447 66.853)">
          <path id="Path_110208" data-name="Path 110208" d="M23.985,41.633C12.65,46.723,2.165,35.042,2.165,35.042L0,11.526,42.632,0,41.353,23.58S35.32,36.543,23.985,41.633Z" transform="translate(0 0)" fill="#956746"/>
        </g>
        <g id="Group_145387" data-name="Group 145387" transform="translate(0 0)">
          <g id="Group_147113" data-name="Group 147113" transform="translate(0 0)">
            <g id="Group_145364" data-name="Group 145364" transform="translate(0 46.534)">
              <g id="Group_145363" data-name="Group 145363">
                <g id="Symbol_34_0_Layer0_0_MEMBER_0_FILL" data-name="Symbol 34 0 Layer0 0 MEMBER 0 FILL">
                  <path id="Path_110211" data-name="Path 110211" d="M10.376,2.272q.31,2.4,1.018,9.048a2.843,2.843,0,0,1-.864,2.412,4.492,4.492,0,0,1-2.455,1.208,5.153,5.153,0,0,1-1.585.068,2.01,2.01,0,0,1-.8-.215,11.748,11.748,0,0,1-4.094-3.451A7.517,7.517,0,0,1,.021,6.222,9.156,9.156,0,0,1,.627,3.545,5.283,5.283,0,0,1,7.218.242,6.676,6.676,0,0,1,10.376,2.272Z" fill="#956746"/>
                </g>
              </g>
            </g>
            <g id="Group_145366" data-name="Group 145366" transform="translate(65.976 35.917)">
              <g id="Group_145365" data-name="Group 145365" transform="translate(0 0)">
                <g id="Symbol_34_0_Layer0_0_MEMBER_1_FILL" data-name="Symbol 34 0 Layer0 0 MEMBER 1 FILL">
                  <path id="Path_110212" data-name="Path 110212" d="M10.283,10.065A9.262,9.262,0,0,1,7.61,14.409a3.245,3.245,0,0,1-.707.443,3.088,3.088,0,0,1-1.338.367,4.751,4.751,0,0,1-2.5-.533,2.75,2.75,0,0,1-1.425-2Q.619,7.412,0,3.728A6.373,6.373,0,0,1,2.2.9,4.535,4.535,0,0,1,5.271.018a4.948,4.948,0,0,1,3.6,2.2,10.26,10.26,0,0,1,1.3,2.39A8.469,8.469,0,0,1,10.283,10.065Z" fill="#956746"/>
                </g>
              </g>
            </g>
            <g id="Group_145368" data-name="Group 145368" transform="translate(3.45 8.906)">
              <g id="Group_145367" data-name="Group 145367" transform="translate(0)">
                <g id="Symbol_34_0_Layer0_0_MEMBER_2_FILL" data-name="Symbol 34 0 Layer0 0 MEMBER 2 FILL">
                  <path id="Path_110213" data-name="Path 110213" d="M5.959,11.885A25.463,25.463,0,0,1,18.015,2.81a47.67,47.67,0,0,1,9.615-2.4Q28.912.223,30.62.085A25.382,25.382,0,0,1,46.737,4.221,28.233,28.233,0,0,1,57.743,17.4l.079.19q4.08,9.751,5.319,13.661a43.64,43.64,0,0,1,2.1,11.691q.041,1.069.28,3.668a30.525,30.525,0,0,1,.021,4.515,22.593,22.593,0,0,1-4.066,11.2,37.426,37.426,0,0,1-13.3,11.9,31.7,31.7,0,0,1-9.75,3.625q-.361.054-3.683.752a36.882,36.882,0,0,1-7.514.5q-11.483-.448-18.46-8.353-5.015-5.7-7.051-15.7A114.712,114.712,0,0,1,.04,37.084,80.139,80.139,0,0,1,.41,26.418,28.69,28.69,0,0,1,5.959,11.885Z" fill="#a2714b"/>
                </g>
              </g>
            </g>
            <g id="Group_145370" data-name="Group 145370" transform="translate(12.304 62.864)">
              <g id="Group_145369" data-name="Group 145369">
                <g id="Symbol_34_0_Layer0_0_MEMBER_3_FILL" data-name="Symbol 34 0 Layer0 0 MEMBER 3 FILL">
                  <path id="Path_110214" data-name="Path 110214" d="M35.581,1.87a16.726,16.726,0,0,1,1.76,1.769l.685.871a14.532,14.532,0,0,1,1.515,2.729q.315.758.935,2.648,1.181,3.534,2.4,6.508a1.717,1.717,0,0,1-.588,2.02A39.158,39.158,0,0,1,32.027,23.56a32.128,32.128,0,0,1-17.254,1.054,31.671,31.671,0,0,1-12.621-5.9A3.855,3.855,0,0,1,.771,16.769a15.969,15.969,0,0,1-.7-3.54A17.92,17.92,0,0,1,.236,8.7,5.868,5.868,0,0,1,1.861,5.876a12.859,12.859,0,0,1,5.9-3.535L7.909,2.3A82.351,82.351,0,0,1,25.983,0Q33.4,0,35.581,1.87Z" fill="#4a3c35"/>
                </g>
              </g>
            </g>
            <g id="Group_145372" data-name="Group 145372" transform="translate(8.068 34.008)">
              <g id="Group_145371" data-name="Group 145371">
                <g id="Symbol_34_0_Layer0_0_MEMBER_4_FILL" data-name="Symbol 34 0 Layer0 0 MEMBER 4 FILL">
                  <path id="Path_110215" data-name="Path 110215" d="M8.2,2.128a8.637,8.637,0,0,1-2.7,1.965A15.606,15.606,0,0,0,1.785,6.817a.9.9,0,0,1-.619.244,1.188,1.188,0,0,1-.718-.195A.907.907,0,0,1,0,6.008c0-.01.048-.2.149-.576A14.3,14.3,0,0,1,5.363.422,2.28,2.28,0,0,1,7.35.125a1.871,1.871,0,0,1,.825.917A1.042,1.042,0,0,1,8.2,2.128Z" fill="#483932"/>
                </g>
              </g>
            </g>
            <g id="Group_145374" data-name="Group 145374" transform="translate(15.227 45.442)">
              <g id="Group_145373" data-name="Group 145373" transform="translate(0 0)">
                <g id="Symbol_34_0_Layer0_0_MEMBER_5_FILL" data-name="Symbol 34 0 Layer0 0 MEMBER 5 FILL">
                  <path id="Path_110216" data-name="Path 110216" d="M4.209.512a2.512,2.512,0,0,1,1.029,1.71,2.51,2.51,0,0,1-.482,1.936A2.572,2.572,0,0,1,3.028,5.189,2.584,2.584,0,0,1,1.06,4.711,2.508,2.508,0,0,1,.032,3,2.512,2.512,0,0,1,.515,1.065,2.59,2.59,0,0,1,2.258.031,2.573,2.573,0,0,1,4.209.512Z" fill="#483932"/>
                </g>
              </g>
            </g>
            <g id="Group_145376" data-name="Group 145376" transform="translate(33.691 29.401)">
              <g id="Group_145375" data-name="Group 145375">
                <g id="Symbol_34_0_Layer0_0_MEMBER_6_FILL" data-name="Symbol 34 0 Layer0 0 MEMBER 6 FILL">
                  <path id="Path_110217" data-name="Path 110217" d="M0,1.7A2.1,2.1,0,0,1,.4.514a2.28,2.28,0,0,1,1.946-.5A14.557,14.557,0,0,1,9.115,2.584a5.065,5.065,0,0,0,.347.477.927.927,0,0,1-.073.979,1.1,1.1,0,0,1-.6.448.813.813,0,0,1-.644.029A15.609,15.609,0,0,0,3.633,3.468,8.625,8.625,0,0,1,.4,2.707,1.04,1.04,0,0,1,0,1.7Z" fill="#483932"/>
                </g>
              </g>
            </g>
            <g id="Group_145378" data-name="Group 145378" transform="translate(33.932 42.646)">
              <g id="Group_145377" data-name="Group 145377" transform="translate(0)">
                <g id="Symbol_34_0_Layer0_0_MEMBER_7_FILL" data-name="Symbol 34 0 Layer0 0 MEMBER 7 FILL">
                  <path id="Path_110218" data-name="Path 110218" d="M4.192.512A2.515,2.515,0,0,1,5.221,2.223a2.51,2.51,0,0,1-.482,1.936A2.539,2.539,0,0,1,3.012,5.19a2.566,2.566,0,0,1-1.951-.482A2.507,2.507,0,0,1,.032,3,2.514,2.514,0,0,1,.514,1.062,2.574,2.574,0,0,1,2.241.033,2.532,2.532,0,0,1,4.192.512Z" fill="#483932"/>
                </g>
              </g>
            </g>
            <path id="Path_110219" data-name="Path 110219" d="M11.579,12.575q-.292-1.737-.314-2.1A8.852,8.852,0,0,1,12.929,5.1a11.565,11.565,0,0,1,2.055-2.423Q17.721.2,23.486.013A35.015,35.015,0,0,1,37.657,2.829a55.5,55.5,0,0,1,9.5,5.026q2.322-3,5.117-3.166a6.193,6.193,0,0,1,3.918,1.16,9.472,9.472,0,0,1,2.561,2.52q4.19,5.9,6.463,18.511a61.833,61.833,0,0,1,1.022,8.51q.115,3.578-.572,3.7-.6.108-2.98-3.868-6.955-11.7-8-13.411a22.017,22.017,0,0,0-7.36-7.328,17.594,17.594,0,0,0-12.554-2.436q-5.3.928-7.871,1.481-5.074,1.109-10.347,2.79a14.809,14.809,0,0,0-7.763,6.132,16.153,16.153,0,0,0-2.623,5.7q-1.11,5.489-2.1,13.815Q3.372,47.837,3,47.9q-.577.068-1.488-5.454Q.593,36.886.137,30.592a40.41,40.41,0,0,1,.044-7.227,20.394,20.394,0,0,1,2.426-7.8Q4.468,12.3,6.447,12.052a4.975,4.975,0,0,1,3,.961q1.573.971,1.955.714C11.622,13.57,11.682,13.187,11.579,12.575Z" transform="translate(0.561 0)" fill="#493c35"/>
            <g id="Group_145382" data-name="Group 145382" transform="translate(22.491 54.234)">
              <g id="Group_145381" data-name="Group 145381">
                <g id="Symbol_34_0_Layer0_0_MEMBER_9_FILL" data-name="Symbol 34 0 Layer0 0 MEMBER 9 FILL">
                  <path id="Path_110220" data-name="Path 110220" d="M.065,6.164a5.157,5.157,0,0,1,1-3.977A5.122,5.122,0,0,1,4.575.066a5.176,5.176,0,0,1,3.994,1,5.128,5.128,0,0,1,2.12,3.51,5.13,5.13,0,0,1-1,3.977,5.18,5.18,0,0,1-3.528,2.122,5.123,5.123,0,0,1-3.977-1A5.123,5.123,0,0,1,.065,6.164Z" fill="#a2714b"/>
                </g>
              </g>
            </g>
            <g id="Group_145384" data-name="Group 145384" transform="translate(22.291 55.436)">
              <g id="Group_145383" data-name="Group 145383" transform="translate(0 0)">
                <g id="Symbol_34_0_Layer0_0_MEMBER_10_FILL" data-name="Symbol 34 0 Layer0 0 MEMBER 10 FILL">
                  <path id="Path_110221" data-name="Path 110221" d="M.015,3.522A6.173,6.173,0,0,1,1.322.136.282.282,0,0,1,1.537,0a.31.31,0,0,1,.244.063A.3.3,0,0,1,1.834.53,5.7,5.7,0,0,0,.66,3.576,6.348,6.348,0,0,0,1.6,7.265,4.4,4.4,0,0,0,4.86,9.53a4.442,4.442,0,0,0,1.869-.179,5.206,5.206,0,0,0,1.743-.933A5.443,5.443,0,0,0,9.915,6.625a5.789,5.789,0,0,0,.637-2.245.3.3,0,0,1,.118-.219.291.291,0,0,1,.239-.087.315.315,0,0,1,.22.119.294.294,0,0,1,.085.24,6.358,6.358,0,0,1-.718,2.49,6.287,6.287,0,0,1-1.615,2,5.679,5.679,0,0,1-2.754,1.235,4.534,4.534,0,0,1-1.341.016A5.043,5.043,0,0,1,1.175,7.8,6.824,6.824,0,0,1,.015,3.522Z" fill="#916544"/>
                </g>
              </g>
            </g>
            <g id="Group_145386" data-name="Group 145386" transform="translate(26.066 66.168)">
              <g id="Group_145385" data-name="Group 145385" transform="translate(0)">
                <g id="Symbol_34_0_Layer0_0_MEMBER_11_FILL" data-name="Symbol 34 0 Layer0 0 MEMBER 11 FILL">
                  <path id="Path_110222" data-name="Path 110222" d="M14.367.035c.231.123.3.492.215,1.111A6.494,6.494,0,0,1,14.056,2.9a9.818,9.818,0,0,1-4.789,4.68q-3.513,1.768-6.115.663A5.871,5.871,0,0,1,.68,6.2Q-.3,4.8.134,4.113a1.088,1.088,0,0,1,.249-.24A1,1,0,0,1,1.3,3.82a8.839,8.839,0,0,0,1.965.562,11.365,11.365,0,0,0,4.1-.178A11.692,11.692,0,0,0,12.143,1.56q1-.923,1.38-1.215C13.9.043,14.184-.062,14.367.035Z" fill="#c7c0cd"/>
                </g>
              </g>
            </g>
          </g>
        </g>
      </g>
    </g>
    <g id="freepik--Table--inject-2" transform="translate(55.454 353.449)">
      <rect id="Rectangle_36042" data-name="Rectangle 36042" width="416.768" height="18.208" transform="translate(0 0.013)" fill="#455a64"/>
      <path id="Path_118089" data-name="Path 118089" d="M136.17,289.73s0,.078-.131.2-.236.314-.432.549a8.593,8.593,0,0,1-2.093,1.673,11.926,11.926,0,0,1-4.03,1.307,28.4,28.4,0,0,1-5.613.235,53.4,53.4,0,0,1-6.764-.771A59.85,59.85,0,0,0,109.4,292a47.637,47.637,0,0,0-17.322,3.359c-5.953,2.17-11.552,4.588-16.785,6.052a46.772,46.772,0,0,1-7.667,1.529,32.9,32.9,0,0,1-6.816,0,23.173,23.173,0,0,1-9.341-2.993,14.388,14.388,0,0,1-2.891-2.157s.078,0,.209.131l.549.405a19.268,19.268,0,0,0,2.237,1.451,23.565,23.565,0,0,0,9.276,2.8,32.37,32.37,0,0,0,6.738,0,46.549,46.549,0,0,0,7.588-1.542c5.233-1.49,10.793-3.921,16.772-6.039a47.489,47.489,0,0,1,17.518-3.346,59.366,59.366,0,0,1,7.745.967,56.6,56.6,0,0,0,6.711.837,28.992,28.992,0,0,0,5.547-.17,11.989,11.989,0,0,0,3.925-1.242,10.372,10.372,0,0,0,2.774-2.314Z" transform="translate(-47.887 -289.455)" fill="#263238"/>
      <path id="Path_118090" data-name="Path 118090" d="M89.675,289.943a7.846,7.846,0,0,1-1.308,1.085,27.959,27.959,0,0,1-3.807,2.444,33.233,33.233,0,0,1-6.214,2.523A33.694,33.694,0,0,1,70.22,297.3,30.937,30.937,0,0,1,55.7,294.309a9.065,9.065,0,0,1-3.506-2.863,4.993,4.993,0,0,1-.576-1.1c-.092-.261-.131-.405-.1-.418a11.021,11.021,0,0,0,.837,1.4,9.431,9.431,0,0,0,3.506,2.614,32.091,32.091,0,0,0,14.391,2.81,33.833,33.833,0,0,0,14.195-3.608,35.792,35.792,0,0,0,3.846-2.287,11.315,11.315,0,0,1,1.387-.915Z" transform="translate(-46.985 -289.394)" fill="#263238"/>
      <path id="Path_118091" data-name="Path 118091" d="M163.285,300.616a6.718,6.718,0,0,1,.654.235,11.483,11.483,0,0,0,9.158-.627v.235A17.383,17.383,0,0,0,164.031,297a17.634,17.634,0,0,0-11.775,3.059,1.9,1.9,0,0,0-.916,1.176,1.307,1.307,0,0,0,.785,1.176,5.431,5.431,0,0,0,1.622.575l1.766.392c2.394.536,4.854,1.059,7.4,1.438a44.521,44.521,0,0,0,7.85.536,30.211,30.211,0,0,0,4.043-.392c.667-.118,1.308-.248,2.015-.418a9.857,9.857,0,0,0,1.936-.627,6.4,6.4,0,0,0,2.525-1.83,2.834,2.834,0,0,0,.484-2.8,4.734,4.734,0,0,0-1.975-2.209,15.1,15.1,0,0,0-2.774-1.307,37.63,37.63,0,0,0-11.565-2.405,48.228,48.228,0,0,0-19.742,2.954,49.144,49.144,0,0,0-11.892,6.536c-1.308.98-2.25,1.752-2.878,2.327l-.733.627c-.157.144-.249.209-.262.2l.235-.235.693-.667c.6-.588,1.57-1.4,2.826-2.405a47.4,47.4,0,0,1,11.892-6.679,48,48,0,0,1,19.912-3.189,38.114,38.114,0,0,1,11.775,2.405,16.429,16.429,0,0,1,2.852,1.4,5.229,5.229,0,0,1,2.185,2.457,3.344,3.344,0,0,1-.563,3.281,6.83,6.83,0,0,1-2.721,1.987,10.472,10.472,0,0,1-2.028.654,18.947,18.947,0,0,1-2.054.431,30.972,30.972,0,0,1-4.108.392,44.208,44.208,0,0,1-7.954-.562c-2.617-.379-5.037-.915-7.431-1.451l-1.766-.405a6.262,6.262,0,0,1-1.753-.627,2.275,2.275,0,0,1-.733-.641,1.45,1.45,0,0,1-.262-.98,2.288,2.288,0,0,1,1.1-1.5,17.923,17.923,0,0,1,12.062-3.059,17.566,17.566,0,0,1,9.158,3.673l.17.131-.2.1a11.312,11.312,0,0,1-7.444,1.033A8.224,8.224,0,0,1,163.285,300.616Z" transform="translate(-22.801 -288.525)" fill="#263238"/>
      <path id="Path_118092" data-name="Path 118092" d="M199.82,290.09a2.617,2.617,0,0,1,.419.928,6.987,6.987,0,0,1,.275,2.732,13.563,13.563,0,0,1-4.056,7.947,20.68,20.68,0,0,1-3.794,3.215A17.565,17.565,0,0,1,189,306.69a17.025,17.025,0,0,1-2.617.654,4.293,4.293,0,0,1-.994.091c0-.091,1.4-.288,3.532-1.1a18.156,18.156,0,0,0,3.519-1.817,21.364,21.364,0,0,0,3.676-3.176,13.747,13.747,0,0,0,4.069-7.633,9.52,9.52,0,0,0-.366-3.62Z" transform="translate(-5.71 -289.345)" fill="#263238"/>
      <path id="Path_118093" data-name="Path 118093" d="M267.95,305.541a14.153,14.153,0,0,0-8.452-4.784,14.521,14.521,0,0,0-4.958.131,20.732,20.732,0,0,1-5.809.536,11.569,11.569,0,0,1-5.8-2.836,19.63,19.63,0,0,0-5.822-3.438,21.343,21.343,0,0,0-12.926-.209,30.636,30.636,0,0,0-9.55,4.836,52.842,52.842,0,0,0-5.547,4.732l-1.4,1.4a4.46,4.46,0,0,1-.51.471,3.345,3.345,0,0,1,.432-.549c.3-.34.746-.836,1.308-1.464a46.714,46.714,0,0,1,5.469-4.875,30.584,30.584,0,0,1,9.642-5.006,21.606,21.606,0,0,1,13.227.183,19.72,19.72,0,0,1,5.953,3.529,11.256,11.256,0,0,0,5.547,2.758,20.858,20.858,0,0,0,5.691-.484,14.866,14.866,0,0,1,5.089-.078,13.351,13.351,0,0,1,6.542,3.15,9.155,9.155,0,0,1,1.871,2Z" transform="translate(1.008 -288.287)" fill="#263238"/>
      <path id="Path_118094" data-name="Path 118094" d="M320.185,289.66a4.625,4.625,0,0,1-.458.627c-.314.379-.746.993-1.413,1.686a38.808,38.808,0,0,1-6.083,5.4,48.423,48.423,0,0,1-10.558,5.843,41.6,41.6,0,0,1-6.816,2.17,35.08,35.08,0,0,1-7.614.98,37.552,37.552,0,0,1-14.391-2.993,48.235,48.235,0,0,1-10.466-5.96,41.235,41.235,0,0,1-6.031-5.438,20.708,20.708,0,0,1-1.426-1.7,4.174,4.174,0,0,1-.458-.614,4.839,4.839,0,0,1,.536.549c.34.366.8.954,1.491,1.621a43.972,43.972,0,0,0,6.11,5.294,48.475,48.475,0,0,0,10.466,5.8,37.483,37.483,0,0,0,14.26,2.928,35.25,35.25,0,0,0,7.509-.954,44.148,44.148,0,0,0,6.738-2.117,49.882,49.882,0,0,0,10.466-5.7,41.854,41.854,0,0,0,6.149-5.228c.693-.667,1.151-1.307,1.491-1.621A4.493,4.493,0,0,1,320.185,289.66Z" transform="translate(15.586 -289.477)" fill="#263238"/>
      <path id="Path_118095" data-name="Path 118095" d="M307.208,289.53a2.792,2.792,0,0,1-.366.288c-.235.17-.589.431-1.073.732a43.249,43.249,0,0,1-4.173,2.353,44.58,44.58,0,0,1-6.541,2.68,28.992,28.992,0,0,1-8.609,1.477,35.532,35.532,0,0,1-15.281-3.921,34.363,34.363,0,0,1-4.134-2.431c-.471-.314-.811-.588-1.06-.771s-.353-.288-.34-.3a13.1,13.1,0,0,1,1.5.9,42.158,42.158,0,0,0,4.186,2.274,36.869,36.869,0,0,0,15.124,3.673,30.115,30.115,0,0,0,8.465-1.412,47.194,47.194,0,0,0,6.541-2.614c1.819-.863,3.245-1.634,4.226-2.209a12.8,12.8,0,0,1,1.531-.719Z" transform="translate(19.027 -289.517)" fill="#263238"/>
      <path id="Path_118096" data-name="Path 118096" d="M370.258,291.132a3.716,3.716,0,0,1-.837,0l-2.342-.092-1.7-.078h-6.934l-2.865.092-3.075.209c-2.146.1-4.383.405-6.764.627-4.71.6-9.812,1.438-15.006,2.614a141.663,141.663,0,0,0-14.064,4.013c-2.015.758-4,1.425-5.7,2.183l-2.525,1.046-2.224,1.046c-1.452.64-2.617,1.307-3.716,1.869l-1.5.784-1.177.706-1.661.98a3.719,3.719,0,0,1-.628.314,4.552,4.552,0,0,1,.484-.392l1.557-1.033,1.125-.745,1.465-.824a39.621,39.621,0,0,1,3.65-1.934l2.211-1.085,2.512-1.085c1.7-.771,3.689-1.464,5.717-2.235a139.871,139.871,0,0,1,14.156-4.091c5.233-1.176,10.466-2,15.176-2.614,2.407-.222,4.671-.5,6.829-.588l3.114-.183,2.891-.065H365.4l1.7.118,2.342.183a4.917,4.917,0,0,1,.811.261Z" transform="translate(28.861 -289.197)" fill="#263238"/>
      <path id="Path_118097" data-name="Path 118097" d="M279.09,305.946a19.016,19.016,0,0,0-2.29-2.719,21.331,21.331,0,0,0-8.4-4.693,44.788,44.788,0,0,0-6.541-1.438c-2.394-.379-4.958-.68-7.667-1.15a63.962,63.962,0,0,1-8.268-2.078,54.982,54.982,0,0,0-8.87-2.144,36.937,36.937,0,0,0-17.3,2.392,62.845,62.845,0,0,0-7.039,3.15c-2.159,1.111-4.134,2.2-5.927,3.2-3.585,2.026-6.437,3.764-8.412,4.954l-2.263,1.386-.589.366-.209.1.183-.157.563-.392c.5-.353,1.243-.85,2.211-1.477,1.936-1.307,4.775-3.019,8.334-5.1,1.792-1.033,3.768-2.144,5.913-3.268a64.63,64.63,0,0,1,7.065-3.215,37.121,37.121,0,0,1,17.531-2.457,54.271,54.271,0,0,1,8.949,2.17,66.218,66.218,0,0,0,8.268,2.1c2.617.47,5.233.784,7.64,1.189a44.632,44.632,0,0,1,6.541,1.516,20.936,20.936,0,0,1,8.438,4.889A10.535,10.535,0,0,1,279.09,305.946Z" transform="translate(-2.649 -289.058)" fill="#263238"/>
      <path id="Path_118098" data-name="Path 118098" d="M192.52,289.73a3.919,3.919,0,0,1,0,1.163,12.645,12.645,0,0,1-.811,3.072,17.635,17.635,0,0,1-6.4,8.2,43.184,43.184,0,0,1-9.5,4.366c-1.308.418-2.316.719-3.035.915a5.663,5.663,0,0,1-1.138.235,4.953,4.953,0,0,1,1.086-.431l2.97-1.059a49.132,49.132,0,0,0,9.328-4.457,18.3,18.3,0,0,0,6.345-7.843A23.6,23.6,0,0,0,192.52,289.73Z" transform="translate(-9.949 -289.455)" fill="#263238"/>
      <path id="Path_118099" data-name="Path 118099" d="M113.65,307.676a7.13,7.13,0,0,1,1.007-.98c.68-.6,1.688-1.438,2.97-2.418a84.409,84.409,0,0,1,10.636-6.849c4.33-2.379,8.373-4.274,11.3-5.634,1.478-.667,2.617-1.2,3.506-1.555a8.675,8.675,0,0,1,1.308-.51,6.9,6.9,0,0,1-1.23.693l-3.428,1.712c-2.891,1.425-6.908,3.372-11.212,5.738a104.367,104.367,0,0,0-10.662,6.692c-1.308.941-2.355,1.725-3.061,2.287a7.617,7.617,0,0,1-1.138.823Z" transform="translate(-27.826 -289.455)" fill="#263238"/>
      <path id="Path_118100" data-name="Path 118100" d="M143.939,290.357c0,.065-.968-.118-2.7,0a19.024,19.024,0,0,0-6.947,2.1,63.47,63.47,0,0,0-9.04,6.065,46.75,46.75,0,0,1-5.429,3.516,30.1,30.1,0,0,1-6.541,2.5,59.9,59.9,0,0,1-13.305,1.608c-4.121.118-7.85,0-10.924.157a55.6,55.6,0,0,0-7.313.719c-.85.157-1.5.288-1.949.392a3.817,3.817,0,0,1-.693.131,2.622,2.622,0,0,1,.667-.235c.432-.131,1.086-.288,1.949-.484a47.459,47.459,0,0,1,7.326-.876c3.114-.183,6.816-.131,10.924-.274a61.969,61.969,0,0,0,13.2-1.621,30.75,30.75,0,0,0,6.4-2.457,44.8,44.8,0,0,0,5.39-3.464,61.49,61.49,0,0,1,9.158-5.987,18.24,18.24,0,0,1,7.091-1.987,11.231,11.231,0,0,1,2.015,0Z" transform="translate(-38.478 -289.337)" fill="#263238"/>
      <path id="Path_118101" data-name="Path 118101" d="M79.552,521.344H73.625L70.25,302.38H82.914Z" transform="translate(-41.206 -285.571)" fill="#455a64"/>
      <path id="Path_118102" data-name="Path 118102" d="M370.575,521.178h-5.914l2.975-218.318H380.3Z" transform="translate(49.563 -285.423)" fill="#263238"/>
      <rect id="Rectangle_36043" data-name="Rectangle 36043" width="52.842" height="18.208" transform="translate(396.895)" fill="#263238"/>
    </g>
    <g id="freepik--Plants--inject-2" transform="translate(121.17 275.794)">
      <g id="freepik--plants--inject-2-2" data-name="freepik--plants--inject-2">
        <path id="Path_118103" data-name="Path 118103" d="M100.72,265.64l4.788,31.436h27.814l6.45-30.978Z" transform="translate(-97.528 -219.198)" fill="#fa0"/>
        <path id="Path_118104" data-name="Path 118104" d="M135.1,281.087c0,.091-7.13.17-15.922.17s-15.909-.078-15.909-.17,7.117-.157,15.909-.157S135.1,281.021,135.1,281.087Z" transform="translate(-96.742 -214.503)" fill="#fafafa"/>
        <path id="Path_118105" data-name="Path 118105" d="M135.233,279.907c0,.091-7.169.17-16.026.17s-16.027-.078-16.027-.17,7.182-.157,16.027-.157S135.233,279.815,135.233,279.907Z" transform="translate(-96.769 -214.865)" fill="#fafafa"/>
        <path id="Path_118106" data-name="Path 118106" d="M135.193,278.567c0,.091-7.169.17-16.026.17s-16.026-.078-16.026-.17,7.182-.157,16.026-.157S135.193,278.488,135.193,278.567Z" transform="translate(-96.782 -215.277)" fill="#fafafa"/>
        <path id="Path_118107" data-name="Path 118107" d="M107.147,290.184a24.975,24.975,0,0,1-.85-3.921,25.569,25.569,0,0,1-.536-4.013,24.553,24.553,0,0,1,.85,3.921,23.832,23.832,0,0,1,.536,4.013Z" transform="translate(-95.974 -214.097)" fill="#fafafa"/>
        <path id="Path_118108" data-name="Path 118108" d="M108.4,289.887a32.141,32.141,0,0,1-.353-3.856,30.955,30.955,0,0,1-.183-3.921,18.285,18.285,0,0,1,.51,3.856,20.06,20.06,0,0,1,.026,3.921Z" transform="translate(-95.328 -214.14)" fill="#fafafa"/>
        <path id="Path_118109" data-name="Path 118109" d="M111.126,289.924a20.687,20.687,0,0,1-.72-3.921,18.8,18.8,0,0,1-.209-4.013,35.018,35.018,0,0,1,.536,3.921,36,36,0,0,1,.392,4.013Z" transform="translate(-94.615 -214.177)" fill="#fafafa"/>
        <path id="Path_118110" data-name="Path 118110" d="M112.843,290.085a32.855,32.855,0,0,1-.262-8.065q.288,4.026.262,8.065Z" transform="translate(-93.913 -214.168)" fill="#fafafa"/>
        <path id="Path_118111" data-name="Path 118111" d="M116.074,289.856a46.646,46.646,0,0,1-.262-7.646,46.646,46.646,0,0,1,.262,7.646Z" transform="translate(-92.891 -214.11)" fill="#fafafa"/>
        <path id="Path_118112" data-name="Path 118112" d="M118.457,290.033a24.4,24.4,0,0,1-.131-3.921,24.9,24.9,0,0,1,.2-3.921,24.408,24.408,0,0,1,.131,3.921,23.164,23.164,0,0,1-.2,3.921Z" transform="translate(-92.108 -214.116)" fill="#fafafa"/>
        <path id="Path_118113" data-name="Path 118113" d="M120.672,289.8a25.673,25.673,0,0,1,.235-4.131,26.569,26.569,0,0,1,.563-4.1,28.727,28.727,0,0,1-.249,4.131A27.637,27.637,0,0,1,120.672,289.8Z" transform="translate(-91.379 -214.306)" fill="#fafafa"/>
        <path id="Path_118114" data-name="Path 118114" d="M123.56,289.172a13.713,13.713,0,0,1,.471-3.5,13.181,13.181,0,0,1,1.034-3.4c.078,0-.314,1.569-.72,3.464a32.524,32.524,0,0,1-.785,3.438Z" transform="translate(-90.486 -214.091)" fill="#fafafa"/>
        <path id="Path_118115" data-name="Path 118115" d="M98.28,260.88v5.882a2.315,2.315,0,0,0,2.316,2.314h40.282a2.315,2.315,0,0,0,2.316-2.314V260.88Z" transform="translate(-98.28 -220.66)" fill="#fa0"/>
        <g id="Group_148317" data-name="Group 148317" transform="translate(3.493 48.415)" opacity="0.4">
          <path id="Path_118116" data-name="Path 118116" d="M100.95,267.15l.327,1.869,37.168,2.653.942-4.523Z" transform="translate(-100.95 -267.15)"/>
        </g>
        <path id="Path_118117" data-name="Path 118117" d="M111.65,269.771c-5.927-3.425-9.158-11.4-9.328-17.92s2.486-13.345,7.85-17.084a17.924,17.924,0,0,1,19.467-.1,20.228,20.228,0,0,1,8.9,17.528,23.313,23.313,0,0,1-9.55,17.515" transform="translate(-97.036 -229.578)" fill="#1dc76c"/>
        <path id="Path_118118" data-name="Path 118118" d="M117.067,270.271a7.747,7.747,0,0,1-.118-1.5c0-1.059,0-2.431-.118-4.065-.079-3.438-.222-8.182-.445-13.424s-.51-9.986-.733-13.411c-.092-1.634-.183-3.006-.236-4.065a7.837,7.837,0,0,1,0-1.5,7.929,7.929,0,0,1,.235,1.477c.118.967.262,2.34.419,4.065.314,3.425.654,8.169.89,13.411s.3,10,.288,13.45v4.065A8.683,8.683,0,0,1,117.067,270.271Z" transform="translate(-93.008 -229.437)" fill="#263238"/>
        <path id="Path_118119" data-name="Path 118119" d="M104.643,246.127a4.347,4.347,0,0,1-2.106.1c-1.151-.1-2.08-.3-2.067-.458a4.346,4.346,0,0,1,2.106-.1A4.747,4.747,0,0,1,104.643,246.127Z" transform="translate(-97.605 -225.357)" fill="#263238"/>
        <path id="Path_118120" data-name="Path 118120" d="M104.716,241.906c0,.131-.877-.091-1.819-.51s-1.662-.863-1.6-1.006.877.078,1.818.5S104.833,241.763,104.716,241.906Z" transform="translate(-97.35 -226.966)" fill="#263238"/>
        <path id="Path_118121" data-name="Path 118121" d="M107.009,238.87c-.078.131-.994-.3-1.936-1.1s-1.557-1.595-1.439-1.7.863.51,1.792,1.307S107.1,238.739,107.009,238.87Z" transform="translate(-96.634 -228.282)" fill="#263238"/>
        <path id="Path_118122" data-name="Path 118122" d="M108.883,235.842c-.144.065-.576-.627-.981-1.529s-.615-1.686-.471-1.752.576.627.981,1.529S109.027,235.75,108.883,235.842Z" transform="translate(-95.473 -229.358)" fill="#263238"/>
        <path id="Path_118123" data-name="Path 118123" d="M112.454,233.679a3.1,3.1,0,0,1-.929-1.673c-.314-1.02-.34-1.869-.183-1.9s.419.758.72,1.738S112.6,233.626,112.454,233.679Z" transform="translate(-94.282 -230.11)" fill="#263238"/>
        <path id="Path_118124" data-name="Path 118124" d="M118.473,230.341c.144,0,0,.667-.2,1.386s-.576,1.307-.72,1.2-.065-.667.2-1.386S118.329,230.289,118.473,230.341Z" transform="translate(-92.359 -230.04)" fill="#263238"/>
        <path id="Path_118125" data-name="Path 118125" d="M123.231,232.275c.1.1-.275.627-.837,1.15s-1.125.863-1.23.758.275-.64.85-1.163S123.127,232.158,123.231,232.275Z" transform="translate(-91.23 -229.451)" fill="#263238"/>
        <path id="Path_118126" data-name="Path 118126" d="M127.262,234.838c.079.118-.379.588-1.034,1.033s-1.308.693-1.308.562.379-.588,1.034-1.033S127.17,234.707,127.262,234.838Z" transform="translate(-90.067 -228.668)" fill="#263238"/>
        <path id="Path_118127" data-name="Path 118127" d="M130.338,238.649a3.827,3.827,0,0,1-1.622.993c-.955.405-1.779.627-1.845.484s.667-.588,1.622-.993S130.273,238.518,130.338,238.649Z" transform="translate(-89.467 -227.499)" fill="#263238"/>
        <path id="Path_118128" data-name="Path 118128" d="M131.426,242.844c0,.144-.72.366-1.648.484s-1.7.078-1.727-.078.72-.366,1.648-.484S131.4,242.688,131.426,242.844Z" transform="translate(-89.102 -226.244)" fill="#263238"/>
        <path id="Path_118129" data-name="Path 118129" d="M131.975,248.278c0,.144-.837-.065-1.753-.457s-1.6-.837-1.531-.98.837.078,1.753.47S132.04,248.134,131.975,248.278Z" transform="translate(-88.906 -224.985)" fill="#263238"/>
        <path id="Path_118130" data-name="Path 118130" d="M131.56,252.892a3.5,3.5,0,0,1-2.093-.784c-1.034-.68-1.648-1.49-1.544-1.595s.864.5,1.858,1.124S131.612,252.735,131.56,252.892Z" transform="translate(-89.145 -223.847)" fill="#263238"/>
        <path id="Path_118131" data-name="Path 118131" d="M129.05,257.01c-.092.118-.89-.353-1.648-1.163s-1.164-1.647-1.047-1.725.72.562,1.452,1.307S129.141,256.893,129.05,257.01Z" transform="translate(-89.631 -222.738)" fill="#263238"/>
        <path id="Path_118132" data-name="Path 118132" d="M107.607,256.808a5.976,5.976,0,0,1-1.858,1.307,4.922,4.922,0,0,1-2.119.784,6.176,6.176,0,0,1,1.858-1.307C106.574,256.991,107.542,256.664,107.607,256.808Z" transform="translate(-96.631 -221.921)" fill="#263238"/>
        <path id="Path_118133" data-name="Path 118133" d="M105.449,253.191a3.694,3.694,0,0,1-1.491.98c-.877.405-1.662.614-1.727.471s.6-.575,1.491-.98S105.384,253.047,105.449,253.191Z" transform="translate(-97.063 -223.035)" fill="#263238"/>
        <path id="Path_118134" data-name="Path 118134" d="M104.115,250.029c0,.157-.811.392-1.845.536s-1.884.144-1.91,0,.8-.392,1.832-.536S104.089,249.846,104.115,250.029Z" transform="translate(-97.639 -224.03)" fill="#263238"/>
        <path id="Path_118135" data-name="Path 118135" d="M108.882,248.216c0,.144-.746.523-1.819.64s-1.936-.065-1.923-.209.85-.222,1.858-.34S108.882,248.072,108.882,248.216Z" transform="translate(-96.165 -224.57)" fill="#263238"/>
        <path id="Path_118136" data-name="Path 118136" d="M112.7,244.274c0,.144-.589.458-1.452.549s-1.544-.1-1.531-.261.68-.209,1.478-.3S112.7,244.117,112.7,244.274Z" transform="translate(-94.753 -225.791)" fill="#263238"/>
        <path id="Path_118137" data-name="Path 118137" d="M113.425,241.33c0,.144-.746,0-1.544-.248s-1.413-.614-1.308-.758.746,0,1.544.235S113.477,241.225,113.425,241.33Z" transform="translate(-94.494 -226.991)" fill="#263238"/>
        <path id="Path_118138" data-name="Path 118138" d="M114.5,238.337c-.1.1-.589-.209-.916-.8s-.379-1.15-.235-1.19.406.392.706.915S114.6,238.233,114.5,238.337Z" transform="translate(-93.658 -228.194)" fill="#263238"/>
        <path id="Path_118139" data-name="Path 118139" d="M113.048,251.024c0,.144-.563.418-1.308.6a4.689,4.689,0,0,1-1.125.17l-.1-.327h.353c.026,0,0,.157-.222.274l-.1-.314a5.237,5.237,0,0,1,1.073-.379C112.355,250.906,113.009,250.867,113.048,251.024Z" transform="translate(-94.51 -223.718)" fill="#263238"/>
        <path id="Path_118140" data-name="Path 118140" d="M114.122,256.631a3.934,3.934,0,0,1-1.7.954c-.994.379-1.845.6-1.91.458s.706-.575,1.7-.967S114.069,256.487,114.122,256.631Z" transform="translate(-94.511 -221.979)" fill="#263238"/>
        <path id="Path_118141" data-name="Path 118141" d="M109.356,254.138c0,.144-.458.444-1.138.68s-1.308.3-1.308.157.458-.457,1.125-.68S109.3,253.982,109.356,254.138Z" transform="translate(-95.619 -222.754)" fill="#263238"/>
        <path id="Path_118142" data-name="Path 118142" d="M109.978,242.993c0,.144-.916,0-1.936-.3s-1.766-.85-1.7-.993.89.118,1.884.471S110.017,242.837,109.978,242.993Z" transform="translate(-95.796 -226.563)" fill="#263238"/>
        <path id="Path_118143" data-name="Path 118143" d="M120.6,241.448c.092.118-.406.6-1.112,1.059s-1.308.732-1.413.6.406-.6,1.112-1.059S120.507,241.317,120.6,241.448Z" transform="translate(-92.182 -226.638)" fill="#263238"/>
        <path id="Path_118144" data-name="Path 118144" d="M121.163,247.1c0,.144-.484.379-1.164.523s-1.308.131-1.308,0,.5-.392,1.164-.523S121.136,247,121.163,247.1Z" transform="translate(-91.988 -224.919)" fill="#263238"/>
        <path id="Path_118145" data-name="Path 118145" d="M122.011,253.78c0,.131-.824-.078-1.688-.484s-1.5-.837-1.452-.967.824.065,1.688.471S122.076,253.637,122.011,253.78Z" transform="translate(-91.933 -223.298)" fill="#263238"/>
        <path id="Path_118146" data-name="Path 118146" d="M120.242,260.1c-.118.1-.615-.3-1.1-.889s-.785-1.15-.667-1.242.615.3,1.1.889S120.36,260.012,120.242,260.1Z" transform="translate(-92.062 -221.557)" fill="#263238"/>
        <path id="Path_118147" data-name="Path 118147" d="M119.968,237.289c.092.118-.236.523-.785.8s-1.073.3-1.112.157.366-.392.863-.64S119.876,237.171,119.968,237.289Z" transform="translate(-92.18 -227.916)" fill="#263238"/>
        <path id="Path_118148" data-name="Path 118148" d="M125.574,243.021c0,.144-.6.5-1.478.614s-1.6,0-1.6-.183.693-.248,1.518-.366S125.522,242.838,125.574,243.021Z" transform="translate(-90.813 -226.172)" fill="#263238"/>
        <path id="Path_118149" data-name="Path 118149" d="M124.545,237.87c0,.144-.576.6-1.491.889s-1.7.288-1.714.144.68-.392,1.544-.68S124.467,237.739,124.545,237.87Z" transform="translate(-91.171 -227.739)" fill="#263238"/>
        <path id="Path_118150" data-name="Path 118150" d="M127.1,251.09a4.242,4.242,0,0,1-2.42,0,4.189,4.189,0,0,1-2.263-.85,7.736,7.736,0,0,1,2.368.3,7.426,7.426,0,0,1,2.316.549Z" transform="translate(-90.838 -223.928)" fill="#263238"/>
        <path id="Path_118151" data-name="Path 118151" d="M124.681,258.988c-.092.118-.9-.353-1.7-1.163s-1.308-1.621-1.164-1.712.772.536,1.557,1.307S124.812,258.87,124.681,258.988Z" transform="translate(-91.032 -222.127)" fill="#263238"/>
        <path id="Path_118152" data-name="Path 118152" d="M118.053,231.82a25.036,25.036,0,0,0-4.854,3.843,23.636,23.636,0,0,0-6.031,13.385,29.515,29.515,0,0,0,.366,8.2,62.949,62.949,0,0,0,1.531,6.535c.536,1.856,1.02,3.333,1.308,4.366a9.246,9.246,0,0,1,.471,1.608,9.876,9.876,0,0,1-.667-1.529c-.392-1.02-.942-2.484-1.518-4.327a54.746,54.746,0,0,1-1.675-6.535,30.036,30.036,0,0,1-.406-8.352,23.283,23.283,0,0,1,6.319-13.581,17.124,17.124,0,0,1,3.637-2.823,9.9,9.9,0,0,1,1.1-.588A1.715,1.715,0,0,1,118.053,231.82Z" transform="translate(-95.76 -229.584)" fill="#263238"/>
        <path id="Path_118153" data-name="Path 118153" d="M122.987,270.092a48.607,48.607,0,0,0,2.486-5.96,33.7,33.7,0,0,0,1.491-15.293,28.8,28.8,0,0,0-2.368-8.169,19.082,19.082,0,0,0-4.016-5.594,14.508,14.508,0,0,0-3.925-2.5c-1.02-.431-1.635-.523-1.635-.575a1.985,1.985,0,0,1,.458,0,7.451,7.451,0,0,1,1.308.34,13.516,13.516,0,0,1,4.121,2.392,18.981,18.981,0,0,1,4.239,5.686,28.371,28.371,0,0,1,2.446,8.3,32.324,32.324,0,0,1-1.675,15.5c-.314.954-.706,1.778-1.007,2.523a18.082,18.082,0,0,1-.929,1.83A12.768,12.768,0,0,1,122.987,270.092Z" transform="translate(-93.119 -229.532)" fill="#263238"/>
        <path id="Path_118154" data-name="Path 118154" d="M406.833,417.025c-9.76,3.411-22.476.366-30.823-5.725s-14.391-14.8-19.624-23.645c-2.263-3.778-4.487-7.712-5.233-12.051s.34-9.241,3.7-12.078c5.233-4.4,13.279-2.17,19.232,1.216a66.25,66.25,0,0,1,32.707,52.284" transform="translate(-20.392 -189.891)" fill="#4ad991" opacity="0.57"/>
        <path id="Path_118155" data-name="Path 118155" d="M400.306,425.355c-5.848,7.725-15.909,11.163-25.59,11.607s-19.258-2.222-28.311-5.7c-3.284-1.307-6.882-2.98-8.007-6.313a8.046,8.046,0,0,1,1.714-7.451,16.89,16.89,0,0,1,6.541-4.444,44.677,44.677,0,0,1,28.495-1.542c9.367,2.431,17.557,7.843,25.158,13.842" transform="translate(-24.344 -174.902)" fill="#4ad991" opacity="0.57"/>
        <path id="Path_118156" data-name="Path 118156" d="M399.294,385.665c-8.072.17-14.182-6.9-17.845-14.09a52.149,52.149,0,0,1-4.8-32.586c.733-4.117,2.289-8.561,5.992-10.535s8.622-.693,11.775,2.17,4.867,6.967,6.123,11.032c4.33,14.012,3.4,30.063-1.308,44.01" transform="translate(-12.709 -200.201)" fill="#4ad991" opacity="0.57"/>
        <path id="Path_118157" data-name="Path 118157" d="M416.974,426.575c-13.763-23.41-16.053-52.035-7.928-77.942,1.308-4.2,3.807-9.006,8.2-9.28,4.88-.314,7.928,5.111,9.276,9.8,4.723,16.443,3.716,33.919,2.617,50.977-.641,10.522-4.252,19.515-12.219,26.429" transform="translate(-3.922 -196.565)" fill="#4ad991" opacity="0.57"/>
        <path id="Path_118158" data-name="Path 118158" d="M425.006,422.045a56.228,56.228,0,0,1,33.4-35.383c3.65-1.372,8.295-2.157,11.029.641s1.845,7.32.131,10.744c-2.774,5.529-7.274,9.96-11.775,14.221-4.082,3.921-8.321,7.843-13.475,10.025s-14.627,2.823-19.336-.248" transform="translate(2.437 -182.415)" fill="#4ad991" opacity="0.57"/>
        <path id="Path_118159" data-name="Path 118159" d="M359.75,367.45l.235.209.746.575,2.891,2.157,2.093,1.542c.746.575,1.531,1.307,2.394,1.948,1.7,1.425,3.715,2.954,5.743,4.876l3.245,2.954c1.125,1.033,2.2,2.183,3.375,3.346,2.368,2.274,4.658,4.928,7.13,7.673a151.967,151.967,0,0,1,25.145,40.651c1.308,3.438,2.708,6.679,3.689,9.816.51,1.555,1.073,3.046,1.491,4.51s.8,2.862,1.177,4.209c.824,2.614,1.308,5.163,1.805,7.32.236,1.072.484,2.078.68,3.006s.3,1.791.445,2.614c.262,1.5.484,2.68.641,3.542a4.417,4.417,0,0,0,.17.915,1.3,1.3,0,0,0,.092.314,1.4,1.4,0,0,0,0-.314,8.645,8.645,0,0,0-.131-.928c-.118-.876-.3-2.065-.51-3.568l-.392-2.614c-.17-.941-.406-1.948-.628-3.032-.484-2.17-.916-4.666-1.714-7.359-.366-1.307-.746-2.771-1.151-4.235s-.955-2.98-1.452-4.549c-.955-3.15-2.3-6.4-3.637-9.856a163.34,163.34,0,0,0-10.963-21.436,161.012,161.012,0,0,0-14.3-19.384c-2.486-2.745-4.8-5.4-7.2-7.659-1.177-1.15-2.276-2.314-3.415-3.333l-3.284-2.928c-2.054-1.908-4.095-3.425-5.822-4.823-.877-.68-1.675-1.307-2.433-1.908l-2.133-1.5-2.97-2.026-.785-.523Q359.776,367.437,359.75,367.45Z" transform="translate(-17.672 -187.933)" fill="#263238"/>
        <path id="Path_118160" data-name="Path 118160" d="M345.82,417.669a4.28,4.28,0,0,0,.942-.157c.615-.1,1.518-.34,2.617-.536a75.224,75.224,0,0,1,9.969-1.216,72.76,72.76,0,0,1,59.03,24.534,76.509,76.509,0,0,1,6.162,7.921c.68.967,1.151,1.778,1.5,2.287a7.318,7.318,0,0,0,.55.784,3.993,3.993,0,0,0-.445-.85c-.314-.536-.746-1.307-1.4-2.353a67.6,67.6,0,0,0-6.018-8.091A71.6,71.6,0,0,0,359.322,415.3a65.934,65.934,0,0,0-10,1.425c-1.164.235-2.054.51-2.616.667a6.665,6.665,0,0,0-.89.274Z" transform="translate(-21.967 -173.294)" fill="#263238"/>
        <path id="Path_118161" data-name="Path 118161" d="M384.672,335.32a1.76,1.76,0,0,0,0,.366c.065.275.131.614.222,1.059.222.954.523,2.314.9,4.026.8,3.49,2,8.535,3.519,14.77,3.035,12.457,7.444,29.606,12.036,48.611,2.276,9.516,4.344,18.6,6.123,26.887s3.232,15.777,4.344,22.09c.589,3.137,1.034,6.013,1.465,8.522s.759,4.666,1.02,6.444.484,3.1.641,4.078a4.878,4.878,0,0,0,.183,1.059,1.309,1.309,0,0,0,.078.353,1.913,1.913,0,0,0,0-.366c0-.274-.079-.627-.118-1.072-.131-.98-.3-2.353-.523-4.091s-.51-3.921-.916-6.47-.8-5.385-1.374-8.535c-1.047-6.326-2.486-13.829-4.2-22.129s-3.807-17.4-6.084-26.913c-4.592-19.018-9.066-36.154-12.219-48.585-1.557-6.183-2.826-11.189-3.715-14.718-.432-1.7-.785-3.032-1.02-4-.118-.418-.209-.771-.288-1.033A1.438,1.438,0,0,0,384.672,335.32Z" transform="translate(-9.992 -197.8)" fill="#263238"/>
        <path id="Path_118162" data-name="Path 118162" d="M408.83,466.325a.861.861,0,0,0,.079-.287l.2-.837c.17-.8.392-1.882.68-3.255.576-2.836,1.308-6.941,2.237-12.038,1.766-10.182,3.925-24.325,5.142-40.049.628-7.843.968-15.371,1.125-22.221s0-12.992-.157-18.156c-.065-2.614-.235-4.915-.353-6.967s-.249-3.817-.379-5.228-.235-2.5-.3-3.307a6.224,6.224,0,0,0-.1-.863.968.968,0,0,0,0-.288.942.942,0,0,0,0,.288v.876c0,.81.1,1.921.183,3.32s.2,3.2.275,5.228.209,4.379.249,6.954c.144,5.228.157,11.306,0,18.129s-.549,14.378-1.164,22.221c-1.308,15.685-3.31,29.841-4.958,40.023-.824,5.1-1.518,9.228-2.028,12.064-.236,1.386-.419,2.483-.563,3.281a4.632,4.632,0,0,1-.131.863.688.688,0,0,0-.026.248Z" transform="translate(-2.542 -192.423)" fill="#263238"/>
        <path id="Path_118163" data-name="Path 118163" d="M408.05,457.021a4.345,4.345,0,0,0,.353-.81l.916-2.353.641-1.712c.275-.6.563-1.307.89-1.974s.641-1.464,1.007-2.274.811-1.621,1.308-2.483l1.361-2.693,1.675-2.876c1.1-2.026,2.525-4.026,3.925-6.209A150.03,150.03,0,0,1,430.487,420.4,161.986,161.986,0,0,1,442.393,408.5c1.975-1.66,3.781-3.333,5.613-4.732l2.616-2.065,2.473-1.83c1.57-1.176,3.035-2.17,4.33-3.032s2.394-1.621,3.336-2.2l2.132-1.307a3.764,3.764,0,0,0,.72-.51,4.426,4.426,0,0,0-.785.405l-2.2,1.242c-.968.536-2.106,1.307-3.415,2.1s-2.8,1.8-4.383,2.967l-2.512,1.791-2.617,2.052c-1.845,1.385-3.676,3.045-5.678,4.706A157.623,157.623,0,0,0,430.042,420a142.143,142.143,0,0,0-10.375,13.332c-1.374,2.209-2.787,4.235-3.925,6.274l-1.649,2.915-1.308,2.758c-.419.889-.877,1.712-1.217,2.523l-.968,2.3-.837,2.013c-.209.627-.419,1.2-.6,1.725-.327.994-.589,1.791-.785,2.405A4.329,4.329,0,0,0,408.05,457.021Z" transform="translate(-2.782 -180.139)" fill="#263238"/>
        <path id="Path_118164" data-name="Path 118164" d="M363.65,388.256c0,.1,1.675.1,4.357.248a77.659,77.659,0,0,1,20.514,3.921c2.538.85,4.095,1.451,4.134,1.307a4.568,4.568,0,0,0-1.073-.523c-.68-.327-1.688-.745-2.957-1.229a62.327,62.327,0,0,0-20.645-3.921c-1.308,0-2.447,0-3.205.065a4.552,4.552,0,0,0-1.125.131Z" transform="translate(-16.47 -181.604)" fill="#263238"/>
        <path id="Path_118165" data-name="Path 118165" d="M355.72,430.48a31.591,31.591,0,0,1,13.763-14.81,9.741,9.741,0,0,0-2.8,1.229,25.193,25.193,0,0,0-5.783,4.6,24.549,24.549,0,0,0-4.16,6.1,8.948,8.948,0,0,0-1.02,2.876Z" transform="translate(-18.915 -173.125)" fill="#263238"/>
        <path id="Path_118166" data-name="Path 118166" d="M382.781,349.86c-.131.131,2.407,2.614,5.233,6.052s4.723,6.366,4.893,6.274a38.707,38.707,0,0,0-10.061-12.326Z" transform="translate(-10.574 -193.335)" fill="#263238"/>
        <path id="Path_118167" data-name="Path 118167" d="M389.568,338.88a24.713,24.713,0,0,0-1.243,5.424,23.31,23.31,0,0,0-.615,5.542,24.719,24.719,0,0,0,1.308-5.424,23.308,23.308,0,0,0,.549-5.542Z" transform="translate(-9.053 -196.707)" fill="#263238"/>
        <path id="Path_118168" data-name="Path 118168" d="M408.81,373.33a69.752,69.752,0,0,0,4.03,8.47,71.064,71.064,0,0,0,4.605,8.169,65.513,65.513,0,0,0-4.03-8.47A64.314,64.314,0,0,0,408.81,373.33Z" transform="translate(-2.548 -186.127)" fill="#263238"/>
        <path id="Path_118169" data-name="Path 118169" d="M422,361.63a37.592,37.592,0,0,0-3.415,6.13,38.656,38.656,0,0,0-2.839,6.418A76.528,76.528,0,0,0,422,361.63Z" transform="translate(-0.408 -189.72)" fill="#263238"/>
        <path id="Path_118170" data-name="Path 118170" d="M437.74,401.92c0,.2,2.774-.34,6.188-.575s6.188-.1,6.2-.3A25.117,25.117,0,0,0,437.74,401.92Z" transform="translate(6.371 -177.74)" fill="#263238"/>
        <path id="Path_118171" data-name="Path 118171" d="M437.333,437l-7.667,40.258a5.65,5.65,0,0,1-5.547,4.588H401.486a5.637,5.637,0,0,1-5.573-4.719L389.24,437Z" transform="translate(-8.581 -168.476)" fill="#263238"/>
        <path id="Path_118172" data-name="Path 118172" d="M434.821,450.064H391.543l-2.3-13.084h48.08Z" transform="translate(-8.581 -167.483)" fill="#455a64"/>
        <path id="Path_118173" data-name="Path 118173" d="M434.278,446.99l-.9,4.771H391.654L391,446.99Z" transform="translate(-8.038 -164.409)" fill="#fafafa"/>
      </g>
    </g>
    <g id="freepik--Device--inject-2" transform="translate(198.639 294.055)">
      <path id="Path_118188" data-name="Path 118188" d="M157.705,247.087,181.7,300.025a7.851,7.851,0,0,0,6.411,4l110.524-.144h0a4.7,4.7,0,0,0-4.553-4.13l-41.944-.915-21.508-51.473a4.422,4.422,0,0,0-4.056-2.732l-66.932-.51a2.092,2.092,0,0,0-1.936,2.967Z" transform="translate(-157.489 -244.068)" fill="#e0e0e0"/>
      <path id="Path_118189" data-name="Path 118189" d="M157.711,247.1a1.528,1.528,0,0,1-.2-.614,2.116,2.116,0,0,1,.589-1.778,2.094,2.094,0,0,1,1.308-.627h5.979l27.552.1,19.35.1,10.885.065h2.839a5.3,5.3,0,0,1,2.917.627,4.772,4.772,0,0,1,2.015,2.287L232.087,250c6.162,14.731,13.083,31.122,20.357,48.7l-.288-.2,22.673.484,11.775.261,5.992.131h1.518a5.051,5.051,0,0,1,4.069,2.314,5.225,5.225,0,0,1,.772,2.118v.379H187.8a6.548,6.548,0,0,1-1.675-.314,7.848,7.848,0,0,1-4.854-4.183q-1.308-2.862-2.512-5.581c-6.541-14.548-11.775-26.3-15.477-34.455-1.792-4.052-3.205-7.2-4.16-9.372-.471-1.059-.824-1.869-1.073-2.444s-.34-.837-.34-.837.144.274.406.81l1.125,2.418,4.291,9.32,15.7,34.363,2.538,5.568a7.285,7.285,0,0,0,4.566,3.921,9.088,9.088,0,0,0,3.179.3h10.3l30-.078,68.829-.118-.34.379a4.614,4.614,0,0,0-.654-1.83,4.317,4.317,0,0,0-2.159-1.725,4.148,4.148,0,0,0-1.374-.274h-1.5l-5.992-.144-11.775-.261-22.66-.5h-.222l-.078-.2c-7.313-17.58-14.143-33.984-20.278-48.728l-1.138-2.745a4.236,4.236,0,0,0-1.766-2.026,4.831,4.831,0,0,0-2.617-.562h-2.839l-10.872-.092-19.35-.2-27.552-.3-4.265-.065h-1.688a2.042,2.042,0,0,0-1.217.562,2.09,2.09,0,0,0-.615,1.686A3.527,3.527,0,0,0,157.711,247.1Z" transform="translate(-157.495 -244.08)" fill="#263238"/>
      <path id="Path_118190" data-name="Path 118190" d="M234.023,304.374a2.4,2.4,0,0,1-.314-.575c-.222-.457-.484-1.033-.8-1.712l-2.813-6.339c-2.329-5.372-5.508-12.809-8.923-21.07s-6.424-15.764-8.517-21.24c-1.033-2.732-1.871-4.954-2.407-6.535-.235-.719-.432-1.307-.6-1.791a2.232,2.232,0,0,1-.17-.64,2.258,2.258,0,0,1,.3.588c.2.471.432,1.046.733,1.738l2.617,6.431c2.263,5.5,5.312,12.94,8.7,21.149s6.463,15.685,8.726,21.149c1.073,2.614,1.949,4.81,2.617,6.418l.68,1.765a1.919,1.919,0,0,1,.17.667Z" transform="translate(-141.468 -243.96)" fill="#455a64"/>
      <path id="Path_118191" data-name="Path 118191" d="M196.725,266.8a3.413,3.413,0,1,1-1-2.421,3.424,3.424,0,0,1,1,2.421Z" transform="translate(-147.514 -238.153)" fill="#fff"/>
    </g>
  </g>
</svg>
