<svg xmlns="http://www.w3.org/2000/svg" width="22.313" height="22.29" viewBox="0 0 22.313 22.29">
  <g id="Group_173794" data-name="Group 173794" transform="translate(-0.2 -0.2)">
    <g id="Group_173793" data-name="Group 173793" transform="translate(6.117 2.383)">
      <path id="Path_121716" data-name="Path 121716" d="M6.7,8.486a2.072,2.072,0,0,0,1.736.821c1.064,0,1.923-.644,1.923-1.447S9.5,6.423,8.432,6.423,6.5,5.77,6.5,4.977,7.368,3.53,8.432,3.53a2.072,2.072,0,0,1,1.736.821" transform="translate(-6.5 -2.569)" fill="none" stroke="#0095ff" stroke-linecap="round" stroke-linejoin="round" stroke-width="1.1"/>
      <line id="Line_88874" data-name="Line 88874" y2="0.961" transform="translate(1.932 6.739)" fill="none" stroke="#0095ff" stroke-linecap="round" stroke-linejoin="round" stroke-width="1.1"/>
      <line id="Line_88875" data-name="Line 88875" y2="0.961" transform="translate(1.932)" fill="none" stroke="#0095ff" stroke-linecap="round" stroke-linejoin="round" stroke-width="1.1"/>
    </g>
    <path id="Path_121717" data-name="Path 121717" d="M22.8,20.15l-1.4-2.091V13.15c0-1.867-3.547-3.864-4.9-4.9" transform="translate(-1.05 -0.5)" fill="none" stroke="#0095ff" stroke-linecap="round" stroke-linejoin="round" stroke-width="1.1"/>
    <path id="Path_121718" data-name="Path 121718" d="M18.039,14.57l-3.4-2.725a1.218,1.218,0,1,0-1.727,1.717l3.3,3.733v2.333c0,1.1,1.568,2.8,1.568,2.8" transform="translate(-0.787 -0.716)" fill="none" stroke="#0095ff" stroke-linecap="round" stroke-linejoin="round" stroke-width="1.1"/>
    <path id="Path_121719" data-name="Path 121719" d="M16.167,12.417V2.029A1.279,1.279,0,0,0,14.888.75H11.5" transform="translate(-0.717)" fill="none" stroke="#0095ff" stroke-linecap="round" stroke-linejoin="round" stroke-width="1.1"/>
    <path id="Path_121720" data-name="Path 121720" d="M12.65,21.75H2.038A1.288,1.288,0,0,1,.75,20.471V2.029A1.288,1.288,0,0,1,2.038.75H5.183" fill="none" stroke="#0095ff" stroke-linecap="round" stroke-linejoin="round" stroke-width="1.1"/>
    <path id="Path_121721" data-name="Path 121721" d="M9.583,13.25H4.45a.709.709,0,0,0-.7.7v5.133a.709.709,0,0,0,.7.7h8.4" transform="translate(-0.2 -0.833)" fill="none" stroke="#0095ff" stroke-linecap="round" stroke-linejoin="round" stroke-width="1.1"/>
    <line id="Line_88876" data-name="Line 88876" x2="7.233" transform="translate(3.55 15.683)" fill="none" stroke="#0095ff" stroke-linecap="round" stroke-linejoin="round" stroke-width="1.1"/>
    <line id="Line_88877" data-name="Line 88877" y2="6.533" transform="translate(7.75 12.417)" fill="none" stroke="#0095ff" stroke-linecap="round" stroke-linejoin="round" stroke-width="1.1"/>
  </g>
</svg>
