<svg xmlns="http://www.w3.org/2000/svg" width="22.1" height="22.1" viewBox="0 0 22.1 22.1">
  <g id="Group_173791" data-name="Group 173791" transform="translate(-0.2 -0.2)">
    <path id="Path_121710" data-name="Path 121710" d="M17.036,22.7H5.964L4.525,16.2a1.063,1.063,0,0,1,.155-.826A.822.822,0,0,1,5.352,15h12.3a.822.822,0,0,1,.672.373,1.063,1.063,0,0,1,.155.826Z" transform="translate(-0.25 -0.95)" fill="none" stroke="#0095ff" stroke-linecap="round" stroke-linejoin="round" stroke-width="1.1"/>
    <line id="Line_88872" data-name="Line 88872" x2="21" transform="translate(0.75 21.75)" fill="none" stroke="#0095ff" stroke-linecap="round" stroke-linejoin="round" stroke-width="1.1"/>
    <circle id="Ellipse_8212" data-name="Ellipse 8212" cx="1.4" cy="1.4" r="1.4" transform="translate(9.85 16.15)" fill="none" stroke="#0095ff" stroke-linecap="round" stroke-linejoin="round" stroke-width="1.1"/>
    <path id="Path_121711" data-name="Path 121711" d="M8.445,2.781a6.391,6.391,0,0,0,4.6,1.954,6.394,6.394,0,0,0,2.532-.521" transform="translate(-0.513 -0.135)" fill="none" stroke="#0095ff" stroke-linecap="round" stroke-linejoin="round" stroke-width="1.1"/>
    <circle id="Ellipse_8213" data-name="Ellipse 8213" cx="3.85" cy="3.85" r="3.85" transform="translate(7.4 0.75)" fill="none" stroke="#0095ff" stroke-linecap="round" stroke-linejoin="round" stroke-width="1.1"/>
    <path id="Path_121712" data-name="Path 121712" d="M16.333,12.6A6.231,6.231,0,0,0,7,12.6" transform="translate(-0.417 -0.65)" fill="none" stroke="#0095ff" stroke-linecap="round" stroke-linejoin="round" stroke-width="1.1"/>
  </g>
</svg>
