<svg xmlns="http://www.w3.org/2000/svg" width="54" height="54" viewBox="0 0 54 54">
  <g id="Group_173776" data-name="Group 173776" transform="translate(1.25 1.25)">
    <circle id="Ellipse_8209" data-name="Ellipse 8209" cx="25" cy="25" r="25" transform="translate(0.75 0.75)" fill="none" stroke="#2193ff" stroke-linecap="round" stroke-linejoin="round" stroke-width="4"/>
    <path id="Path_121688" data-name="Path 121688" d="M27.167,40.48V7.665a1.667,1.667,0,0,0-2.251-1.556L11.582,15.6A1.667,1.667,0,0,0,10.5,17.154v5.509" transform="translate(11.917 6.421)" fill="none" stroke="#2193ff" stroke-linecap="round" stroke-linejoin="round" stroke-width="4"/>
    <line id="Line_88862" data-name="Line 88862" x2="5" transform="translate(34.083 22.419)" fill="none" stroke="#2193ff" stroke-linecap="round" stroke-linejoin="round" stroke-width="4"/>
    <line id="Line_88863" data-name="Line 88863" x2="8.333" transform="translate(30.75 29.086)" fill="none" stroke="#2193ff" stroke-linecap="round" stroke-linejoin="round" stroke-width="4"/>
    <line id="Line_88864" data-name="Line 88864" x2="8.333" transform="translate(10.75 35.75)" fill="none" stroke="#2193ff" stroke-linecap="round" stroke-linejoin="round" stroke-width="4"/>
    <line id="Line_88865" data-name="Line 88865" y1="6.804" transform="translate(27.417 12.419)" fill="none" stroke="#2193ff" stroke-linecap="round" stroke-linejoin="round" stroke-width="4"/>
    <path id="Path_121689" data-name="Path 121689" d="M5.25,30.167V16.833A3.333,3.333,0,0,1,8.583,13.5h8.333a3.333,3.333,0,0,1,3.333,3.333V35.167" transform="translate(5.5 15.583)" fill="none" stroke="#2193ff" stroke-linecap="round" stroke-linejoin="round" stroke-width="4"/>
  </g>
</svg>
