<svg xmlns="http://www.w3.org/2000/svg" width="54" height="57.572" viewBox="0 0 54 57.572">
  <g id="Group_173771" data-name="Group 173771" transform="translate(0.5 1.25)">
    <path id="Path_121677" data-name="Path 121677" d="M3.218,10.719a26.79,26.79,0,0,1,41.831.162" transform="translate(2.372 0)" fill="none" stroke="#2193ff" stroke-linecap="round" stroke-linejoin="round" stroke-width="4"/>
    <path id="Path_121678" data-name="Path 121678" d="M3,18.75a26.726,26.726,0,0,0,42.757.055" transform="translate(2.071 24.857)" fill="none" stroke="#2193ff" stroke-linecap="round" stroke-linejoin="round" stroke-width="4"/>
    <path id="Path_121679" data-name="Path 121679" d="M1.5,26.107V11.821A3.571,3.571,0,0,1,5.071,8.25H8.643" transform="translate(0 10.357)" fill="none" stroke="#2193ff" stroke-linecap="round" stroke-linejoin="round" stroke-width="4"/>
    <line id="Line_88856" data-name="Line 88856" x2="5.357" transform="translate(1.5 29.321)" fill="none" stroke="#2193ff" stroke-linecap="round" stroke-linejoin="round" stroke-width="4"/>
    <line id="Line_88857" data-name="Line 88857" y1="17.857" transform="translate(15.786 18.607)" fill="none" stroke="#2193ff" stroke-linecap="round" stroke-linejoin="round" stroke-width="4"/>
    <path id="Path_121680" data-name="Path 121680" d="M7.5,8.25h2.679a4.464,4.464,0,0,1,0,8.929H7.5" transform="translate(8.286 10.357)" fill="none" stroke="#2193ff" stroke-linecap="round" stroke-linejoin="round" stroke-width="4"/>
    <line id="Line_88858" data-name="Line 88858" x1="5.357" y1="8.929" transform="translate(17.571 27.535)" fill="none" stroke="#2193ff" stroke-linecap="round" stroke-linejoin="round" stroke-width="4"/>
    <path id="Path_121681" data-name="Path 121681" d="M20.643,26.107H17.071A3.571,3.571,0,0,1,13.5,22.536V11.821A3.571,3.571,0,0,1,17.071,8.25h3.571" transform="translate(16.571 10.357)" fill="none" stroke="#2193ff" stroke-linecap="round" stroke-linejoin="round" stroke-width="4"/>
    <line id="Line_88859" data-name="Line 88859" x2="7.143" transform="translate(30.071 29.321)" fill="none" stroke="#2193ff" stroke-linecap="round" stroke-linejoin="round" stroke-width="4"/>
    <path id="Path_121682" data-name="Path 121682" d="M26.643,26.107H23.071A3.571,3.571,0,0,1,19.5,22.536V11.821A3.571,3.571,0,0,1,23.071,8.25h3.571" transform="translate(24.857 10.357)" fill="none" stroke="#2193ff" stroke-linecap="round" stroke-linejoin="round" stroke-width="4"/>
    <line id="Line_88860" data-name="Line 88860" x2="7.143" transform="translate(44.357 29.321)" fill="none" stroke="#2193ff" stroke-linecap="round" stroke-linejoin="round" stroke-width="4"/>
  </g>
</svg>
