<svg xmlns="http://www.w3.org/2000/svg" width="760" height="536.9" viewBox="0 0 760 536.9">
  <g id="Group_149455" data-name="Group 149455" transform="translate(-889.588 -2168.95)">
    <g id="Group_142332" data-name="Group 142332" transform="translate(889.588 2644.834)">
      <g id="Group_142331" data-name="Group 142331">
        <g id="Symbol_79_0_Layer0_0_MEMBER_0_MEMBER_0_MEMBER_0_FILL" data-name="Symbol 79 0 Layer0 0 MEMBER 0 MEMBER 0 MEMBER 0 FILL">
          <path id="Path_103799" data-name="Path 103799" d="M1648.814,2748.4v.535q-38.328,41.006-86.077,54.676-46.466,13.381-82.97-4.076-43.462-20.587-75.608-21.862-32.385-1.359-61.223,16.551-27.049,16.716-54.031,13.792-26.981-3.046-58.589-23.3-31.608-20.421-72.839,6.052-41.2,26.349-81.451,4.282-40.185-22.192-71.421-13.587-81.653,22.562-115.016-33.06Z" transform="translate(-889.588 -2748.399)" fill="#c5dcf6"/>
        </g>
      </g>
    </g>
    <g id="Group_142334" data-name="Group 142334" transform="translate(913.315 2227.055)">
      <g id="Group_142333" data-name="Group 142333" transform="translate(0 0)">
        <path id="Symbol_79_0_Layer0_0_MEMBER_1_MEMBER_0_1_STROKES" data-name="Symbol 79 0 Layer0 0 MEMBER 1 MEMBER 0 1 STROKES" d="M985.717,2239.7H1487.39q31.044,0,27.923,31.044L1482.544,2600.4q-3.039,31.044-34.083,31.044H946.789q-31.044,0-28.047-31.044l32.81-329.658Q954.632,2239.7,985.717,2239.7Z" transform="translate(-918.479 -2239.7)" fill="none" stroke="#fff" stroke-linecap="round" stroke-linejoin="round" stroke-width="25"/>
      </g>
    </g>
    <g id="Group_142336" data-name="Group 142336" transform="translate(913.315 2227.055)">
      <g id="Group_142335" data-name="Group 142335" transform="translate(0 0)">
        <g id="Symbol_79_0_Layer0_0_MEMBER_1_MEMBER_1_MEMBER_0_FILL" data-name="Symbol 79 0 Layer0 0 MEMBER 1 MEMBER 1 MEMBER 0 FILL">
          <path id="Path_103800" data-name="Path 103800" d="M1515.313,2270.744q3.12-31.044-27.923-31.044H985.717q-31.085,0-34.165,31.044L918.743,2600.4q-3,31.044,28.047,31.044h501.673q31.044,0,34.083-31.044l32.769-329.658m-42.049,321.692q-2.916,29.853-32.769,29.853H958.9q-29.771,0-26.9-29.853L959.56,2315.3h541.217Z" transform="translate(-918.479 -2239.7)" fill="#beedff"/>
          <path id="Path_103801" data-name="Path 103801" d="M1443.384,2638.741q29.853,0,32.769-29.854l27.512-277.137H962.448L934.9,2608.887q-2.874,29.854,26.9,29.854Z" transform="translate(-921.368 -2256.152)" fill="#fff"/>
        </g>
      </g>
    </g>
    <g id="Group_142338" data-name="Group 142338" transform="translate(978.276 2242.607)">
      <g id="Group_142337" data-name="Group 142337">
        <g id="Symbol_79_0_Layer0_0_MEMBER_1_MEMBER_1_MEMBER_1_FILL" data-name="Symbol 79 0 Layer0 0 MEMBER 1 MEMBER 1 MEMBER 1 FILL">
          <path id="Path_103802" data-name="Path 103802" d="M1062.423,2332.492q-14.561,0-25.955,12.809a50.763,50.763,0,0,0-12.734,28.354q14.456,11.385,34.49,11.385a63.058,63.058,0,0,0,35.976-10.948q.786-16.749-7.919-28.792-9.3-12.81-23.857-12.809m2.521-49.594a23.253,23.253,0,0,0-23.069,21.239,19.079,19.079,0,0,0,19.408,21.239,23.682,23.682,0,0,0,23.069-21.239,19.228,19.228,0,0,0-4.938-15.108A18.924,18.924,0,0,0,1064.945,2282.9Z" transform="translate(-1002.252 -2262.974)" fill="#b8eafb"/>
          <path id="Path_103803" data-name="Path 103803" d="M1031.793,2340.964q11.4-12.809,25.955-12.808t23.857,12.808q8.706,12.043,7.92,28.793a68.764,68.764,0,0,0,8.706-7.007,51.927,51.927,0,0,0,4.427-4.379,63.57,63.57,0,0,0,17.243-38.755q2.169-25.18-14.238-43.134-16.307-17.846-41.6-17.845-25.18,0-44.672,17.845-19.392,17.954-21.561,43.134-1.82,21.13,9.292,37a52.5,52.5,0,0,0,4.836,6.131,57.309,57.309,0,0,0,7.1,6.569,50.771,50.771,0,0,1,12.734-28.355m12.841-56.271a22.852,22.852,0,0,1,15.636-6.131,18.923,18.923,0,0,1,14.47,6.131,19.226,19.226,0,0,1,4.938,15.108,23.683,23.683,0,0,1-23.068,21.239A19.079,19.079,0,0,1,1037.2,2299.8,23.016,23.016,0,0,1,1044.633,2284.693Z" transform="translate(-997.577 -2258.637)" fill="#fff"/>
        </g>
      </g>
    </g>
    <g id="Group_142340" data-name="Group 142340" transform="translate(1233.441 2420.808)">
      <g id="Group_142339" data-name="Group 142339" transform="translate(0 0)">
        <g id="Symbol_79_0_Layer0_0_MEMBER_1_MEMBER_1_MEMBER_2_MEMBER_0_FILL" data-name="Symbol 79 0 Layer0 0 MEMBER 1 MEMBER 1 MEMBER 2 MEMBER 0 FILL">
          <path id="Path_103804" data-name="Path 103804" d="M1336.38,2475.619h-20.411l-.606,4.41h20.411l.605-4.41m25.081,4.41.605-4.41h-20.5l-.605,4.41h20.5m25.6,0,.605-4.41h-20.324l-.605,4.41h20.324m5.448,0h20.5l.605-4.41h-20.5l-.605,4.41m48.086-4.41h-20.411l-.605,4.41h20.411l.605-4.41m25.513,4.41.605-4.41H1446.3l-.605,4.41h20.41m25.254,0,.605-4.41h-20.41l-.606,4.41h20.411m26.291-4.41h-20.41l-.605,4.41h20.41l.605-4.41m17.3,125.576,8.822-99.89-30.357,52.756-77.837-46.7-48.432,19.027-64-30.356-14.876,106.55,226.679-1.384m7.783-121.166.605-4.41h-20.41l-.6,4.41Z" transform="translate(-1308.272 -2475.619)" fill="#bae9fa"/>
          <path id="Path_103805" data-name="Path 103805" d="M1571.285,2654.352l1.643-12.454h-25.34l-1.643,12.454h25.34m-1.989,14.789,1.643-12.454H1545.6l-1.643,12.454h25.34m-1.9,14.788,1.643-12.454H1543.7l-1.643,12.454Z" transform="translate(-1350.056 -2505.339)" fill="#fff"/>
        </g>
      </g>
    </g>
    <g id="Group_142342" data-name="Group 142342" transform="translate(1289.141 2485.493)">
      <g id="Group_142341" data-name="Group 142341">
        <g id="Symbol_79_0_Layer0_0_MEMBER_1_MEMBER_1_MEMBER_2_MEMBER_1_FILL" data-name="Symbol 79 0 Layer0 0 MEMBER 1 MEMBER 1 MEMBER 2 MEMBER 1 FILL">
          <path id="Path_103806" data-name="Path 103806" d="M1480.167,2584.15a11.152,11.152,0,0,0-3.872,6.995l-.365,2.565a8.28,8.28,0,0,0,1.88,7q2.244,2.8,7.219,2.8a12.021,12.021,0,0,0,8.093-2.8,11.4,11.4,0,0,0,3.639-7l.365-2.565a8.581,8.581,0,0,0-1.647-6.995q-2.477-2.8-7.3-2.8a11.368,11.368,0,0,0-8.015,2.8m3.966,3.808a4.294,4.294,0,0,1,3.308-1.4,3.033,3.033,0,0,1,2.755,1.4,4.372,4.372,0,0,1,.635,3.187l-.365,2.565a5.675,5.675,0,0,1-1.386,3.187,4.175,4.175,0,0,1-3.286,1.244,3.215,3.215,0,0,1-2.776-1.244,4.166,4.166,0,0,1-.713-3.187l.365-2.565a5.85,5.85,0,0,1,1.463-3.187m-7.823-30.779q-2.245-2.8-7.219-2.8a11.439,11.439,0,0,0-7.938,2.8,11.3,11.3,0,0,0-3.815,7.151l-.365,2.565a8.328,8.328,0,0,0,1.813,6.917q2.312,2.875,7.208,2.875a11.122,11.122,0,0,0,7.948-2.875,11,11,0,0,0,3.783-6.917l.365-2.565a8.605,8.605,0,0,0-1.781-7.151m-12.521,7.151a6.554,6.554,0,0,1,1.4-3.265,4.2,4.2,0,0,1,3.141-1.322,3.081,3.081,0,0,1,2.843,1.322,4.948,4.948,0,0,1,.546,3.265l-.365,2.565a5.855,5.855,0,0,1-1.464,3.187,4.131,4.131,0,0,1-3.13,1.243,3.3,3.3,0,0,1-2.855-1.243,4.927,4.927,0,0,1-.479-3.187l.365-2.565m29.168-2.333-4.311-2.487-28.549,37.308,4.321,2.409,28.539-37.23m-66.777,20.286a5.769,5.769,0,0,1,2.4-2.643,7.89,7.89,0,0,1,4.43-1.088,4.871,4.871,0,0,1,4.609,2.565,10.086,10.086,0,0,1,.792,6.45,12.583,12.583,0,0,1-2.461,6.373,6.44,6.44,0,0,1-5.285,2.176,6.1,6.1,0,0,1-4.509-1.632q-1.488-1.555-1.046-4.664l-9.3.389-.044.311q-1.163,5.985,3.081,9.483a16.189,16.189,0,0,0,10.773,3.5q8.162,0,12.833-4.43a19.843,19.843,0,0,0,5.523-11.5q1.095-7.694-1.972-11.814-2.978-4.2-9.74-4.2a20.749,20.749,0,0,0-4.54.777,10.353,10.353,0,0,0-3.575,1.633l2.9-11.115h18.809l1.095-7.695H1424.29l-6.5,26.582,8.4.543m-17.591-24.406q-3.7-3.5-10.305-3.5a19.107,19.107,0,0,0-11.613,3.5,13.541,13.541,0,0,0-5.646,9.638,10.152,10.152,0,0,0,.969,6.3,10.721,10.721,0,0,0,4.766,4.2,17.972,17.972,0,0,0-7.115,4.663,12.172,12.172,0,0,0-3.383,6.841q-.939,6.606,3.348,10.337,4.3,3.653,11.839,3.653a20.858,20.858,0,0,0,12.334-3.653,14.82,14.82,0,0,0,6.057-10.337,9.924,9.924,0,0,0-1.281-6.841,12.226,12.226,0,0,0-5.554-4.663,15.089,15.089,0,0,0,5.572-4.2,12.685,12.685,0,0,0,2.761-6.3q.9-6.3-2.748-9.638m-15.875,5.6a6.468,6.468,0,0,1,4.518-1.709,4.284,4.284,0,0,1,3.72,1.709,5.737,5.737,0,0,1,.847,4.431,8.282,8.282,0,0,1-2.152,4.741,5.558,5.558,0,0,1-4.051,1.71,5.361,5.361,0,0,1-4.188-1.71,6.081,6.081,0,0,1-.957-4.741,6.96,6.96,0,0,1,2.262-4.431m-4,20.442a8.366,8.366,0,0,1,5.673-2.176,5.614,5.614,0,0,1,4.665,2.176,6.332,6.332,0,0,1,1.213,5.13,8,8,0,0,1-2.685,5.207,7.459,7.459,0,0,1-5.084,1.865,7.2,7.2,0,0,1-5.253-1.865,5.986,5.986,0,0,1-1.28-5.207A8.114,8.114,0,0,1,1388.719,2583.917Z" transform="translate(-1376.094 -2554.382)" fill="#fff"/>
        </g>
      </g>
    </g>
    <g id="Group_142346" data-name="Group 142346" transform="translate(1039.685 2414.14)">
      <g id="Group_142343" data-name="Group 142343" transform="translate(0)">
        <g id="Symbol_79_0_Layer0_0_MEMBER_1_MEMBER_1_MEMBER_3_FILL" data-name="Symbol 79 0 Layer0 0 MEMBER 1 MEMBER 1 MEMBER 3 FILL">
          <path id="Path_103807" data-name="Path 103807" d="M1082.452,2574.06l-2.957,11.415h33.919l1.478-11.415h-32.44m-7.145,55.969-2.957,11.416h49.112l1.478-11.416h-47.634m75.967-93.994,1.479-11.457h-63.977l-2.957,11.457h65.455m-55.23-68.535-2.915,11.416H1219.85l1.437-11.416Z" transform="translate(-1072.35 -2467.5)" fill="#beedff"/>
          <path id="Path_103808" data-name="Path 103808" d="M1248.538,2585.476l2.957-11.415H1123.828l-1.478,11.415h126.188m-7.145,55.97,2.957-11.416H1131.877l-1.478,11.416h110.994m13.469-105.41,2.957-11.457h-96.13l-1.478,11.457h94.651m-24.638-68.535-1.437,11.416h33.385l2.915-11.416Z" transform="translate(-1081.286 -2467.5)" fill="#fff"/>
        </g>
      </g>
      <g id="Group_142344" data-name="Group 142344" transform="translate(0)">
        <path id="Symbol_79_0_Layer0_0_MEMBER_1_MEMBER_1_MEMBER_3_1_STROKES" data-name="Symbol 79 0 Layer0 0 MEMBER 1 MEMBER 1 MEMBER 3 1 STROKES" d="M1219.85,2478.916H1093.128l2.915-11.416H1256.15l-2.916,11.416Zm-67.1,45.663h96.13l-2.957,11.457H1085.819l2.957-11.457h63.977l-1.479,11.457m-28.334,93.994h112.473l-2.957,11.416H1072.35l2.957-11.416h47.634l-1.478,11.416m-6.57-67.385h127.666l-2.957,11.415H1079.495l2.957-11.415h32.44l-1.478,11.415" transform="translate(-1072.35 -2467.5)" fill="none" stroke="#beedff" stroke-linecap="round" stroke-linejoin="round" stroke-width="4"/>
      </g>
      <g id="Group_142345" data-name="Group 142345" transform="translate(147.5)">
        <path id="Symbol_79_0_Layer0_0_MEMBER_1_MEMBER_1_MEMBER_3_2_STROKES" data-name="Symbol 79 0 Layer0 0 MEMBER 1 MEMBER 1 MEMBER 3 2 STROKES" d="M1251.95,2478.916l1.437-11.416" transform="translate(-1251.95 -2467.5)" fill="none" stroke="#beedff" stroke-linecap="round" stroke-linejoin="round" stroke-width="1"/>
      </g>
    </g>
    <g id="Group_142348" data-name="Group 142348" transform="translate(998.187 2459.121)">
      <g id="Group_142347" data-name="Group 142347" transform="translate(0 0)">
        <g id="Symbol_79_0_Layer0_0_MEMBER_1_MEMBER_1_MEMBER_3_MEMBER_0_MEMBER_0_FILL" data-name="Symbol 79 0 Layer0 0 MEMBER 1 MEMBER 1 MEMBER 3 MEMBER 0 MEMBER 0 FILL">
          <path id="Path_103809" data-name="Path 103809" d="M1053.2,2522.876a1.513,1.513,0,0,0-1.307-.605h-24.214a2.593,2.593,0,0,0-1.634.605,2.138,2.138,0,0,0-.7,1.383l-3.532,27.674h9.167l14.9,2.508-.8-2.508h4.237l1.255-8.474h.086l1.255-8.476-.075-.086,1.233-8.3.1-.086.373-2.249a1.681,1.681,0,0,0-.342-1.383m-11.1,20.582.01-.088.162.088h-.172m-8.6-8.476.012-.086.075.086Z" transform="translate(-1021.821 -2522.27)" fill="#beedff"/>
        </g>
      </g>
    </g>
    <g id="Group_142351" data-name="Group 142351" transform="translate(993.502 2479.169)">
      <g id="Group_142349" data-name="Group 142349" transform="translate(0.044 0.006)">
        <g id="Symbol_79_0_Layer0_0_MEMBER_1_MEMBER_1_MEMBER_3_MEMBER_0_MEMBER_1_MEMBER_0_FILL" data-name="Symbol 79 0 Layer0 0 MEMBER 1 MEMBER 1 MEMBER 3 MEMBER 0 MEMBER 1 MEMBER 0 FILL">
          <path id="Path_103810" data-name="Path 103810" d="M1052.678,2546.688q-.033.26-.5.519l-16.678,8.733a3.055,3.055,0,0,1-1,.347,2.851,2.851,0,0,1-.93-.174l-14.34-8.906h-.086q-.4-.26-.366-.519l-2.564,17.38a1.7,1.7,0,0,0,.331,1.47,2.033,2.033,0,0,0,1.479.6h29.658a1.723,1.723,0,0,0,.53-.087.74.74,0,0,0,.27-.086h.086a1.2,1.2,0,0,0,.282-.172l.1-.087a2.392,2.392,0,0,0,.78-.691,9.15,9.15,0,0,0,.38-.951Z" transform="translate(-1016.17 -2546.688)" fill="#beedff"/>
        </g>
      </g>
      <g id="Group_142350" data-name="Group 142350">
        <path id="Symbol_79_0_Layer0_0_MEMBER_1_MEMBER_1_MEMBER_3_MEMBER_0_MEMBER_1_MEMBER_0_1_STROKES" data-name="Symbol 79 0 Layer0 0 MEMBER 1 MEMBER 1 MEMBER 3 MEMBER 0 MEMBER 1 MEMBER 0 1 STROKES" d="M1052.125,2547.2l-16.678,8.732a3.023,3.023,0,0,1-1,.345,2.831,2.831,0,0,1-.929-.172l-14.34-8.905h-.086q-.4-.261-.366-.52l-2.565,17.379a1.7,1.7,0,0,0,.331,1.47,2.031,2.031,0,0,0,1.479.605h29.658a1.723,1.723,0,0,0,.53-.087.736.736,0,0,0,.271-.086h.086a1.21,1.21,0,0,0,.282-.173l.1-.086a2.4,2.4,0,0,0,.781-.692,8.894,8.894,0,0,0,.38-.951l2.565-17.379Q1052.591,2546.94,1052.125,2547.2Z" transform="translate(-1016.116 -2546.681)" fill="none" stroke="#fff" stroke-linecap="round" stroke-linejoin="round" stroke-width="1"/>
      </g>
    </g>
    <g id="Group_142354" data-name="Group 142354" transform="translate(983.521 2467.583)">
      <g id="Group_142352" data-name="Group 142352" transform="translate(0.044 0.007)">
        <g id="Symbol_79_0_Layer0_0_MEMBER_1_MEMBER_1_MEMBER_3_MEMBER_0_MEMBER_1_MEMBER_1_FILL" data-name="Symbol 79 0 Layer0 0 MEMBER 1 MEMBER 1 MEMBER 3 MEMBER 0 MEMBER 1 MEMBER 1 FILL">
          <path id="Path_103811" data-name="Path 103811" d="M1024.375,2555.148a2.321,2.321,0,0,0,1.45-.519,2.2,2.2,0,0,0,.782-1.383l2.839-18.85a1.578,1.578,0,0,0-.354-1.3,1.828,1.828,0,0,0-1.317-.518h-18.85a1.992,1.992,0,0,0-1.363.518,2.022,2.022,0,0,0-.684,1.3l-2.838,18.85a2.125,2.125,0,0,0,.255,1.383,1.549,1.549,0,0,0,1.231.519Z" transform="translate(-1004.017 -2532.581)" fill="#bae9fa"/>
        </g>
      </g>
      <g id="Group_142353" data-name="Group 142353">
        <path id="Symbol_79_0_Layer0_0_MEMBER_1_MEMBER_1_MEMBER_3_MEMBER_0_MEMBER_1_MEMBER_1_1_STROKES" data-name="Symbol 79 0 Layer0 0 MEMBER 1 MEMBER 1 MEMBER 3 MEMBER 0 MEMBER 1 MEMBER 1 1 STROKES" d="M1008.872,2532.573h18.85a1.829,1.829,0,0,1,1.317.519,1.579,1.579,0,0,1,.353,1.3l-2.839,18.849a2.2,2.2,0,0,1-.782,1.383,2.328,2.328,0,0,1-1.45.519h-18.85a1.548,1.548,0,0,1-1.23-.519,2.126,2.126,0,0,1-.256-1.383l2.839-18.849a2.022,2.022,0,0,1,.684-1.3A1.992,1.992,0,0,1,1008.872,2532.573Z" transform="translate(-1003.964 -2532.573)" fill="none" stroke="#fff" stroke-linecap="round" stroke-linejoin="round" stroke-width="1"/>
      </g>
    </g>
    <g id="Group_142356" data-name="Group 142356" transform="translate(991.694 2471.405)">
      <g id="Group_142355" data-name="Group 142355" transform="translate(0 0)">
        <g id="Symbol_79_0_Layer0_0_MEMBER_1_MEMBER_1_MEMBER_3_MEMBER_0_MEMBER_1_MEMBER_2_FILL" data-name="Symbol 79 0 Layer0 0 MEMBER 1 MEMBER 1 MEMBER 3 MEMBER 0 MEMBER 1 MEMBER 2 FILL">
          <path id="Path_103812" data-name="Path 103812" d="M1025.126,2538.1a5.685,5.685,0,0,0-3.269-.87,7.6,7.6,0,0,0-3.811.921,7.257,7.257,0,0,0-2.691,2.548,9.611,9.611,0,0,0-1.333,3.735,7.058,7.058,0,0,0,.273,3.541,4.7,4.7,0,0,0,1.908,2.445,5.827,5.827,0,0,0,3.339.881,7.364,7.364,0,0,0,6.351-3.419,9.06,9.06,0,0,0,1.367-3.755,7.114,7.114,0,0,0-.255-3.582,4.676,4.676,0,0,0-1.877-2.446m-7.466,3.756a4.833,4.833,0,0,1,1.583-1.7,3.809,3.809,0,0,1,2.168-.614,2.883,2.883,0,0,1,2.051.665,3.132,3.132,0,0,1,.958,1.75,6.675,6.675,0,0,1,.026,2.373,6.9,6.9,0,0,1-.757,2.344,4.385,4.385,0,0,1-1.509,1.678,3.846,3.846,0,0,1-2.264.635,2.9,2.9,0,0,1-1.935-.614,3.1,3.1,0,0,1-1.05-1.678,6.2,6.2,0,0,1-.081-2.416A7.435,7.435,0,0,1,1017.66,2541.856Z" transform="translate(-1013.915 -2537.227)" fill="#fff"/>
        </g>
      </g>
    </g>
    <g id="Group_142359" data-name="Group 142359" transform="translate(975.231 2508.251)">
      <g id="Group_142357" data-name="Group 142357" transform="translate(0.024 0.002)">
        <g id="Symbol_79_0_Layer0_0_MEMBER_1_MEMBER_1_MEMBER_3_MEMBER_1_FILL" data-name="Symbol 79 0 Layer0 0 MEMBER 1 MEMBER 1 MEMBER 3 MEMBER 1 FILL">
          <path id="Path_103813" data-name="Path 103813" d="M1042.635,2592.205a3.965,3.965,0,0,0-1.04-3.374,3.751,3.751,0,0,0-3.186-1.47,5.6,5.6,0,0,0-3.647,1.47,5.281,5.281,0,0,0-1.815,3.374,4.128,4.128,0,0,0,.856,3.459,3.937,3.937,0,0,0,3.11,1.384,5.631,5.631,0,0,0,3.723-1.384,5.869,5.869,0,0,0,2-3.459m-11.36,7.005a1.242,1.242,0,0,1,.96.605,1.982,1.982,0,0,1,.332,1.471l-1.849,12.455a12.789,12.789,0,0,1-1.645,4.757,3.892,3.892,0,0,1-.228.433.864.864,0,0,0,.237.173,6.734,6.734,0,0,0,2.864.605,7.817,7.817,0,0,0,3.018-.605,10.664,10.664,0,0,0,2.717-1.643,8.284,8.284,0,0,0,1.855-2.336,7.579,7.579,0,0,0,1.067-2.94l1.651-10.9a1.79,1.79,0,0,0-.418-1.471,1.426,1.426,0,0,0-1.219-.605h-9.341m-33.587-5.881a2.2,2.2,0,0,0-.782,1.384l-2.961,19.807a1.475,1.475,0,0,0,.343,1.384,1.666,1.666,0,0,0,1.307.606H1015.4a2.172,2.172,0,0,0,1.461-.606,2.666,2.666,0,0,0,.868-1.384l2.3-15.309.3-2.335.362-2.163a1.578,1.578,0,0,0-.353-1.3.847.847,0,0,1-.14-.259,1.942,1.942,0,0,0-1.4-.52h-2.854l.075.087H999.15a2.166,2.166,0,0,0-1.461.6m8.976,6.919h-3.892l.352-2.076H1013.5l-.351,2.076h-3.979l-1.639,10.812h-2.508Z" transform="translate(-993.898 -2583.037)" fill="#beedff"/>
          <path id="Path_103814" data-name="Path 103814" d="M1031.795,2591.869a7.126,7.126,0,0,0,.958-2.767,8.131,8.131,0,0,0-.089-2.681,5.615,5.615,0,0,0-1.184-2.249,7.043,7.043,0,0,0-1.8-1.47h-.173a5.958,5.958,0,0,0-2.691-.606,6.778,6.778,0,0,0-2.758.606h-.173a11.293,11.293,0,0,0-2.349,1.47,7.893,7.893,0,0,0-1.758,2.249,6.272,6.272,0,0,0-1.034,2.681,7.338,7.338,0,0,0,.1,2.594h2.768a1.94,1.94,0,0,1,1.4.519.837.837,0,0,0,.14.259,1.579,1.579,0,0,1,.353,1.3l-.362,2.163a6.894,6.894,0,0,0,1.535.172,7.88,7.88,0,0,0,2.833-.519,10.9,10.9,0,0,0,2.535-1.556,8.217,8.217,0,0,0,1.746-2.163m-22.14,23.7a13.549,13.549,0,0,0,.265,1.989,11.057,11.057,0,0,0,1.925,3.893,9.771,9.771,0,0,0,3.463,2.681,9.305,9.305,0,0,0,4.452,1.038,12.12,12.12,0,0,0,4.889-1.038,15.487,15.487,0,0,0,7.011-6.141,3.837,3.837,0,0,0,.228-.433,12.79,12.79,0,0,0,1.645-4.756l1.85-12.455a1.981,1.981,0,0,0-.332-1.47,1.241,1.241,0,0,0-.96-.6h-11.244l-2.3,15.309a2.67,2.67,0,0,1-.868,1.385,2.173,2.173,0,0,1-1.461.6Z" transform="translate(-996.714 -2582.095)" fill="#bae9fa"/>
          <path id="Path_103815" data-name="Path 103815" d="M1004.7,2602.6h3.892l-1.639,10.811h2.508l1.639-10.811h3.979l.351-2.076h-10.379Z" transform="translate(-995.83 -2585.389)" fill="#fff"/>
        </g>
      </g>
      <g id="Group_142358" data-name="Group 142358">
        <path id="Symbol_79_0_Layer0_0_MEMBER_1_MEMBER_1_MEMBER_3_MEMBER_1_1_STROKES" data-name="Symbol 79 0 Layer0 0 MEMBER 1 MEMBER 1 MEMBER 3 MEMBER 1 1 STROKES" d="M1006.81,2615.565H995.566a1.666,1.666,0,0,1-1.306-.6,1.476,1.476,0,0,1-.343-1.385l2.961-19.806a2.2,2.2,0,0,1,.782-1.384,2.167,2.167,0,0,1,1.461-.605h16.866l-.076-.087H1016a7.338,7.338,0,0,1-.1-2.594,6.275,6.275,0,0,1,1.034-2.682,7.9,7.9,0,0,1,1.758-2.248,11.322,11.322,0,0,1,2.35-1.47h.173a6.788,6.788,0,0,1,2.758-.606,5.964,5.964,0,0,1,2.69.606h.173a7.06,7.06,0,0,1,1.8,1.47,5.605,5.605,0,0,1,1.182,2.248,8.1,8.1,0,0,1,.09,2.682,7.124,7.124,0,0,1-.958,2.768,8.243,8.243,0,0,1-1.746,2.162,10.928,10.928,0,0,1-2.534,1.556,7.891,7.891,0,0,1-2.834.519,6.874,6.874,0,0,1-1.534-.173l-.3,2.335h20.585a1.428,1.428,0,0,1,1.22.6,1.793,1.793,0,0,1,.418,1.471l-1.651,10.9a7.6,7.6,0,0,1-1.068,2.941,8.272,8.272,0,0,1-1.854,2.335,10.651,10.651,0,0,1-2.718,1.644,7.808,7.808,0,0,1-3.018.6,6.721,6.721,0,0,1-2.863-.6.825.825,0,0,1-.237-.174,14.113,14.113,0,0,1-2.864,3.46,13.971,13.971,0,0,1-4.147,2.681,12.135,12.135,0,0,1-4.89,1.038,9.308,9.308,0,0,1-4.451-1.038,9.78,9.78,0,0,1-3.463-2.681,11.041,11.041,0,0,1-1.925-3.892A13.549,13.549,0,0,1,1006.81,2615.565Zm0,0h8.563a2.171,2.171,0,0,0,1.461-.6,2.666,2.666,0,0,0,.869-1.385l2.3-15.309m18.379-11.85a3.752,3.752,0,0,1,3.185,1.47,3.969,3.969,0,0,1,1.04,3.374,5.867,5.867,0,0,1-2,3.459,5.632,5.632,0,0,1-3.723,1.384,3.937,3.937,0,0,1-3.11-1.384,4.131,4.131,0,0,1-.856-3.459,5.288,5.288,0,0,1,1.814-3.374A5.6,5.6,0,0,1,1038.381,2586.417Zm-9.566,31.569a3.938,3.938,0,0,0,.229-.432,12.818,12.818,0,0,0,1.645-4.757l1.849-12.455a1.976,1.976,0,0,0-.331-1.471,1.241,1.241,0,0,0-.961-.6M1016,2591.693h2.767a1.943,1.943,0,0,1,1.4.519.846.846,0,0,0,.14.26,1.578,1.578,0,0,1,.353,1.3l-.362,2.162" transform="translate(-993.869 -2582.092)" fill="none" stroke="#fff" stroke-linecap="round" stroke-linejoin="round" stroke-width="1"/>
      </g>
    </g>
    <g id="Group_142361" data-name="Group 142361" transform="translate(969.394 2567.847)">
      <g id="Group_142360" data-name="Group 142360">
        <g id="Symbol_79_0_Layer0_0_MEMBER_1_MEMBER_1_MEMBER_3_MEMBER_2_FILL" data-name="Symbol 79 0 Layer0 0 MEMBER 1 MEMBER 1 MEMBER 3 MEMBER 2 FILL">
          <path id="Path_103816" data-name="Path 103816" d="M1006.024,2654.744q-1.384,0-2.778.087a54.769,54.769,0,0,0-9.257.691,6.47,6.47,0,0,0-2.5,1.3,6.118,6.118,0,0,0-1.682,2.335,31.384,31.384,0,0,0-1.649,6.141q-.351,2.075-.647,3.719l-.475,3.719a27.026,27.026,0,0,0-.168,6.055,3.4,3.4,0,0,0,.924,2.249,4.362,4.362,0,0,0,2.158,1.384,52.042,52.042,0,0,0,8.982.778q3.622.087,6.735.086l6.844-.086a62.765,62.765,0,0,0,9.44-.778,6.551,6.551,0,0,0,2.414-1.3,6.758,6.758,0,0,0,1.671-2.249,42.77,42.77,0,0,0,1.648-6.141l.648-3.719q.3-1.644.474-3.719a38.7,38.7,0,0,0,.178-6.141,4.224,4.224,0,0,0-1.01-2.249,4.866,4.866,0,0,0-1.986-1.384,53.344,53.344,0,0,0-9.166-.691l-6.811-.174q-1.9,0-3.99.087M1003,2675.069l1.816-12.2,9.595,6.141Z" transform="translate(-986.762 -2654.657)" fill="#beedff"/>
          <path id="Path_103817" data-name="Path 103817" d="M1008.347,2664.663l-1.816,12.195,11.411-6.054Z" transform="translate(-990.296 -2656.446)" fill="#fff"/>
        </g>
      </g>
    </g>
    <g id="Group_142363" data-name="Group 142363" transform="translate(999.46 2401.35)">
      <g id="Group_142362" data-name="Group 142362" transform="translate(0 0)">
        <g id="Symbol_79_0_Layer0_0_MEMBER_1_MEMBER_1_MEMBER_3_MEMBER_3_FILL" data-name="Symbol 79 0 Layer0 0 MEMBER 1 MEMBER 1 MEMBER 3 MEMBER 3 FILL">
          <path id="Path_103818" data-name="Path 103818" d="M1028.5,2461.181a4.214,4.214,0,0,0-2.323,3.287l-2.793,17.818a6.374,6.374,0,0,0,.178,1.989,2.794,2.794,0,0,0,1.219,1.3q.637.432,7.361,4.67,5.515,3.546,6.637,4.238a3.849,3.849,0,0,0,4.151,0l16.619-8.908a3.948,3.948,0,0,0,1.636-1.3,4.847,4.847,0,0,0,.687-1.989l2.707-17.818a4.874,4.874,0,0,0-.1-1.9,4.371,4.371,0,0,0-1.207-1.384l-14.01-8.822a.215.215,0,0,0-.162-.086,5.162,5.162,0,0,0-3.719,0,.4.4,0,0,0-.271.086q-1.31.779-7.892,4.238-.65.346-1.213.692-6.842,3.459-7.5,3.892m4.521,7.266a12.991,12.991,0,0,1,1.4-2.163,10.788,10.788,0,0,1,1.973-1.9,9.693,9.693,0,0,1,2.1-1.557,10.508,10.508,0,0,1,2.317-1.211,14.557,14.557,0,0,1,5.138-.952,10.994,10.994,0,0,1,6.18,1.731,9.831,9.831,0,0,1,3.912,4.583l-5.857,3.2-.271.086a4.4,4.4,0,0,0-1.865-2.335,5.635,5.635,0,0,0-3.09-.865,7.237,7.237,0,0,0-4.816,1.816,7.492,7.492,0,0,0-2.563,4.5,6.8,6.8,0,0,0,.359,3.286,5.57,5.57,0,0,0,2.048,2.25,5.635,5.635,0,0,0,3.089.865,7.308,7.308,0,0,0,3.4-.865,7.034,7.034,0,0,0,2.547-2.336l5.126,3.2a14.6,14.6,0,0,1-5.266,4.67,13.8,13.8,0,0,1-6.806,1.816,11.237,11.237,0,0,1-6.255-1.816,9.85,9.85,0,0,1-3.814-4.67,11.48,11.48,0,0,1-.74-6.4,14.487,14.487,0,0,1,1.753-4.929m22.62,3.027.143-1.126h1.212l-.144,1.126h1.557l.143-1.126h1.3l-.144,1.126h1.038l-.241,1.21h-1.038l-.2,1.557h1.038l-.166,1.3H1059.1l-.219,1.038h-1.3l.219-1.038h-1.556l-.219,1.038h-1.211l.219-1.038H1054l.165-1.3h1.038l.2-1.557h-1.038l.242-1.21h1.037m2.527,1.21h-1.557l-.2,1.557h1.557Z" transform="translate(-1023.371 -2451.927)" fill="#beedff"/>
          <path id="Path_103819" data-name="Path 103819" d="M1057.467,2472.25l-.144,1.125h-1.037l-.241,1.21h1.038l-.2,1.557h-1.038l-.165,1.3h1.037l-.219,1.038h1.211l.219-1.038h1.556l-.219,1.038h1.3l.219-1.038h1.038l.166-1.3h-1.038l.2-1.557h1.038l.241-1.21h-1.038l.144-1.125h-1.3l-.143,1.125h-1.557l.144-1.125h-1.211m.826,2.336h1.557l-.2,1.557h-1.557l.2-1.557m-22.19-6.4a13.032,13.032,0,0,0-1.4,2.163,14.5,14.5,0,0,0-1.753,4.929,11.482,11.482,0,0,0,.74,6.4,9.852,9.852,0,0,0,3.815,4.671,11.237,11.237,0,0,0,6.255,1.815,13.8,13.8,0,0,0,6.806-1.815,14.608,14.608,0,0,0,5.266-4.671l-5.126-3.2a7.038,7.038,0,0,1-2.547,2.336,7.305,7.305,0,0,1-3.4.865,5.633,5.633,0,0,1-3.089-.865,5.568,5.568,0,0,1-2.048-2.25,6.8,6.8,0,0,1-.359-3.286,7.494,7.494,0,0,1,2.563-4.5,7.237,7.237,0,0,1,4.816-1.816,5.632,5.632,0,0,1,3.09.865,4.4,4.4,0,0,1,1.864,2.334l.271-.086,5.858-3.2a9.835,9.835,0,0,0-3.913-4.583,10.994,10.994,0,0,0-6.18-1.73,14.547,14.547,0,0,0-5.138.952,10.482,10.482,0,0,0-2.317,1.211,9.7,9.7,0,0,0-2.1,1.557A10.8,10.8,0,0,0,1036.1,2468.186Z" transform="translate(-1025.055 -2453.828)" fill="#fff"/>
        </g>
      </g>
    </g>
    <g id="Group_142365" data-name="Group 142365" transform="translate(1108.672 2168.95)">
      <g id="Group_142364" data-name="Group 142364">
        <g id="Symbol_79_0_Layer0_0_MEMBER_2_FILL" data-name="Symbol 79 0 Layer0 0 MEMBER 2 FILL">
          <path id="Path_103820" data-name="Path 103820" d="M1194.374,2245.123a90.769,90.769,0,0,1,17-23.2q25.83-25.706,61.924-26.568l1.766-26.4q-47.921.37-81.963,34.329a117.068,117.068,0,0,0-23.2,32.358Z" transform="translate(-1158.772 -2168.95)" fill="#ffaa01"/>
          <path id="Path_103821" data-name="Path 103821" d="M1199.7,2250.869l14.331,5.543a78,78,0,0,1,13.469-18.027q20.983-20.9,50.139-22.174l.985-15.111q-36.095.862-61.924,26.568A90.778,90.778,0,0,0,1199.7,2250.869Z" transform="translate(-1164.098 -2174.696)" fill="#d18b01"/>
          <path id="Path_103822" data-name="Path 103822" d="M1213.305,2373.573q-2.217-2.053-4.353-4.106-26.65-26.732-26.651-64.552a92.168,92.168,0,0,1,2.916-23.447l-24.556-9.568a122.059,122.059,0,0,0-4.312,32.81q0,48.661,34.329,82.989,3.449,3.531,7.227,6.735Z" transform="translate(-1156.35 -2187.35)" fill="#b79ffd"/>
          <path id="Path_103823" data-name="Path 103823" d="M1205.2,2289.094l-14.331-5.543A92.165,92.165,0,0,0,1187.95,2307q0,37.819,26.65,64.552,2.135,2.053,4.353,4.106l9.2-12.319q-1.4-1.315-2.751-2.628-22.215-22.3-22.216-53.752A77.341,77.341,0,0,1,1205.2,2289.094Z" transform="translate(-1161.998 -2189.433)" fill="#907dc7"/>
          <path id="Path_103824" data-name="Path 103824" d="M1375.993,2330.6q-4.394,28.169-25.583,49.358-26.65,26.733-64.469,26.732-24.721,0-44.718-11.416l-15.522,20.9q26.773,16.384,60.4,16.384,48.619,0,82.948-34.37,28.293-28.253,33.343-66.03Z" transform="translate(-1168.745 -2197.842)" fill="#1bc4bd"/>
          <path id="Path_103825" data-name="Path 103825" d="M1379.371,2330.413l-15.153-.862q-4.106,22.338-21.065,39.38-22.257,22.255-53.834,22.257a73.83,73.83,0,0,1-35.438-8.583l-9.28,12.483q20,11.415,44.718,11.416,37.82,0,64.47-26.733Q1374.977,2358.583,1379.371,2330.413Z" transform="translate(-1172.123 -2197.654)" fill="#169d97"/>
          <path id="Path_103826" data-name="Path 103826" d="M1393.754,2282.859l26.4,1.561q-.78-47.224-34.411-80.854-27.8-27.717-64.881-33.015l-1.766,26.362q27.308,4.6,48,25.3Q1392.44,2247.544,1393.754,2282.859Z" transform="translate(-1185.438 -2169.237)" fill="#f4789a"/>
          <path id="Path_103827" data-name="Path 103827" d="M1378.387,2287.734l15.152.863q-1.315-35.315-26.65-60.651-20.7-20.7-48-25.3l-.985,15.235q21.764,4.188,38.353,20.778Q1376.826,2259.236,1378.387,2287.734Z" transform="translate(-1185.224 -2174.974)" fill="#d76a88"/>
        </g>
      </g>
    </g>
    <g id="Group_142367" data-name="Group 142367" transform="translate(1549.409 2445.913)">
      <g id="Group_142366" data-name="Group 142366" transform="translate(0 0)">
        <g id="Symbol_79_0_Layer0_0_MEMBER_3_MEMBER_0_FILL" data-name="Symbol 79 0 Layer0 0 MEMBER 3 MEMBER 0 FILL">
          <path id="Path_103828" data-name="Path 103828" d="M1744.511,2571.433l-4.4,2.2a3.171,3.171,0,0,0-1.417,1.7,2.64,2.64,0,0,0,.141,2.056l1.134,3.049a27.553,27.553,0,0,0-3.332,4.041l-3.4-.639a2.951,2.951,0,0,0-1.985.284,2.85,2.85,0,0,0-1.276,1.63l-1.489,4.75a2.884,2.884,0,0,0,1.56,3.616l3.119,1.418a21.038,21.038,0,0,0,.5,5.247l-2.907,1.913a3.1,3.1,0,0,0-1.205,1.844,2.823,2.823,0,0,0,.213,2.056l2.2,4.467a3.683,3.683,0,0,0,1.7,1.347,3,3,0,0,0,2.127.072l3.049-1.206a22.462,22.462,0,0,0,4.254,3.687l-.568,3.119a2.887,2.887,0,0,0,.355,2.056,3.207,3.207,0,0,0,1.63,1.348l4.75,1.489a3,3,0,0,0,2.127-.071,2.829,2.829,0,0,0,1.489-1.56l1.276-2.907a24.214,24.214,0,0,0,5.6-.5l1.7,2.481a3.414,3.414,0,0,0,1.772,1.206,2.807,2.807,0,0,0,2.127-.142l4.253-2.269a3.964,3.964,0,0,0,1.56-1.631,3.484,3.484,0,0,0,0-2.2l-1.2-2.694a23.676,23.676,0,0,0,3.687-4.184l2.906.5a3.412,3.412,0,0,0,2.057-.213,2.85,2.85,0,0,0,1.276-1.7l1.63-4.75a2.772,2.772,0,0,0-.212-2.056,2.838,2.838,0,0,0-1.489-1.56l-2.623-1.2a24.1,24.1,0,0,0-.425-5.814l2.34-1.7a1.976,1.976,0,0,0,1.206-1.631,2.186,2.186,0,0,0-.284-2.127l-2.2-4.4a3.156,3.156,0,0,0-1.63-1.489,4.348,4.348,0,0,0-2.057.072l-2.623,1.134a22.636,22.636,0,0,0-4.821-3.9l.708-2.907a3.91,3.91,0,0,0-.283-2.126,3.153,3.153,0,0,0-1.7-1.276l-4.821-1.489a3,3,0,0,0-2.127.071,2.322,2.322,0,0,0-1.418,1.56l-1.417,2.907a24.783,24.783,0,0,0-5.531.5l-1.772-2.623a2.421,2.421,0,0,0-1.7-1.134,2.782,2.782,0,0,0-2.127.283m6.239,16.449a8.079,8.079,0,0,1,3.687-1.063,7.871,7.871,0,0,1,3.616.425,9.039,9.039,0,0,1,3.332,1.772,9.3,9.3,0,0,1,2.411,2.978,10.085,10.085,0,0,1,.993,3.616,9.437,9.437,0,0,1-.426,3.687,9.679,9.679,0,0,1-1.7,3.332,9.072,9.072,0,0,1-3.048,2.41,9.465,9.465,0,0,1-3.545.993,9.038,9.038,0,0,1-3.758-.355,8.5,8.5,0,0,1-3.261-1.772,9.921,9.921,0,0,1-2.481-3.049,8.133,8.133,0,0,1-.993-3.616,10.874,10.874,0,0,1,.355-3.687,13.394,13.394,0,0,1,1.843-3.332,7.745,7.745,0,0,1,2.978-2.34m-38.639-36.088-1.134-1.843a2.631,2.631,0,0,0-1.489-1.347,2.4,2.4,0,0,0-2.127,0l-2.907,1.2a2.819,2.819,0,0,0-1.63,1.418,3.349,3.349,0,0,0-.071,2.056l.567,2.2a20.28,20.28,0,0,0-2.978,3.048l-2.126-.849a3.591,3.591,0,0,0-2.127.212,3.768,3.768,0,0,0-1.418,1.56l-1.134,2.764a2.792,2.792,0,0,0-.213,2.2,2.873,2.873,0,0,0,1.347,1.63l1.985,1.134a27.43,27.43,0,0,0-.213,4.325l-1.843,1.063a2.825,2.825,0,0,0-1.418,1.631,3.276,3.276,0,0,0,0,2.127l1.135,2.764a3.556,3.556,0,0,0,1.489,1.631,3.037,3.037,0,0,0,2.126.213l2.127-.638a16.126,16.126,0,0,0,3.12,3.332l-.426,2.056a2.756,2.756,0,0,0,0,2.127,3.128,3.128,0,0,0,1.63,1.489l2.765,1.2a2.583,2.583,0,0,0,2.056,0,2.5,2.5,0,0,0,1.7-1.347l.993-1.772a21.525,21.525,0,0,0,4.608.07l.993,1.7a2.565,2.565,0,0,0,1.56,1.489,3.2,3.2,0,0,0,2.2-.072l2.765-1.134a2.876,2.876,0,0,0,1.56-1.417,2.731,2.731,0,0,0,.071-2.2l-.425-1.915a16.292,16.292,0,0,0,3.261-2.978l1.773.5a2.564,2.564,0,0,0,2.126-.213,2.9,2.9,0,0,0,1.418-1.489l1.206-2.764a2.75,2.75,0,0,0,.071-2.2,2.587,2.587,0,0,0-1.276-1.63l-1.56-.993a18.227,18.227,0,0,0,0-4.537l1.7-1.063a2.962,2.962,0,0,0,1.347-1.488,3.136,3.136,0,0,0,0-2.269l-1.206-2.766a3,3,0,0,0-1.347-1.489,3.216,3.216,0,0,0-2.2-.212l-1.772.5a17.258,17.258,0,0,0-3.474-3.474l.567-1.914a2.49,2.49,0,0,0-.283-1.985,3.124,3.124,0,0,0-1.489-1.631l-2.765-1.063a2.987,2.987,0,0,0-2.126-.213,3.863,3.863,0,0,0-1.631,1.348l-.921,1.985a21.029,21.029,0,0,0-4.537-.072m5.388,10.564a7.777,7.777,0,0,1,4.253,4.4,7.086,7.086,0,0,1-.071,5.956,8.075,8.075,0,0,1-4.325,4.325,7.884,7.884,0,0,1-5.955-.213,7.264,7.264,0,0,1-4.254-4.254,7.091,7.091,0,0,1,.071-5.955,7.262,7.262,0,0,1,4.325-4.254,7.661,7.661,0,0,1,5.956,0m48.848-54.592-2.055,3.757a30.285,30.285,0,0,0-6.877.213l-2.127-3.9a3.258,3.258,0,0,0-1.56-1.347,3.626,3.626,0,0,0-2.34.213l-6.522,2.695a2.587,2.587,0,0,0-1.489,1.418,2.426,2.426,0,0,0-.213,2.056l1.347,4.609a25.007,25.007,0,0,0-4.537,4.4l-4.466-1.2a3,3,0,0,0-2.127.071,3.56,3.56,0,0,0-1.489,1.631l-2.694,6.594a2.4,2.4,0,0,0,0,2.127,2.863,2.863,0,0,0,1.347,1.63l4.042,2.27a33.351,33.351,0,0,0,.07,6.522l-4.254,2.34a3.75,3.75,0,0,0-1.418,1.63,3.872,3.872,0,0,0,.213,2.2l2.765,6.594a3.235,3.235,0,0,0,1.418,1.559,3.3,3.3,0,0,0,2.127.142l4.325-1.276a28.575,28.575,0,0,0,4.963,4.891l-1.206,4.4a2.775,2.775,0,0,0,.213,2.056,2.9,2.9,0,0,0,1.418,1.56l6.664,2.694a4.092,4.092,0,0,0,2.269.071,2.573,2.573,0,0,0,1.489-1.417l2.2-3.9a26.427,26.427,0,0,0,6.948.07l2.057,3.687a2.121,2.121,0,0,0,1.56,1.276,2.744,2.744,0,0,0,2.2.071l6.523-2.694a3.04,3.04,0,0,0,1.631-1.7,2.535,2.535,0,0,0,.141-2.057l-1.064-4.04a40.136,40.136,0,0,0,4.75-4.68l3.9,1.063a3.441,3.441,0,0,0,2.269-.213,2.9,2.9,0,0,0,1.417-1.489l2.765-6.665a3.065,3.065,0,0,0,0-2.056,3.269,3.269,0,0,0-1.347-1.7l-3.545-1.985a24.27,24.27,0,0,0-.071-7.161l3.545-1.985a3.158,3.158,0,0,0,1.489-1.631,2.861,2.861,0,0,0,0-1.985l-2.836-6.735a4.459,4.459,0,0,0-1.417-1.56,3,3,0,0,0-2.2-.142l-3.971,1.063a23.063,23.063,0,0,0-5.246-5.033l1.134-4.113a2.458,2.458,0,0,0-.213-2.056,2.13,2.13,0,0,0-1.489-1.417l-6.735-2.766a2.984,2.984,0,0,0-2.127-.07,2.564,2.564,0,0,0-1.56,1.417m-4.963,18.788a10.139,10.139,0,0,1,4.325.921,9.512,9.512,0,0,1,3.758,2.482,10.129,10.129,0,0,1,2.836,3.828,10.629,10.629,0,0,1,.779,4.679,9.549,9.549,0,0,1-.921,4.4,10.913,10.913,0,0,1-2.411,3.829,12.685,12.685,0,0,1-3.9,2.553,13.962,13.962,0,0,1-4.608,1.064,14.161,14.161,0,0,1-4.4-.993,13.225,13.225,0,0,1-3.757-2.552,11.294,11.294,0,0,1-2.623-3.829,11.8,11.8,0,0,1-.921-4.608,13.23,13.23,0,0,1,.851-4.324,11.012,11.012,0,0,1,6.38-6.452A13.218,13.218,0,0,1,1761.385,2526.555Z" transform="translate(-1693.004 -2506.188)" fill="#bae9fa"/>
        </g>
      </g>
    </g>
    <g id="Group_142434" data-name="Group 142434" transform="translate(1346.98 2276.816)">
      <g id="Group_142369" data-name="Group 142369" transform="translate(161.753 398.37)">
        <g id="Group_142368" data-name="Group 142368">
          <g id="Symbol_59_0_Layer0_0_MEMBER_0_FILL" data-name="Symbol 59 0 Layer0 0 MEMBER 0 FILL">
            <path id="Path_103829" data-name="Path 103829" d="M1681.7,2789.251l5.667,3.254q5.814,3.368,6.566,3.884a57.67,57.67,0,0,1,6.251,5.039q.46.595.112,1.045a.964.964,0,0,1-.426.325l-5.466.673a77.907,77.907,0,0,1-10.819.471,129.943,129.943,0,0,1-16.128-1.74,103.611,103.611,0,0,1-11.593-2.457,47.975,47.975,0,0,1-6.2-2.267,42,42,0,0,1-3.984-2.031,6.02,6.02,0,0,1-1.774-1.549l-.437-.763.213-3.783,21.425-4Z" transform="translate(-1643.476 -2785.356)" fill="#816654"/>
          </g>
        </g>
      </g>
      <g id="Group_142371" data-name="Group 142371" transform="translate(161.596 403.51)">
        <g id="Group_142370" data-name="Group 142370">
          <g id="Symbol_59_0_Layer0_0_MEMBER_1_FILL" data-name="Symbol 59 0 Layer0 0 MEMBER 1 FILL">
            <path id="Path_103830" data-name="Path 103830" d="M1694.215,2804.59a78.052,78.052,0,0,1-10.819.472,130.185,130.185,0,0,1-16.128-1.741,103.578,103.578,0,0,1-11.594-2.458,48.133,48.133,0,0,1-6.2-2.267,41.984,41.984,0,0,1-3.985-2.031,5.969,5.969,0,0,1-1.784-1.548l-.427-.764.146-2.638a106.614,106.614,0,0,0,27.4,8.1,114.333,114.333,0,0,0,26.88.83q1.166.988,2.289,2l.067.112.18.618a.79.79,0,0,1-.3.482.878.878,0,0,1-.258.158Z" transform="translate(-1643.284 -2791.615)" fill="#6d5544"/>
          </g>
        </g>
      </g>
      <g id="Group_142373" data-name="Group 142373" transform="translate(84.566 398.37)">
        <g id="Group_142372" data-name="Group 142372">
          <g id="Symbol_59_0_Layer0_0_MEMBER_2_FILL" data-name="Symbol 59 0 Layer0 0 MEMBER 2 FILL">
            <path id="Path_103831" data-name="Path 103831" d="M1550.068,2802.8a.966.966,0,0,1-.426-.325q-.348-.45.112-1.045a57.622,57.622,0,0,1,6.251-5.039q.742-.518,6.566-3.884l5.668-3.254,16.588-3.895,21.425,4,.213,3.783-.437.763a6.027,6.027,0,0,1-1.774,1.549,41.973,41.973,0,0,1-3.984,2.031,47.944,47.944,0,0,1-6.195,2.267,103.645,103.645,0,0,1-11.594,2.457,129.954,129.954,0,0,1-16.128,1.74,77.91,77.91,0,0,1-10.819-.471Q1552.346,2803.157,1550.068,2802.8Z" transform="translate(-1549.491 -2785.356)" fill="#816654"/>
          </g>
        </g>
      </g>
      <g id="Group_142375" data-name="Group 142375" transform="translate(84.739 403.51)">
        <g id="Group_142374" data-name="Group 142374">
          <g id="Symbol_59_0_Layer0_0_MEMBER_3_FILL" data-name="Symbol 59 0 Layer0 0 MEMBER 3 FILL">
            <path id="Path_103832" data-name="Path 103832" d="M1550.262,2803.916a.818.818,0,0,1-.561-.64l.18-.618.067-.112q1.134-1.033,2.289-2a114.335,114.335,0,0,0,26.88-.83,106.613,106.613,0,0,0,27.4-8.1l.146,2.638-.438.764a6.026,6.026,0,0,1-1.773,1.548,41.986,41.986,0,0,1-3.985,2.031,48.144,48.144,0,0,1-6.195,2.267,103.572,103.572,0,0,1-11.594,2.458,130.193,130.193,0,0,1-16.128,1.741,78.052,78.052,0,0,1-10.819-.472Q1552.54,2804.275,1550.262,2803.916Z" transform="translate(-1549.701 -2791.615)" fill="#6d5544"/>
          </g>
        </g>
      </g>
      <g id="Group_142377" data-name="Group 142377" transform="translate(102.592 187.709)">
        <g id="Group_142376" data-name="Group 142376">
          <g id="Symbol_59_0_Layer0_0_MEMBER_4_FILL" data-name="Symbol 59 0 Layer0 0 MEMBER 4 FILL">
            <path id="Path_103833" data-name="Path 103833" d="M1659.851,2532.182l-78.98-3.333-9.431,215.6,38.291.488,10.406-178.692L1631.031,2744h38.738Z" transform="translate(-1571.44 -2528.849)" fill="#13273c"/>
          </g>
        </g>
      </g>
      <g id="Group_142379" data-name="Group 142379" transform="translate(109.499 66.983)">
        <g id="Group_142378" data-name="Group 142378">
          <g id="Symbol_59_0_Layer0_1_MEMBER_0_FILL" data-name="Symbol 59 0 Layer0 1 MEMBER 0 FILL">
            <path id="Path_103834" data-name="Path 103834" d="M1666.33,2397.455a306.2,306.2,0,0,0-46.2-15.6l-40.283,3.449,2.546,121.753,79.663,1.232Z" transform="translate(-1579.85 -2381.851)" fill="#7e80ce"/>
          </g>
        </g>
      </g>
      <g id="Group_142381" data-name="Group 142381" transform="translate(133.85 81.889)">
        <g id="Group_142380" data-name="Group 142380">
          <g id="Symbol_59_0_Layer0_1_MEMBER_1_MEMBER_0_FILL" data-name="Symbol 59 0 Layer0 1 MEMBER 1 MEMBER 0 FILL">
            <path id="Path_103835" data-name="Path 103835" d="M1629.5,2400.041l-2.135.945a11.885,11.885,0,0,1-4.845.822,16.6,16.6,0,0,1-4.8-.945,17.007,17.007,0,0,1-2.012-.862l4.6,7.925-10.8,61.226,8.582,10.882,9.2-10.635-3.614-61.431Z" transform="translate(-1609.5 -2400)" fill="#56578d"/>
          </g>
        </g>
      </g>
      <g id="Group_142383" data-name="Group 142383" transform="translate(128.594 68.215)">
        <g id="Group_142382" data-name="Group 142382">
          <g id="Symbol_59_0_Layer0_1_MEMBER_1_MEMBER_1_FILL" data-name="Symbol 59 0 Layer0 1 MEMBER 1 MEMBER 1 FILL">
            <path id="Path_103836" data-name="Path 103836" d="M1615.378,2397.682l-2.587-14.332-9.691,20.08,12.278-5.749m22.667-12.442-11.621,13.51,14.29,8.212Z" transform="translate(-1603.1 -2383.35)" fill="#6d6fb3"/>
          </g>
        </g>
      </g>
      <g id="Group_142385" data-name="Group 142385" transform="translate(136.89 61.439)">
        <g id="Group_142384" data-name="Group 142384">
          <g id="Symbol_59_0_Layer0_1_MEMBER_1_MEMBER_2_FILL" data-name="Symbol 59 0 Layer0 1 MEMBER 1 MEMBER 2 FILL">
            <path id="Path_103837" data-name="Path 103837" d="M1617.389,2375.1l-3,9.855q-2.587,5.625.452,9.034,2.793,3.16,9.732,3.531,5.584.328,10.964-6.447a29.019,29.019,0,0,0,3.162-4.722l1.191-2.135,1.684-7.638Z" transform="translate(-1613.202 -2375.1)" fill="#f89a7f"/>
          </g>
        </g>
      </g>
      <g id="Group_142408" data-name="Group 142408" transform="translate(134.9)">
        <g id="Group_142387" data-name="Group 142387" transform="translate(36.828 42.819)">
          <g id="Group_142386" data-name="Group 142386">
            <g id="Duplicate_Items_Folder_Symbol_4_copy_9_0_Layer0_0_MEMBER_0_FILL" data-name="Duplicate Items Folder Symbol 4 copy 9 0 Layer0 0 MEMBER 0 FILL">
              <path id="Path_103838" data-name="Path 103838" d="M1659.163,2352.435l1.524,0a4.231,4.231,0,0,1,.874.028,9.552,9.552,0,0,1,1.739.348,7.48,7.48,0,0,1,1.941.983,2.718,2.718,0,0,1,1.2,1.631,8.585,8.585,0,0,1,.052,2.536,7.461,7.461,0,0,1-.87,2.966,8.683,8.683,0,0,1-1.6,2.09,9.615,9.615,0,0,1-2.086,1.39,5.909,5.909,0,0,1-2.182.546,6.035,6.035,0,0,1-1.859-.083,3.3,3.3,0,0,1-1.562-.6,2.742,2.742,0,0,1-.714-.461Z" transform="translate(-1655.621 -2352.428)" fill="#f89a7f"/>
            </g>
          </g>
        </g>
        <g id="Group_142389" data-name="Group 142389" transform="translate(1.793 32.871)">
          <g id="Group_142388" data-name="Group 142388">
            <g id="Duplicate_Items_Folder_Symbol_4_copy_9_0_Layer0_0_MEMBER_1_FILL" data-name="Duplicate Items Folder Symbol 4 copy 9 0 Layer0 0 MEMBER 1 FILL">
              <path id="Path_103839" data-name="Path 103839" d="M1616.28,2340.546a4.982,4.982,0,0,1,2.181-.179,6,6,0,0,1,1.743.573l2.14,1.368-2.545,11.286-.859-.034a9.88,9.88,0,0,1-1.73-.275,6.56,6.56,0,0,1-1.7-.669,5.994,5.994,0,0,1-1.6-1.432,3.774,3.774,0,0,1-.854-1.935q-.035-1.373-.083-2.336a8.681,8.681,0,0,1,.394-3.009,7.211,7.211,0,0,1,1.088-2.264A3.373,3.373,0,0,1,1616.28,2340.546Z" transform="translate(-1612.962 -2340.316)" fill="#d17578"/>
            </g>
          </g>
        </g>
        <g id="Group_142391" data-name="Group 142391" transform="translate(0 16.292)">
          <g id="Group_142390" data-name="Group 142390">
            <g id="Duplicate_Items_Folder_Symbol_4_copy_9_0_Layer0_0_MEMBER_2_FILL" data-name="Duplicate Items Folder Symbol 4 copy 9 0 Layer0 0 MEMBER 2 FILL">
              <path id="Path_103840" data-name="Path 103840" d="M1611.41,2354.212q.447-1.656.837-3.325l7.47-27.423,18.856-3.336,11.971,7.788,3.416,9.485-7.235,24.66-.268.641a32.67,32.67,0,0,1-2.885,5.312,17.528,17.528,0,0,1-4.928,5.01,15.853,15.853,0,0,1-5.4,2.494,21.092,21.092,0,0,1-6.422.611,29.494,29.494,0,0,1-6.073-1.89,16.67,16.67,0,0,1-4.942-3.21,15.59,15.59,0,0,1-3.524-4.756,16.268,16.268,0,0,1-1.477-5.98A20.069,20.069,0,0,1,1611.41,2354.212Z" transform="translate(-1610.779 -2320.128)" fill="#f8a891"/>
            </g>
          </g>
        </g>
        <g id="Group_142393" data-name="Group 142393" transform="translate(4.258)">
          <g id="Group_142392" data-name="Group 142392">
            <g id="Duplicate_Items_Folder_Symbol_4_copy_9_0_Layer0_0_MEMBER_3_FILL" data-name="Duplicate Items Folder Symbol 4 copy 9 0 Layer0 0 MEMBER 3 FILL">
              <path id="Path_103841" data-name="Path 103841" d="M1622.774,2300.521a11.961,11.961,0,0,0,1.883,3.493q.379.382,1.4,1.558a5.725,5.725,0,0,0,2.309,1.42,38.094,38.094,0,0,0,4.51,1.29l16.23,4.383a18.813,18.813,0,0,1,2.024.884,14.1,14.1,0,0,1,3.416,2.208q1.435,1.392,2.1,2.075a20.162,20.162,0,0,1,1.664,1.915,14.711,14.711,0,0,1,1.407,2.266,12.232,12.232,0,0,1,1.208,2.865,17.151,17.151,0,0,1,.638,2.791,9.262,9.262,0,0,1,.125,2.728q-.338,2.445-.363,2.557a13.144,13.144,0,0,1-.559,2.393,14.546,14.546,0,0,1-1.4,2.489,12.286,12.286,0,0,1-1.767,2.286,71.088,71.088,0,0,1-6.043,4.513l1.874-8.013q-2.2-3.625-2.719-4.685a31.527,31.527,0,0,1-1.288-3.529l-.93-2.8-5.09.687a37.8,37.8,0,0,1-8.593.1,45.613,45.613,0,0,1-9.627-2.251,36.917,36.917,0,0,1-4.879-2.726l-.391,1.669q-1.092-1.605-1.59-2.485a20.783,20.783,0,0,1-.975-2.106,13.984,13.984,0,0,1-.789-2.649,17.413,17.413,0,0,1-.472-2.752,15.879,15.879,0,0,1-.072-2.951,20.153,20.153,0,0,1,1.191-4.592q.868-2.2,1.077-2.1a.923.923,0,0,1,.121-.265.5.5,0,0,1,.442-.131q.222.051.506,1.35a19.33,19.33,0,0,0,.585,2.016q.231.524.544,1.184a3.423,3.423,0,0,0,.554.893,4.1,4.1,0,0,0,.833.958q-.23-.522-.489-1.17a7.033,7.033,0,0,1-.448-2.1q.007-1.29.027-1.872a5.892,5.892,0,0,1,.224-1.708,7.849,7.849,0,0,1,.763-1.759Q1622.5,2299.93,1622.774,2300.521Z" transform="translate(-1615.964 -2300.29)" fill="#13273c"/>
            </g>
          </g>
        </g>
        <g id="Group_142395" data-name="Group 142395" transform="translate(8.928 58.901)">
          <g id="Group_142394" data-name="Group 142394">
            <g id="Duplicate_Items_Folder_Symbol_4_copy_9_0_Layer0_0_MEMBER_4_MEMBER_0_FILL" data-name="Duplicate Items Folder Symbol 4 copy 9 0 Layer0 0 MEMBER 4 MEMBER 0 FILL">
              <path id="Path_103842" data-name="Path 103842" d="M1629.125,2377.855q-5.53-.168-7.475-5.68a40.189,40.189,0,0,0,15.357-.165Q1634.654,2378.024,1629.125,2377.855Z" transform="translate(-1621.65 -2372.01)" fill="#ebfcff"/>
            </g>
          </g>
        </g>
        <g id="Group_142397" data-name="Group 142397" transform="translate(7.712 48.825)">
          <g id="Group_142396" data-name="Group 142396">
            <g id="Duplicate_Items_Folder_Symbol_4_copy_9_0_Layer0_0_MEMBER_5_FILL" data-name="Duplicate Items Folder Symbol 4 copy 9 0 Layer0 0 MEMBER 5 FILL">
              <path id="Path_103843" data-name="Path 103843" d="M1620.791,2360.98l.15-.14.1-.154.137-.086.15-.141.494-.354.069-.043.124-.029.137-.085.317-.1.554-.1.582.018.724.17.1.082.112.026.363.2.548.421.282.3.085.138-.039.167-.167-.04-.1-.081-.308-.19-.544-.186a.526.526,0,0,0-.333-.078l-.389-.091-.776.054a2.009,2.009,0,0,0-.784.345l-.356.268-.163.2-.069.043-.081.1-.215.419-.078.334-.069.043-.013.055.056.014a1.891,1.891,0,0,0-.1.916l.059.249.072.193.03.124.128.206-.013.057.056.012.551.657.364.2.1.082.056.013.1.082.779.182.583.018.36-.032.124-.03c.137-.085.189-.053.155.094l-.026.112-.275.17-.261.115-.622.148-.651.024-.779-.182-.475-.229-.5-.353-.409-.507-.056-.013-.043-.068.013-.057-.056-.013-.043-.069-.073-.193-.085-.137-.158-.33-.029-.124-.017-.18a3.043,3.043,0,0,1,.035-1.4l.117-.5.1-.154A3.169,3.169,0,0,1,1620.791,2360.98Z" transform="translate(-1620.169 -2359.742)" fill="#d17578"/>
            </g>
          </g>
        </g>
        <g id="Group_142399" data-name="Group 142399" transform="translate(1.159 34.066)">
          <g id="Group_142398" data-name="Group 142398">
            <path id="Duplicate_Items_Folder_Symbol_4_copy_9_0_Layer0_0_MEMBER_6_1_STROKES" data-name="Duplicate Items Folder Symbol 4 copy 9 0 Layer0 0 MEMBER 6 1 STROKES" d="M1615.856,2342.657l-3.666-.887m16.632,3.919-2.337-.546m24.687,5.862-8.223-1.982" transform="translate(-1612.19 -2341.77)" fill="none" stroke="#13273c" stroke-width="1.3"/>
          </g>
        </g>
        <g id="Group_142401" data-name="Group 142401" transform="translate(17.811 32.93)">
          <g id="Group_142400" data-name="Group 142400">
            <path id="Duplicate_Items_Folder_Symbol_4_copy_9_0_Layer0_0_MEMBER_6_MEMBER_0_1_STROKES" data-name="Duplicate Items Folder Symbol 4 copy 9 0 Layer0 0 MEMBER 6 MEMBER 0 1 STROKES" d="M1632.747,2345.659l-.078.333a6.934,6.934,0,0,0,.9,5.435,7.093,7.093,0,0,0,4.569,3.3,6.846,6.846,0,0,0,5.448-.957,6.932,6.932,0,0,0,3.217-4.47l.04-.168a6.918,6.918,0,0,0-.939-5.266,6.846,6.846,0,0,0-4.458-3.273,7.338,7.338,0,0,0-8.7,5.067Z" transform="translate(-1632.466 -2340.386)" fill="none" stroke="#13273c" stroke-width="1.3"/>
          </g>
        </g>
        <g id="Group_142403" data-name="Group 142403" transform="translate(0.564 28.387)">
          <g id="Group_142402" data-name="Group 142402">
            <path id="Duplicate_Items_Folder_Symbol_4_copy_9_0_Layer0_0_MEMBER_6_MEMBER_1_1_STROKES" data-name="Duplicate Items Folder Symbol 4 copy 9 0 Layer0 0 MEMBER 6 MEMBER 1 1 STROKES" d="M1612.122,2339.043a10.021,10.021,0,0,0-.452,1.455,7.229,7.229,0,1,0,3.236-4.539A7.15,7.15,0,0,0,1612.122,2339.043Z" transform="translate(-1611.466 -2334.855)" fill="none" stroke="#13273c" stroke-width="1.3"/>
          </g>
        </g>
        <g id="Group_142405" data-name="Group 142405" transform="translate(5.888 33.65)">
          <g id="Group_142404" data-name="Group 142404">
            <g id="Duplicate_Items_Folder_Symbol_4_copy_9_0_Layer0_0_MEMBER_7_MEMBER_0_FILL" data-name="Duplicate Items Folder Symbol 4 copy 9 0 Layer0 0 MEMBER 7 MEMBER 0 FILL">
              <path id="Path_103844" data-name="Path 103844" d="M1618,2342.8a1.8,1.8,0,0,1,.925-1.193,2,2,0,0,1,3.027,2.117,2.134,2.134,0,0,1-.9,1.317,2.069,2.069,0,0,1-2.782-.651A2.033,2.033,0,0,1,1618,2342.8Z" transform="translate(-1617.948 -2341.264)" fill="#13273c"/>
            </g>
          </g>
        </g>
        <g id="Group_142407" data-name="Group 142407" transform="translate(21.166 38.339)">
          <g id="Group_142406" data-name="Group 142406">
            <g id="Duplicate_Items_Folder_Symbol_4_copy_9_0_Layer0_0_MEMBER_8_MEMBER_0_FILL" data-name="Duplicate Items Folder Symbol 4 copy 9 0 Layer0 0 MEMBER 8 MEMBER 0 FILL">
              <path id="Path_103845" data-name="Path 103845" d="M1636.608,2348.508a1.788,1.788,0,0,1,.924-1.193,1.941,1.941,0,0,1,2.783.651,1.87,1.87,0,0,1,.244,1.466,2.134,2.134,0,0,1-.9,1.316,2.071,2.071,0,0,1-2.782-.65A2.037,2.037,0,0,1,1636.608,2348.508Z" transform="translate(-1636.551 -2346.972)" fill="#13273c"/>
            </g>
          </g>
        </g>
      </g>
      <g id="Group_142410" data-name="Group 142410" transform="translate(100.581 132.143)">
        <g id="Group_142409" data-name="Group 142409">
          <g id="Symbol_59_0_Layer0_3_MEMBER_0_MEMBER_0_MEMBER_0_MEMBER_0_FILL" data-name="Symbol 59 0 Layer0 3 MEMBER 0 MEMBER 0 MEMBER 0 MEMBER 0 FILL">
            <path id="Path_103846" data-name="Path 103846" d="M1569.34,2463.356a4.044,4.044,0,0,0-.237,2.7l5.925,35.5a5.157,5.157,0,0,0,1.086,2.6,3.527,3.527,0,0,0,2.931,1.222l54.978-.747q1.122,0,1.3-.281a.253.253,0,0,0,.019-.211.27.27,0,0,1-.018-.046l-6.433-37.889q-.652-3.624-4.055-3.58Z" transform="translate(-1568.992 -2461.446)" fill="#dddedd"/>
            <path id="Path_103847" data-name="Path 103847" d="M1571.93,2461.9a2.709,2.709,0,0,0-2.514,1.2l55.493-.737q3.4-.045,4.054,3.58l6.433,37.889a.286.286,0,0,0,.018.046.251.251,0,0,1-.019.211l-.01.138q1.879-1.126,1.427-3.757l-5.943-35.5q-.623-3.836-4-3.782Z" transform="translate(-1569.068 -2461.191)" fill="#f6f7f6"/>
          </g>
        </g>
      </g>
      <g id="Group_142412" data-name="Group 142412" transform="translate(125.793 150.536)">
        <g id="Group_142411" data-name="Group 142411">
          <g id="Symbol_59_0_Layer0_3_MEMBER_0_MEMBER_0_MEMBER_0_MEMBER_1_FILL" data-name="Symbol 59 0 Layer0 3 MEMBER 0 MEMBER 0 MEMBER 0 MEMBER 1 FILL">
            <path id="Path_103848" data-name="Path 103848" d="M1600.373,2490.495a4.356,4.356,0,0,0,2.685,1.963,4.26,4.26,0,0,0,3.291-.4,4.323,4.323,0,0,0,2.123-2.524l-4.3-1.415,3.527-2.82a4.5,4.5,0,0,0-7.329,5.2Z" transform="translate(-1599.689 -2483.587)" fill="#ccc"/>
          </g>
        </g>
      </g>
      <g id="Group_142414" data-name="Group 142414" transform="translate(183.333 81.581)">
        <g id="Group_142413" data-name="Group 142413">
          <g id="Symbol_59_0_Layer0_3_MEMBER_0_MEMBER_0_MEMBER_1_MEMBER_0_FILL" data-name="Symbol 59 0 Layer0 3 MEMBER 0 MEMBER 0 MEMBER 1 MEMBER 0 FILL">
            <path id="Path_103849" data-name="Path 103849" d="M1687.121,2404.738q-6.406-7.515-12.442-3.983-9.445,6.077-.78,20.9l19.711,29.237a61.787,61.787,0,0,0,16.754-10.594Q1699.768,2422.148,1687.121,2404.738Z" transform="translate(-1669.753 -2399.625)" fill="#7e80ce"/>
          </g>
        </g>
      </g>
      <g id="Group_142416" data-name="Group 142416" transform="translate(165.222 122.008)">
        <g id="Group_142415" data-name="Group 142415">
          <g id="Symbol_59_0_Layer0_3_MEMBER_0_MEMBER_0_MEMBER_1_MEMBER_0_MEMBER_0_FILL" data-name="Symbol 59 0 Layer0 3 MEMBER 0 MEMBER 0 MEMBER 1 MEMBER 0 MEMBER 0 FILL">
            <path id="Path_103850" data-name="Path 103850" d="M1708.72,2454.476l-2.792-5.625a61.7,61.7,0,0,1-16.754,8.418l.452.862q1.642,3.9-2.382,5.01l-39.544,10.184,4.394,18.027,46.114-13.51q10.512-2.628,12.483-9.773Q1713.319,2462.689,1708.72,2454.476Z" transform="translate(-1647.7 -2448.851)" fill="#f8a891"/>
          </g>
        </g>
      </g>
      <g id="Group_142418" data-name="Group 142418" transform="translate(145.922 139.911)">
        <g id="Group_142417" data-name="Group 142417">
          <g id="Symbol_59_0_Layer0_3_MEMBER_0_MEMBER_0_MEMBER_1_MEMBER_0_MEMBER_0_MEMBER_0_MEMBER_0_FILL" data-name="Symbol 59 0 Layer0 3 MEMBER 0 MEMBER 0 MEMBER 1 MEMBER 0 MEMBER 0 MEMBER 0 MEMBER 0 FILL">
            <path id="Path_103851" data-name="Path 103851" d="M1641.118,2470.65l1.314,7.391a48.309,48.309,0,0,1-18.232,5.914q.7,1.929,1.478,3.9a48.116,48.116,0,0,0,2.012,4.517q1.069,2.135,2.218,4.188.9,1.642,1.889,3.244a84.1,84.1,0,0,0,14.537-3.326l11.949-4.271-4.763-17.657-1.068.247Z" transform="translate(-1624.2 -2470.65)" fill="#f8a891"/>
          </g>
        </g>
      </g>
      <g id="Group_142420" data-name="Group 142420" transform="translate(147.461 152.973)">
        <g id="Group_142419" data-name="Group 142419">
          <g id="Symbol_59_0_Layer0_3_MEMBER_0_MEMBER_0_MEMBER_1_MEMBER_0_MEMBER_0_MEMBER_0_MEMBER_1_STROKES_1_FILL" data-name="Symbol 59 0 Layer0 3 MEMBER 0 MEMBER 0 MEMBER 1 MEMBER 0 MEMBER 0 MEMBER 0 MEMBER 1 STROKES 1 FILL">
            <path id="Path_103852" data-name="Path 103852" d="M1644.294,2495.439l-.952.432-.079.009-.114.054-.193.063-.5.219-4.833,1.529-.7.162-.307.117-5.305,1.264-.317.037-.154.059-.118.014-.387.126-.03.084.084.029.163.022.316-.037.164.021,2.813-.29a3.623,3.623,0,0,1,.628-.113l.317-.037,6.288-1.78,3.1-1.607.109-.093.114-.053.293-.235c.079-.009.089-.037.031-.084-.01-.08-.038-.089-.084-.03l-.347.121m-2.144-3.919.293-.235c.079-.009.089-.037.03-.084-.01-.079-.038-.089-.084-.03l-1.259.548-.119.014-.114.053-.193.063-.456.214-4.874,1.535-6.592,1.575-.278.033-.386.125-.031.084.084.031.164.02.316-.036.163.021,2.814-.29a4.039,4.039,0,0,0,.628-.113l.316-.038.312-.076a4.457,4.457,0,0,0,.668-.119l2.732-.641.654-.237.312-.078,1.883-.7,2.5-1.295.3-.2.109-.094.114-.053m-1.657-4.9c-.01-.079-.038-.088-.083-.03l-1.3.553-.079.009-.114.055-5.522,1.81-.7.163-.307.117-5.306,1.264-.317.037-.153.058-.118.014-.387.126-.03.083.084.03.163.021.316-.037.163.022,2.813-.29a3.527,3.527,0,0,1,.628-.115l.317-.037,3.047-.678,4.346-1.592,1.995-1.117.11-.093.114-.053.293-.235C1640.542,2486.7,1640.551,2486.668,1640.493,2486.621Z" transform="translate(-1626.074 -2486.554)" fill="#d17578"/>
          </g>
        </g>
      </g>
      <g id="Group_142422" data-name="Group 142422" transform="translate(198.937 110.512)">
        <g id="Group_142421" data-name="Group 142421">
          <g id="Symbol_59_0_Layer0_3_MEMBER_0_MEMBER_0_MEMBER_2_FILL" data-name="Symbol 59 0 Layer0 3 MEMBER 0 MEMBER 0 MEMBER 2 FILL">
            <path id="Path_103853" data-name="Path 103853" d="M1715.274,2447.093l-7.271-12.24a169.862,169.862,0,0,1-19.251,11.728l6.435,12.225A66.111,66.111,0,0,0,1715.274,2447.093Z" transform="translate(-1688.752 -2434.852)" fill="#6d6fb3"/>
          </g>
        </g>
      </g>
      <g id="Group_142424" data-name="Group 142424" transform="translate(12.018 41.807)">
        <g id="Group_142423" data-name="Group 142423">
          <g id="Symbol_59_0_Layer0_4_MEMBER_0_FILL" data-name="Symbol 59 0 Layer0 4 MEMBER 0 FILL">
            <path id="Path_103854" data-name="Path 103854" d="M1522.641,2381.474q-3.553-.179-9.474-3.708-8.242-5.318-14.068-9.049-16.722-10.683-25.012-17.521l-12.932,12.992,44.907,32.232a23.6,23.6,0,0,0,14.021,4.613A38,38,0,0,1,1522.641,2381.474Z" transform="translate(-1461.155 -2351.195)" fill="#f8a891"/>
          </g>
        </g>
      </g>
      <g id="Group_142426" data-name="Group 142426" transform="translate(82.202 70.473)">
        <g id="Group_142425" data-name="Group 142425">
          <g id="Symbol_59_0_Layer0_4_MEMBER_1_FILL" data-name="Symbol 59 0 Layer0 4 MEMBER 1 FILL">
            <path id="Path_103855" data-name="Path 103855" d="M1576.333,2386.1l-29.32.7a91.2,91.2,0,0,0,.452,20.943l19.752.205q6.981,1.232,7.515,6.324Z" transform="translate(-1546.612 -2386.1)" fill="#7e80ce"/>
          </g>
        </g>
      </g>
      <g id="Group_142428" data-name="Group 142428" transform="translate(68.189 68.913)">
        <g id="Group_142427" data-name="Group 142427">
          <g id="Symbol_59_0_Layer0_4_MEMBER_1_MEMBER_0_FILL" data-name="Symbol 59 0 Layer0 4 MEMBER 1 MEMBER 0 FILL">
            <path id="Path_103856" data-name="Path 103856" d="M1545.811,2384.652l-15.6-.452a115.563,115.563,0,0,0,0,24.638l15.6.411A126.936,126.936,0,0,1,1545.811,2384.652Z" transform="translate(-1529.55 -2384.2)" fill="#6d6fb3"/>
          </g>
        </g>
      </g>
      <g id="Group_142430" data-name="Group 142430" transform="translate(0 24.35)">
        <g id="Group_142429" data-name="Group 142429">
          <g id="Symbol_59_0_Layer0_4_MEMBER_2_FILL" data-name="Symbol 59 0 Layer0 4 MEMBER 2 FILL">
            <path id="Path_103857" data-name="Path 103857" d="M1449.4,2329.939l-2.879,5.611,11.284,9.393-5.181,2.953.748,1.417-2.821,3.866.576.964-1.958,3.64,3.224,5.378,7.139.2q2.246,3.7,3.742,3.546l4.952-1.162,5.125-16.929Q1461.432,2339.3,1449.4,2329.939Z" transform="translate(-1446.521 -2329.939)" fill="#f8a891"/>
          </g>
        </g>
      </g>
      <g id="Group_142433" data-name="Group 142433" transform="translate(2.455 39.226)">
        <g id="Group_142431" data-name="Group 142431">
          <g id="Symbol_59_0_Layer0_4_MEMBER_2_MEMBER_0_FILL" data-name="Symbol 59 0 Layer0 4 MEMBER 2 MEMBER 0 FILL">
            <path id="Path_103858" data-name="Path 103858" d="M1467.173,2353.478v-.1a.079.079,0,0,0-.115,0c-.038,0-.058.015-.058.048l-.345.34-1.267,1.812a4.752,4.752,0,0,0,.518.663l.691-1.479.231-.393.345-.888m-5.238-5.383c-.077-.069-.116-.053-.116.046l-4.721,8.254a.492.492,0,0,0-.057.248l-3.108-4.327-.115,0c-.154,0-.172.045-.057.148l3.627,6.237a.511.511,0,0,0,.288.157v.051l4.606,1.473a.385.385,0,0,0,.461-.087.743.743,0,0,0,.287.058l.346.059,1.5-.008-.058.147-.345.39-.288.441-.172.194-.691,1.079-.288.341-6.965-.939-.691-.019-4.261-5.855-.115,0c-.115,0-.134.045-.057.147l.172.4,3.454,6.033a.733.733,0,0,0,.461.213l6.045.316,1.727-.1-1.324,1.212-.173.195-1.555,1.4.23.007-.345.14.115-.147-6.563-.229-3.167-4.628-.287-.308c0-.1-.038-.117-.115-.052-.115,0-.135.03-.057.1l.115.354.115.2.057.151,2.476,4.859a.555.555,0,0,0,.461.262l4.491.123.46-.038,2.245.062a.4.4,0,0,0,.346-.141l2.879-3.514.23-.193.172-.195.979-.871.172-.2.4-.339.691-.779.4-.339.057-.248c.115-.3-.019-.449-.4-.459l-1.381-.137-.461-.014,1.842-3.193a4.752,4.752,0,0,1-.518-.663l-2.3,3.23-.4.688-4.433-3.065,3.742-8.232c.076-.064.057-.1-.057-.1m-2.419,10.413-1.382-.387-.863-1.172Z" transform="translate(-1449.511 -2348.053)" fill="#d17578"/>
          </g>
        </g>
        <g id="Group_142432" data-name="Group 142432" transform="translate(15.762 7.42)">
          <g id="Symbol_59_0_Layer0_4_MEMBER_2_MEMBER_0_STROKES_1_FILL" data-name="Symbol 59 0 Layer0 4 MEMBER 2 MEMBER 0 STROKES 1 FILL">
            <path id="Path_103859" data-name="Path 103859" d="M1469.049,2357.246l-.173-.155-.173,0v.15l.058.151.346.609-.057-.052.115.253.172.2.116.2.173.2.4.361.173.2.23.156.231.206.23.156.518.264.173.054.115,0,.346.109.115,0,.172.054.807.022.115-.047a1.885,1.885,0,0,0,.633-.131l.518-.186.921-.573.864-.925.115-.2q.057-.049-.057-.152l-.115,0-.231.143-.23.094-.173.145-.345.141-.115.1-.864.376-.23.044-.172.1-.231.044-.115,0-.115.047-.863-.024-.173-.055-.23-.006-.115-.054-.057-.052-.633-.267-.173-.1-.23-.106-.172-.154-.576-.415-.058-.1-.115-.052-.691-.619-.115-.052Z" transform="translate(-1468.703 -2357.087)" fill="#d17578"/>
          </g>
        </g>
      </g>
    </g>
  </g>
</svg>
