<svg xmlns="http://www.w3.org/2000/svg" width="22.107" height="22.095" viewBox="0 0 22.107 22.095">
  <g id="Group_173787" data-name="Group 173787" transform="translate(-0.197 -0.2)">
    <path id="Path_121694" data-name="Path 121694" d="M21.733,12.156a.933.933,0,0,0-.914-1.113H9.779a.933.933,0,0,1-.913-.747L8.607,9a.933.933,0,0,0-.913-.747H1.681A.933.933,0,0,0,.768,9.364L3.188,21.5a.933.933,0,0,0,.913.747H18.958a.933.933,0,0,0,.913-.747C20.254,19.583,21.278,14.428,21.733,12.156Z" transform="translate(0 -0.5)" fill="none" stroke="#0095ff" stroke-linecap="round" stroke-linejoin="round" stroke-width="1.1"/>
    <path id="Path_121695" data-name="Path 121695" d="M4.5,4.95l.019-3.267A.933.933,0,0,1,5.452.75h12.1a.933.933,0,0,1,.933.933L18.5,7.75" transform="translate(-0.25)" fill="none" stroke="#0095ff" stroke-linecap="round" stroke-linejoin="round" stroke-width="1.1"/>
    <line id="Line_88870" data-name="Line 88870" x2="7.689" y2="0.007" transform="translate(7.061 3.543)" fill="none" stroke="#0095ff" stroke-linecap="round" stroke-linejoin="round" stroke-width="1.1"/>
    <line id="Line_88871" data-name="Line 88871" x2="3.5" transform="translate(11.25 6.35)" fill="none" stroke="#0095ff" stroke-linecap="round" stroke-linejoin="round" stroke-width="1.1"/>
  </g>
</svg>
