<svg xmlns="http://www.w3.org/2000/svg" width="22.1" height="22.1" viewBox="0 0 22.1 22.1">
  <g id="Group_173789" data-name="Group 173789" transform="translate(-0.2 -0.2)">
    <path id="Path_121696" data-name="Path 121696" d="M16.85,22.45a5.6,5.6,0,1,0-5.6-5.6A5.6,5.6,0,0,0,16.85,22.45Z" transform="translate(-0.7 -0.7)" fill="none" stroke="#0095ff" stroke-linecap="round" stroke-linejoin="round" stroke-width="1.1"/>
    <path id="Path_121697" data-name="Path 121697" d="M19.725,17.073H17.25V14.6" transform="translate(-1.1 -0.923)" fill="none" stroke="#0095ff" stroke-linecap="round" stroke-linejoin="round" stroke-width="1.1"/>
    <path id="Path_121698" data-name="Path 121698" d="M5.25,10.511h4.9" transform="translate(-0.3 -0.651)" fill="none" stroke="#0095ff" stroke-linecap="round" stroke-linejoin="round" stroke-width="1.1"/>
    <path id="Path_121699" data-name="Path 121699" d="M5.25,14.261h2.8" transform="translate(-0.3 -0.901)" fill="none" stroke="#0095ff" stroke-linecap="round" stroke-linejoin="round" stroke-width="1.1"/>
    <path id="Path_121700" data-name="Path 121700" d="M5.25,18.011h2.8" transform="translate(-0.3 -1.151)" fill="none" stroke="#0095ff" stroke-linecap="round" stroke-linejoin="round" stroke-width="1.1"/>
    <path id="Path_121701" data-name="Path 121701" d="M9.15,21.75h-7a1.4,1.4,0,0,1-1.4-1.4V5.65a1.4,1.4,0,0,1,1.4-1.4h3.5a3.5,3.5,0,1,1,7,0h3.5a1.4,1.4,0,0,1,1.4,1.4v2.1" fill="none" stroke="#0095ff" stroke-linecap="round" stroke-linejoin="round" stroke-width="1.1"/>
    <g id="Group_173788" data-name="Group 173788" transform="translate(8.8 3.56)">
      <path id="Path_121702" data-name="Path 121702" d="M9.725,4.461a.35.35,0,1,1,0-.7" transform="translate(-9.375 -3.761)" fill="none" stroke="#0095ff" stroke-width="1.1"/>
      <path id="Path_121703" data-name="Path 121703" d="M9.75,4.461a.35.35,0,0,0,0-.7" transform="translate(-9.4 -3.761)" fill="none" stroke="#0095ff" stroke-width="1.1"/>
    </g>
  </g>
</svg>
