<svg xmlns="http://www.w3.org/2000/svg" width="21" height="21" viewBox="0 0 21 21">
  <g id="Group_173720" data-name="Group 173720" transform="translate(1.5 1.499)">
    <path id="Union_20" data-name="Union 20" d="M12.674,21a.5.5,0,0,1-.484-.626,4.545,4.545,0,0,1,3.8-3.36,2.457,2.457,0,1,1,1.19,0,4.545,4.545,0,0,1,3.8,3.36A.5.5,0,0,1,20.5,21Zm.711-1h6.4a3.544,3.544,0,0,0-6.4,0ZM15.13,14.63a1.457,1.457,0,1,0,1.457-1.457A1.458,1.458,0,0,0,15.13,14.63ZM.5,21a.5.5,0,0,1-.484-.626,4.546,4.546,0,0,1,3.8-3.36,2.456,2.456,0,1,1,1.19,0,4.546,4.546,0,0,1,3.8,3.36A.5.5,0,0,1,8.326,21Zm.711-1h6.4a3.544,3.544,0,0,0-6.4,0ZM2.957,14.63a1.456,1.456,0,1,0,1.456-1.457A1.458,1.458,0,0,0,2.957,14.63ZM7.7,16.981a.5.5,0,0,1,.375-.927,6.425,6.425,0,0,0,4.843,0,.5.5,0,0,1,.375.927,7.462,7.462,0,0,1-5.593,0Zm9.639-5.55a.5.5,0,0,1-.434-.559A6.431,6.431,0,0,0,14.132,4.73a.5.5,0,1,1,.562-.827A7.459,7.459,0,0,1,17.9,11a.5.5,0,0,1-.5.438A.517.517,0,0,1,17.342,11.431ZM3.1,11A7.457,7.457,0,0,1,6.306,3.9a.5.5,0,0,1,.562.827,6.43,6.43,0,0,0-2.777,6.142.5.5,0,0,1-.434.559.515.515,0,0,1-.062,0A.5.5,0,0,1,3.1,11ZM6.587,8.826A.5.5,0,0,1,6.1,8.2,4.546,4.546,0,0,1,9.9,4.84a2.457,2.457,0,1,1,1.19,0A4.546,4.546,0,0,1,14.9,8.2a.5.5,0,0,1-.484.626Zm.711-1h6.4a3.544,3.544,0,0,0-6.4,0ZM9.044,2.456A1.456,1.456,0,1,0,10.5,1,1.458,1.458,0,0,0,9.044,2.456Z" transform="translate(-1.501 -1.499)" fill="#ffffff"/>
  </g>
</svg>
