<svg xmlns="http://www.w3.org/2000/svg" width="22.32" height="22.096" viewBox="0 0 22.32 22.096">
  <g id="Group_173798" data-name="Group 173798" transform="translate(-0.2 -0.204)">
    <path id="Path_121726" data-name="Path 121726" d="M20.649,2.254l2.1,2.8h-7" transform="translate(-1 -0.1)" fill="none" stroke="#0095ff" stroke-linecap="round" stroke-linejoin="round" stroke-width="1.1"/>
    <line id="Line_88889" data-name="Line 88889" y1="2.8" x2="2.1" transform="translate(19.65 4.954)" fill="none" stroke="#0095ff" stroke-linecap="round" stroke-linejoin="round" stroke-width="1.1"/>
    <circle id="Ellipse_8214" data-name="Ellipse 8214" cx="2.8" cy="2.8" r="2.8" transform="translate(3.55 0.754)" fill="none" stroke="#0095ff" stroke-linejoin="round" stroke-width="1.1"/>
    <path id="Path_121727" data-name="Path 121727" d="M6.35,7.5a5.6,5.6,0,0,0-5.6,5.6v2.1a1.4,1.4,0,0,0,1.4,1.4h1.4v4.2a1.4,1.4,0,0,0,1.4,1.4h2.8a1.4,1.4,0,0,0,1.4-1.4V16.6h1.4a1.4,1.4,0,0,0,1.4-1.4V13.1a5.6,5.6,0,0,0-5.6-5.6Z" transform="translate(0 -0.45)" fill="none" stroke="#0095ff" stroke-linejoin="round" stroke-width="1.1"/>
  </g>
</svg>
