<svg xmlns="http://www.w3.org/2000/svg" width="22.1" height="22.1" viewBox="0 0 22.1 22.1">
  <g id="Group_173790" data-name="Group 173790" transform="translate(-0.2 -0.21)">
    <path id="Path_121704" data-name="Path 121704" d="M16.35,6.359V21.433a.7.7,0,0,1-.7.7H4.45a.7.7,0,0,1-.7-.7V6.733" transform="translate(-0.2 -0.373)" fill="none" stroke="#0095ff" stroke-linecap="round" stroke-linejoin="round" stroke-width="1.1"/>
    <path id="Path_121705" data-name="Path 121705" d="M20.25,19.51l1.4,2.8,1.4-2.8v-9.1a1.4,1.4,0,0,0-1.4-1.4h0a1.4,1.4,0,0,0-1.4,1.4Z" transform="translate(-1.3 -0.55)" fill="none" stroke="#0095ff" stroke-linecap="round" stroke-linejoin="round" stroke-width="1.1"/>
    <path id="Path_121706" data-name="Path 121706" d="M3.75.76h0a2.8,2.8,0,0,1,2.8,2.8h0a2.8,2.8,0,0,1-2.8,2.8h11.2a2.8,2.8,0,0,0,2.8-2.8h0a2.8,2.8,0,0,0-2.8-2.8H3.75Z" transform="translate(-0.2)" fill="none" stroke="#0095ff" stroke-linecap="round" stroke-linejoin="round" stroke-width="1.1"/>
    <path id="Path_121707" data-name="Path 121707" d="M3.55.76h0a2.8,2.8,0,0,0-2.8,2.8v11.2" transform="translate(0)" fill="none" stroke="#0095ff" stroke-linecap="round" stroke-linejoin="round" stroke-width="1.1"/>
    <path id="Path_121708" data-name="Path 121708" d="M9,11.21l1.4,1.4,2.1-2.1" transform="translate(-0.55 -0.65)" fill="none" stroke="#0095ff" stroke-linecap="round" stroke-linejoin="round" stroke-width="1.1"/>
    <path id="Path_121709" data-name="Path 121709" d="M9,16.46l1.4,1.4,2.1-2.1" transform="translate(-0.55 -1)" fill="none" stroke="#0095ff" stroke-linecap="round" stroke-linejoin="round" stroke-width="1.1"/>
  </g>
</svg>
