<svg xmlns="http://www.w3.org/2000/svg" width="788.254" height="511.111" viewBox="0 0 788.254 511.111">
  <g id="Group_149593" data-name="Group 149593" transform="translate(10972.518 16690)">
    <g id="Group_149589" data-name="Group 149589" transform="translate(-2808 281)">
      <g id="Rectangle_36473" data-name="Rectangle 36473" transform="translate(-7875 -16968)" fill="rgba(255,255,255,0.2)" stroke="rgba(255,255,255,0.5)" stroke-width="3">
        <rect width="492" height="322" rx="11" stroke="none"/>
        <rect x="-1.5" y="-1.5" width="495" height="325" rx="12.5" fill="none"/>
      </g>
      <path id="Path_103743" data-name="Path 103743" d="M868.527,1629.931V1389.1H409.55v240.832Z" transform="translate(-8267.769 -18294.826)" fill="#fff" opacity="0.2"/>
      <circle id="Ellipse_8150" data-name="Ellipse 8150" cx="41" cy="41" r="41" transform="translate(-7825 -16938)" fill="#a0b8c4"/>
      <path id="Path_103748" data-name="Path 103748" d="M828.574,1616.337V1597.57H778.342v18.766h50.232m0-74.824v-18.766H670.316v18.766H828.574m0,37.484v-18.766h-80V1579h80m0-94.311H680.863V1503.4H828.574v-18.718M651.1,1447.249v18.766H828.574v-18.766Z" transform="translate(-8276.651 -18297.016)" fill="#fff" opacity="0.3"/>
      <path id="Union_25" data-name="Union 25" d="M150.048,245.52a2,2,0,0,1-2-2V224.754a2,2,0,0,1,2-2H379.825a2,2,0,0,1,2,2V243.52a2,2,0,0,1-2,2Zm227.777-4V226.754H329.594V241.52Zm-227.777-33.34a2,2,0,0,1-2-2V187.414a2,2,0,0,1,2-2H379.825a2,2,0,0,1,2,2V206.18a2,2,0,0,1-2,2Zm227.777-4V189.414h-78V204.18ZM150.048,170.7a2,2,0,0,1-2-2V149.93a2,2,0,0,1,2-2H379.825a2,2,0,0,1,2,2V168.7a2,2,0,0,1-2,2Zm227.777-4V151.93H221.567V166.7ZM0,155.092v-9.375H37.22v9.375Zm0-15.824v-9.375H27.241v.238H41.02v9.138Zm150.048-6.682a2,2,0,0,1-2-2V111.869a2,2,0,0,1,2-2H379.825a2,2,0,0,1,2,2v18.718a2,2,0,0,1-2,2Zm227.777-4V113.869H232.115v14.718ZM0,124.632v-9.376H27.241v9.376ZM0,110V100.62H106.669V110ZM0,95.358V85.982H106.669v9.375ZM150.048,95.2a2,2,0,0,1-2-2V74.433a2,2,0,0,1,2-2H379.825a2,2,0,0,1,2,2V93.2a2,2,0,0,1-2,2Zm227.777-4V76.433H202.351V91.2ZM20.286,60.692a31.1,31.1,0,0,1,6.888-18.962q6.888-8.564,16.635-8.565t16.707,8.565a31.716,31.716,0,0,1,6.961,19.255,39.351,39.351,0,0,1-23.449,7.322A38.968,38.968,0,0,1,20.286,60.692Zm129.778-1.134V40.807H379.832V59.558ZM348.711,32.3V25.576h30.765V32.3Zm-39.318,0V25.576h30.766V32.3Zm-40.663,0V25.576h30.765V32.3Zm-39,0V25.576h30.766V32.3Zm-38.684,0V25.576H221.81V32.3Zm-38.763,0V25.576h30.766V32.3ZM32.523,24.233a13.792,13.792,0,0,1-4.1-10.03A14.011,14.011,0,0,1,42.635,0a13.815,13.815,0,0,1,10.04,4.1,13.914,13.914,0,0,1,4.177,10.1,13.673,13.673,0,0,1-4.177,10.03A13.7,13.7,0,0,1,42.635,28.4,13.94,13.94,0,0,1,32.523,24.233Z" transform="translate(-7827.902 -16924.199)" fill="#fff" stroke="rgba(0,0,0,0)" stroke-width="1" opacity="0.8"/>
    </g>
    <g id="Group_149586" data-name="Group 149586" transform="translate(-10376.423 -16444.781)">
      <g id="Group_142259" data-name="Group 142259">
        <g id="Group_142257" data-name="Group 142257">
          <g id="Symbol_78_0_Layer0_0_MEMBER_1_MEMBER_1_MEMBER_1_FILL" data-name="Symbol 78 0 Layer0 0 MEMBER 1 MEMBER 1 MEMBER 1 FILL">
            <path id="Path_103750" data-name="Path 103750" d="M749.913,1475.94a78.941,78.941,0,0,0-21.678,84.886,78.151,78.151,0,0,0,111.195,43.863l1.311-.4a3.241,3.241,0,0,1,2.623,1.092l38.474,42.516q5.866,6.443,13.152,7.754a15.168,15.168,0,0,0,13.116-3.531l1.312-1.274a14.751,14.751,0,0,0,4.955-12.7,23.282,23.282,0,0,0-6.485-13.832l-38.364-42.479a3.068,3.068,0,0,1-.838-2.621,3.557,3.557,0,0,1,.474-1.456,75.854,75.854,0,0,0,13.262-48.886q-1.785-26.9-20.33-47.357a79.416,79.416,0,0,0-112.178-5.57m13.881,15.4a58.215,58.215,0,0,1,42.3-15.106,55.971,55.971,0,0,1,21.824,5.424,57.469,57.469,0,0,1,18.8,13.723,59.063,59.063,0,0,1,15.01,42.334,58.535,58.535,0,0,1-61.536,55.584,59.413,59.413,0,0,1-21.86-5.424,56.049,56.049,0,0,1-18.727-13.8,58.308,58.308,0,0,1-11.841-19.911,61.362,61.362,0,0,1-3.279-22.35,60.212,60.212,0,0,1,5.465-21.8A58.637,58.637,0,0,1,763.794,1491.337Z" transform="translate(-723.764 -1455.438)" fill="#618ea8"/>
            <path id="Path_103751" data-name="Path 103751" d="M791.531,1487.134a57.027,57.027,0,0,0-20.038,11.939,58.633,58.633,0,0,0-13.845,18.674,60.212,60.212,0,0,0-5.465,21.8,61.356,61.356,0,0,0,3.279,22.35,58.306,58.306,0,0,0,11.841,19.911,56.043,56.043,0,0,0,18.727,13.8,59.406,59.406,0,0,0,21.86,5.424,58.457,58.457,0,0,0,61.536-55.583,59.066,59.066,0,0,0-15.011-42.334,57.468,57.468,0,0,0-18.8-13.723,55.962,55.962,0,0,0-21.823-5.424A57.5,57.5,0,0,0,791.531,1487.134Z" transform="translate(-731.462 -1463.174)" fill="#dfe8ed"/>
          </g>
        </g>
        <g id="Group_142258" data-name="Group 142258">
          <path id="Symbol_78_0_Layer0_0_MEMBER_1_MEMBER_1_MEMBER_1_1_STROKES" data-name="Symbol 78 0 Layer0 0 MEMBER 1 MEMBER 1 MEMBER 1 1 STROKES" d="M862.091,1481.509a79.341,79.341,0,0,0-133.856,79.317,78.151,78.151,0,0,0,111.195,43.863l1.311-.4a3.241,3.241,0,0,1,2.623,1.092l38.474,42.516q5.866,6.443,13.152,7.754a15.168,15.168,0,0,0,13.116-3.531l1.312-1.274a14.751,14.751,0,0,0,4.955-12.7,23.282,23.282,0,0,0-6.485-13.832l-38.364-42.479a3.068,3.068,0,0,1-.838-2.621,3.557,3.557,0,0,1,.474-1.456,75.854,75.854,0,0,0,13.262-48.886Q880.635,1501.967,862.091,1481.509Z" transform="translate(-723.764 -1455.438)" fill="none" stroke="#84a9be" stroke-linecap="round" stroke-linejoin="round" stroke-width="3"/>
        </g>
      </g>
      <g id="Group_142261" data-name="Group 142261" transform="translate(25.584 54.779)">
        <g id="Group_142260" data-name="Group 142260">
          <g id="Symbol_78_0_Layer0_0_MEMBER_1_MEMBER_1_MEMBER_1_MEMBER_0_FILL" data-name="Symbol 78 0 Layer0 0 MEMBER 1 MEMBER 1 MEMBER 1 MEMBER 0 FILL">
            <path id="Path_103752" data-name="Path 103752" d="M770.376,1554.43l-.071-.306-.826-10.757-.069-.245-.127-.12-.06.063-.177.253-1.171,2.008-.056.186-.117.189-2.068,4.931-1.167,4.164-.113.313.006.183-.06.064.009.246-.162.744-.753,5.569.013.431-.094.927a49.6,49.6,0,0,0,.242,7.817l1.419,8.028.065.121,0,.123.9,3.054,0,.123.066.121,0,.123.13.243.139.489,2.269,5.6,2.816,5.273,3.487,5.068,4.6,5.219,0,.062,2.412,2.205.32.359,8.005,5.607,8.187,3.505,2.921.711c.123,0,.184-.025.183-.067l0-.123-6.32-6.952a1.814,1.814,0,0,1-.447-.479l-4.1-5.049-.2-.364-1.734-2.226-.2-.364-.256-.3-.454-.726-.256-.3-.065-.12-.064-.06-.775-1.147-.063-.059,0-.062-.064-.06-4.55-7.561-.258-.361-2.893-5.826-.137-.427-3.273-8.156-.066-.122,0-.122-1.71-5.431-.075-.429-.273-.854q-1.127-4.524-1.5-6.669l-1.2-6.865-.007-.246-.059.063Z" transform="translate(-763.251 -1543.003)" fill="#618ea8"/>
          </g>
        </g>
      </g>
    </g>
    <g id="Group_149584" data-name="Group 149584" transform="translate(-10913.178 -16755.125)">
      <g id="Group_142263" data-name="Group 142263" transform="translate(8.083 135.273)">
        <g id="Group_142262" data-name="Group 142262">
          <g id="Symbol_78_0_Layer0_0_MEMBER_1_MEMBER_2_MEMBER_0_FILL" data-name="Symbol 78 0 Layer0 0 MEMBER 1 MEMBER 2 MEMBER 0 FILL">
            <path id="Path_103753" data-name="Path 103753" d="M248.6,1711.849H225.8l-11.148,65.868h11.8l22.144-65.868m71.475,0h-22.8l-11.147,65.868h11.8Z" transform="translate(-152.402 -1350.389)" fill="#173f5f"/>
            <path id="Path_103754" data-name="Path 103754" d="M545.08,1553.12a25.541,25.541,0,0,1,11.248-3.074l-82.925.05,12.308,78.567L330.1,1626.95q.1,1.009.252,1.965.454,2.922.858,5.9a423.492,423.492,0,0,1,2.926,46.415l181.841-.6q11.5,0,11.5-10.936v-29.835q0-10.935-11.5-10.936H513.3q7.616-40.015,17.4-60.123,5.247-10.835,14.376-15.673M226.7,1371.14q-11.2-17.337-21.639-17.79a12.715,12.715,0,0,0-4.742.705q-9.432,3.024-13.468,17.084-11.9,41.173,22.3,176.235-13.922.1-27.944.3a27.562,27.562,0,0,0-18.26,8.063A32.886,32.886,0,0,0,153,1579.174a131.121,131.121,0,0,0,1.614,24.593q1.866,12.247,4.994,24.493a226.013,226.013,0,0,0,6.961,22.83q4.187,11.54,9.382,22.527a193.989,193.989,0,0,0,12.005,21.267,72.234,72.234,0,0,0,9.483,11.642q8.373,8.617,13.165,8.164h94.779q-5.7-.454-10.29-7.156a383.533,383.533,0,0,1-24.918-44.8q-13.518-28.322-18.462-55.134-4.994-27.315.757-43.542,6.2-17.286,23.4-16.883a2.136,2.136,0,0,1,.5.05,38.658,38.658,0,0,1,6.961.907Q253.076,1412.313,226.7,1371.14Z" transform="translate(-152.947 -1353.229)" fill="#2d8179"/>
            <path id="Path_103755" data-name="Path 103755" d="M555.485,1548.522a25.54,25.54,0,0,0-11.248,3.075q-9.129,4.837-14.376,15.673-9.786,20.108-17.4,60.123h2.673q11.5,0,11.5,10.936v29.834q0,10.935-11.5,10.936l-181.841.6a423.389,423.389,0,0,0-2.926-46.415q-.4-2.974-.857-5.9-.151-.957-.252-1.966-11.1-70.857-46.759-78.819a38.7,38.7,0,0,0-6.961-.907,2.136,2.136,0,0,0-.5-.05q-17.2-.4-23.4,16.882-5.75,16.227-.757,43.542,4.944,26.81,18.462,55.134a383.486,383.486,0,0,0,24.918,44.8q4.59,6.7,10.29,7.156h217.4q22.547-.4,31.425-27.315l15.284-46.616q26.633-79.272-2.825-89.151a28.549,28.549,0,0,0-8.424-1.563A18.51,18.51,0,0,0,555.485,1548.522Z" transform="translate(-152.103 -1351.706)" fill="#39a298"/>
            <path id="Path_103756" data-name="Path 103756" d="M204.6,1353.35q10.441.454,21.639,17.79,26.38,41.173,56.646,176.991,35.663,7.963,46.759,78.819l155.611,1.714L472.948,1550.1l-12.358-78.819Q444.8,1396.54,427.7,1371.14q-7.566-11.138-15.334-12.8Q311.737,1352.443,204.6,1353.35Z" transform="translate(-152.491 -1353.229)" fill="#3cb9ad"/>
          </g>
        </g>
      </g>
      <g id="Group_142265" data-name="Group 142265" transform="translate(259.132 496.734)">
        <g id="Group_142264" data-name="Group 142264">
          <g id="Symbol_78_0_Layer0_0_MEMBER_1_MEMBER_2_MEMBER_0_MEMBER_0_FILL" data-name="Symbol 78 0 Layer0 0 MEMBER 1 MEMBER 2 MEMBER 0 MEMBER 0 FILL">
            <path id="Path_103757" data-name="Path 103757" d="M424.6,1711.849H401.8l22.144,65.868h11.8L424.6,1711.849m71.021,0h-22.8l22.144,65.868h11.8Z" transform="translate(-401.8 -1711.849)" fill="#173f5f"/>
          </g>
        </g>
      </g>
      <g id="Group_142267" data-name="Group 142267" transform="translate(262.774 554.379)">
        <g id="Group_142266" data-name="Group 142266">
          <g id="Symbol_78_0_Layer0_0_MEMBER_1_MEMBER_2_MEMBER_1_MEMBER_0_MEMBER_0_MEMBER_0_FILL" data-name="Symbol 78 0 Layer0 0 MEMBER 1 MEMBER 2 MEMBER 1 MEMBER 0 MEMBER 0 MEMBER 0 FILL">
            <path id="Path_103758" data-name="Path 103758" d="M466.583,1781.064q.118-2.175.161-4.5a55.73,55.73,0,0,1-12.192.353q-9.329-.709-14.512-.883a123.555,123.555,0,0,1-21.812-3.066q-5.213-1.133-8.761-2.223-3.591-1.116-3.9-1.7-.1,3.306-.16,6.985a69.483,69.483,0,0,0,18.294,6.61,86.992,86.992,0,0,0,17.65,1.9A90.165,90.165,0,0,0,466.583,1781.064Z" transform="translate(-405.41 -1769.042)" fill="#9cc2d9"/>
          </g>
        </g>
      </g>
      <g id="Group_142269" data-name="Group 142269" transform="translate(263.355 538.448)">
        <g id="Group_142268" data-name="Group 142268">
          <g id="Symbol_78_0_Layer0_0_MEMBER_1_MEMBER_2_MEMBER_1_MEMBER_0_MEMBER_0_MEMBER_1_FILL" data-name="Symbol 78 0 Layer0 0 MEMBER 1 MEMBER 2 MEMBER 1 MEMBER 0 MEMBER 0 MEMBER 1 FILL">
            <path id="Path_103759" data-name="Path 103759" d="M435.106,1779.135q.794,0,1.391-.035a164.762,164.762,0,0,0,29.725-2.392.174.174,0,0,0,.149-.107c.033-.133,0-.212-.1-.239q-4.773-5.768-14.267-11.153Q439.977,1768.53,435.106,1779.135Z" transform="translate(-405.729 -1753.14)" fill="#d4e7f7"/>
            <path id="Path_103760" data-name="Path 103760" d="M441.029,1759.733l-29.775-6.5q-5.776,15.908-5.219,16.686a21.927,21.927,0,0,0,2.982,2.8,18.623,18.623,0,0,0,5.915,3.256.846.846,0,0,0,.1.043,43.5,43.5,0,0,0,5.169,1.4q2.931.581,5.717.972,3.308.476,6.412.686,1.79.135,3.033.157,4.871-10.605,16.9-13.926A121.642,121.642,0,0,0,441.029,1759.733Z" transform="translate(-405.986 -1753.236)" fill="#c99379"/>
          </g>
        </g>
      </g>
      <g id="Group_142271" data-name="Group 142271" transform="translate(210.557 375.531)">
        <g id="Group_142270" data-name="Group 142270">
          <g id="Symbol_78_0_Layer0_0_MEMBER_1_MEMBER_2_MEMBER_1_MEMBER_0_MEMBER_1_MEMBER_0_FILL" data-name="Symbol 78 0 Layer0 0 MEMBER 1 MEMBER 2 MEMBER 1 MEMBER 0 MEMBER 1 MEMBER 0 FILL">
            <path id="Path_103761" data-name="Path 103761" d="M489.64,1656.711q20.176-40.871,2.068-46.515T427.4,1599.411q-45.9-5.14-70.466-7.811l-3.279,43.341Z" transform="translate(-353.65 -1591.599)" fill="#211e49"/>
          </g>
        </g>
      </g>
      <g id="Group_142273" data-name="Group 142273" transform="translate(267.152 422.601)">
        <g id="Group_142272" data-name="Group 142272">
          <g id="Symbol_78_0_Layer0_0_MEMBER_1_MEMBER_2_MEMBER_1_MEMBER_0_MEMBER_1_MEMBER_1_FILL" data-name="Symbol 78 0 Layer0 0 MEMBER 1 MEMBER 2 MEMBER 1 MEMBER 0 MEMBER 1 MEMBER 1 FILL">
            <path id="Path_103762" data-name="Path 103762" d="M474.769,1704.167q11.652-35.277,19.47-59.165l-46.356-6.7L409.75,1756.73q21.387,12.4,44.136,10.986Q461.906,1742.922,474.769,1704.167Z" transform="translate(-409.75 -1638.299)" fill="#211e49"/>
          </g>
        </g>
      </g>
      <g id="Group_142275" data-name="Group 142275" transform="translate(197.028 208.703)">
        <g id="Group_142274" data-name="Group 142274">
          <g id="Symbol_78_0_Layer0_0_MEMBER_1_MEMBER_2_MEMBER_1_MEMBER_0_MEMBER_2_MEMBER_0_MEMBER_0_FILL" data-name="Symbol 78 0 Layer0 0 MEMBER 1 MEMBER 2 MEMBER 1 MEMBER 0 MEMBER 2 MEMBER 0 MEMBER 0 FILL">
            <path id="Path_103763" data-name="Path 103763" d="M377.316,1476.326l-5.149-50.244-31.928,2.077,5.148,50.244Z" transform="translate(-340.239 -1426.082)" fill="#c99379"/>
          </g>
        </g>
      </g>
      <g id="Group_142277" data-name="Group 142277" transform="translate(256.752 247.072)">
        <g id="Group_142276" data-name="Group 142276">
          <g id="Symbol_78_0_Layer0_0_MEMBER_1_MEMBER_2_MEMBER_1_MEMBER_0_MEMBER_2_MEMBER_0_MEMBER_1_MEMBER_0_FILL" data-name="Symbol 78 0 Layer0 0 MEMBER 1 MEMBER 2 MEMBER 1 MEMBER 0 MEMBER 2 MEMBER 0 MEMBER 1 MEMBER 0 FILL">
            <path id="Path_103764" data-name="Path 103764" d="M399.5,1480.781a37,37,0,0,0,.555,8.97,270.194,270.194,0,0,0,9.735,49.136,11.8,11.8,0,0,0,2.169,5.392,12.394,12.394,0,0,0,7.919,5.191,11.623,11.623,0,0,0,9.079-1.613,10.672,10.672,0,0,0,4.994-7.458,11.994,11.994,0,0,0,.151-2.872l.757-.151q-9.786-46.667-14.426-73.226Z" transform="translate(-399.44 -1464.149)" fill="#cd4050"/>
          </g>
        </g>
      </g>
      <g id="Group_142279" data-name="Group 142279" transform="translate(269.95 309.644)">
        <g id="Group_142278" data-name="Group 142278">
          <g id="Symbol_78_0_Layer0_0_MEMBER_1_MEMBER_2_MEMBER_1_MEMBER_0_MEMBER_2_MEMBER_0_MEMBER_1_MEMBER_1_FILL" data-name="Symbol 78 0 Layer0 0 MEMBER 1 MEMBER 2 MEMBER 1 MEMBER 0 MEMBER 2 MEMBER 0 MEMBER 1 MEMBER 1 FILL">
            <path id="Path_103765" data-name="Path 103765" d="M432.517,1526.231l-19.994,18.3a356.94,356.94,0,0,0,30.426,29.28l18.511-17.348Z" transform="translate(-412.523 -1526.231)" fill="#cd4050"/>
          </g>
        </g>
      </g>
      <g id="Group_142281" data-name="Group 142281" transform="translate(155.18 230.743)">
        <g id="Group_142280" data-name="Group 142280">
          <g id="Symbol_78_0_Layer0_0_MEMBER_1_MEMBER_2_MEMBER_1_MEMBER_0_MEMBER_2_MEMBER_0_MEMBER_2_FILL" data-name="Symbol 78 0 Layer0 0 MEMBER 1 MEMBER 2 MEMBER 1 MEMBER 0 MEMBER 2 MEMBER 0 MEMBER 2 FILL">
            <path id="Path_103766" data-name="Path 103766" d="M301.07,1488.72q2.674,12.2,9.18,35.781,0,.05,12.005,43.189,7.264,25.853,10.593,39.46l82.27-5.342q.605-13.86,2.421-40.317,3.128-43.693,3.127-44.147,1.563-24.14,1.715-36.537.2-15.572-1.664-17.437l-46.608-15.421q-.757,4.637-1.917,12.7-1.109,7.51-2.169,13.96a164.262,164.262,0,0,1-27.944-24.594L299.2,1471.283Q297.741,1473.35,301.07,1488.72Z" transform="translate(-298.757 -1447.949)" fill="#f64d60"/>
          </g>
        </g>
      </g>
      <g id="Group_142283" data-name="Group 142283" transform="translate(199.299 232.948)">
        <g id="Group_142282" data-name="Group 142282">
          <g id="Symbol_78_0_Layer0_0_MEMBER_1_MEMBER_2_MEMBER_1_MEMBER_0_MEMBER_2_MEMBER_0_MEMBER_3_FILL" data-name="Symbol 78 0 Layer0 0 MEMBER 1 MEMBER 2 MEMBER 1 MEMBER 0 MEMBER 2 MEMBER 0 MEMBER 3 FILL">
            <path id="Path_103767" data-name="Path 103767" d="M351.985,1459.638q-5.694-5.237-9.494-9.5,2.854,9.87,4.453,16.324.725,2.966,3.365,14.541,5.063-4.389,6.9-6.008,2.924-2.56,6.071-5.6Q357.251,1464.485,351.985,1459.638Z" transform="translate(-342.491 -1450.136)" fill="#cd4050"/>
          </g>
        </g>
      </g>
      <g id="Group_142285" data-name="Group 142285" transform="translate(228.215 230.868)">
        <g id="Group_142284" data-name="Group 142284">
          <g id="Symbol_78_0_Layer0_0_MEMBER_1_MEMBER_2_MEMBER_1_MEMBER_0_MEMBER_2_MEMBER_0_MEMBER_4_FILL" data-name="Symbol 78 0 Layer0 0 MEMBER 1 MEMBER 2 MEMBER 1 MEMBER 0 MEMBER 2 MEMBER 0 MEMBER 4 FILL">
            <path id="Path_103768" data-name="Path 103768" d="M374.231,1448.072q-.743,5.383-1.489,10.248-1.433,9.359-1.589,10.368,1.468,1.386,4.9,4.548,2.946,2.708,6.033,5.7-1.4-6.45-3.754-15.176Q375.407,1452.926,374.231,1448.072Z" transform="translate(-371.153 -1448.072)" fill="#cd4050"/>
          </g>
        </g>
      </g>
      <g id="Group_142287" data-name="Group 142287" transform="translate(226.747 257.487)">
        <g id="Group_142286" data-name="Group 142286">
          <g id="Symbol_78_0_Layer0_0_MEMBER_1_MEMBER_2_MEMBER_1_MEMBER_0_MEMBER_2_MEMBER_0_MEMBER_5_FILL" data-name="Symbol 78 0 Layer0 0 MEMBER 1 MEMBER 2 MEMBER 1 MEMBER 0 MEMBER 2 MEMBER 0 MEMBER 5 FILL">
            <path id="Path_103769" data-name="Path 103769" d="M370.391,1474.8a.383.383,0,0,0-.121-.234.4.4,0,0,0-.267-.078.315.315,0,0,0-.231.112.348.348,0,0,0-.072.246l13.19,128.723a.4.4,0,0,0,.122.249.342.342,0,0,0,.251.081.368.368,0,0,0,.247-.113.374.374,0,0,0,.071-.262Z" transform="translate(-369.698 -1474.483)" fill="#cd4050"/>
          </g>
        </g>
      </g>
      <g id="Group_142289" data-name="Group 142289" transform="translate(182.806 190.823)">
        <g id="Group_142288" data-name="Group 142288">
          <g id="Symbol_78_0_Layer0_0_MEMBER_1_MEMBER_2_MEMBER_1_MEMBER_0_MEMBER_2_MEMBER_1_MEMBER_0_FILL" data-name="Symbol 78 0 Layer0 0 MEMBER 1 MEMBER 2 MEMBER 1 MEMBER 0 MEMBER 2 MEMBER 1 MEMBER 0 FILL">
            <path id="Path_103770" data-name="Path 103770" d="M331.446,1408.349a6.015,6.015,0,0,0-3.682,1.512,4.684,4.684,0,0,0-1.412,2.52,5.793,5.793,0,0,0-.2,1.965,6.928,6.928,0,0,0,.958,3.679,13.243,13.243,0,0,0,1.715,2.217q3.53,3.981,6.81,3.326a5.046,5.046,0,0,0,1.564-.6l-1.513-13.2A6.112,6.112,0,0,0,331.446,1408.349Z" transform="translate(-326.142 -1408.343)" fill="#dfa386"/>
          </g>
        </g>
      </g>
      <g id="Group_142291" data-name="Group 142291" transform="translate(228.06 187.12)">
        <g id="Group_142290" data-name="Group 142290">
          <g id="Symbol_78_0_Layer0_0_MEMBER_1_MEMBER_2_MEMBER_1_MEMBER_0_MEMBER_2_MEMBER_1_MEMBER_1_FILL" data-name="Symbol 78 0 Layer0 0 MEMBER 1 MEMBER 2 MEMBER 1 MEMBER 0 MEMBER 2 MEMBER 1 MEMBER 1 FILL">
            <path id="Path_103771" data-name="Path 103771" d="M376.2,1404.7a6.892,6.892,0,0,0-2.825.957,6.485,6.485,0,0,0-1.412,1.058L371,1420.07a3.144,3.144,0,0,0,1.513.353q3.279.253,6.709-4.233a15.159,15.159,0,0,0,1.614-2.52,8.553,8.553,0,0,0,.908-3.78,12.9,12.9,0,0,0-.3-1.965,4.541,4.541,0,0,0-1.564-2.318A5.031,5.031,0,0,0,376.2,1404.7Z" transform="translate(-371 -1404.669)" fill="#dfa386"/>
          </g>
        </g>
      </g>
      <g id="Group_142293" data-name="Group 142293" transform="translate(189.487 168.779)">
        <g id="Group_142292" data-name="Group 142292">
          <g id="Symbol_78_0_Layer0_0_MEMBER_1_MEMBER_2_MEMBER_1_MEMBER_0_MEMBER_2_MEMBER_1_MEMBER_2_FILL" data-name="Symbol 78 0 Layer0 0 MEMBER 1 MEMBER 2 MEMBER 1 MEMBER 0 MEMBER 2 MEMBER 1 MEMBER 2 FILL">
            <path id="Path_103772" data-name="Path 103772" d="M376.748,1435.545l3.664-49.074-47.648,3.46,5.47,48.411a16.436,16.436,0,0,0,6.283,11.384,17.775,17.775,0,0,0,12.819,3.851l.931-.068a19.667,19.667,0,0,0,12.64-5.7A18.523,18.523,0,0,0,376.748,1435.545Z" transform="translate(-332.764 -1386.472)" fill="#dfa386"/>
          </g>
        </g>
      </g>
      <g id="Group_142295" data-name="Group 142295" transform="translate(190.834 168.706)">
        <g id="Group_142294" data-name="Group 142294">
          <g id="Symbol_78_0_Layer0_0_MEMBER_1_MEMBER_2_MEMBER_1_MEMBER_0_MEMBER_2_MEMBER_1_MEMBER_3_FILL" data-name="Symbol 78 0 Layer0 0 MEMBER 1 MEMBER 2 MEMBER 1 MEMBER 0 MEMBER 2 MEMBER 1 MEMBER 3 FILL">
            <path id="Path_103773" data-name="Path 103773" d="M380.355,1386.4h-.05a7.769,7.769,0,0,0-.958.907q-2.976,29.683-2.976,33.463l-.05,2.822q.05,1.562.1,3.376-.05.957-.757.958a28.43,28.43,0,0,0-8.424-2.168,45.207,45.207,0,0,0-7.919.1,22.9,22.9,0,0,0-7.818,2.318q-1.412.806-2.22,1.159a14.161,14.161,0,0,1-2.825,1.008q-2.825.655-4.035-.051a4.346,4.346,0,0,1-1.816-2.52,5.726,5.726,0,0,1-.3-1.966q0-2.721-2.673-23.686-1.615.05-3.531.252l4.086,35.882a16.682,16.682,0,0,0,6.255,11.439,17.675,17.675,0,0,0,12.812,3.831l.958-.051a19.735,19.735,0,0,0,12.61-5.694,18.494,18.494,0,0,0,5.851-12.3Z" transform="translate(-334.1 -1386.399)" fill="#382943"/>
          </g>
        </g>
      </g>
      <g id="Group_142297" data-name="Group 142297" transform="translate(183.356 144.499)">
        <g id="Group_142296" data-name="Group 142296">
          <g id="Symbol_78_0_Layer0_0_MEMBER_1_MEMBER_2_MEMBER_1_MEMBER_0_MEMBER_2_MEMBER_1_MEMBER_4_FILL" data-name="Symbol 78 0 Layer0 0 MEMBER 1 MEMBER 2 MEMBER 1 MEMBER 0 MEMBER 2 MEMBER 1 MEMBER 4 FILL">
            <path id="Path_103774" data-name="Path 103774" d="M388.692,1376.51q1.563-5.9-.353-9.928a7.988,7.988,0,0,0-3.279-3.125,8.666,8.666,0,0,0-4.691-1.058,8.888,8.888,0,0,0-4.186,1.21,46.51,46.51,0,0,0-4.641,3.024l-4.489,2.974a23.107,23.107,0,0,1-3.279,1.663,18.689,18.689,0,0,1-2.472.554q-1.059.2-3.934.6-2.724.352-5.246.605-2.27.2-3.632.4-3.833.605-5.448,1.008a25.661,25.661,0,0,0-4.842,1.713,34.643,34.643,0,0,0-3.884,2.218,19.815,19.815,0,0,0-4.439,4.586,16.058,16.058,0,0,0-2.472,5.443,22.62,22.62,0,0,0-.656,3.88,19.9,19.9,0,0,0,.5,6.3,24.534,24.534,0,0,0,1.412,4.183,27.792,27.792,0,0,0,3.43,5.8q2.069,2.721,2.976,2.318,1.463-.555,3.127-6.148a37.375,37.375,0,0,1,2.472-5.443q2.724-4.788,4.136-7.408a5.092,5.092,0,0,1,.757-1.21,2.957,2.957,0,0,1,1.261-.907,2.191,2.191,0,0,1,1.059-.051,14.91,14.91,0,0,1,1.866.554q2.774.908,3.228,1.058a22.4,22.4,0,0,0,6.608,1.663,30.525,30.525,0,0,0,12.913-1.411,35.558,35.558,0,0,0,6.709-2.822,20.075,20.075,0,0,0,7.163-6.5A18.753,18.753,0,0,0,388.692,1376.51Z" transform="translate(-326.687 -1362.383)" fill="#382943"/>
          </g>
        </g>
      </g>
      <g id="Group_142299" data-name="Group 142299" transform="translate(208.64 189.453)">
        <g id="Group_142298" data-name="Group 142298">
          <g id="Symbol_78_0_Layer0_0_MEMBER_1_MEMBER_2_MEMBER_1_MEMBER_0_MEMBER_2_MEMBER_1_MEMBER_5_FILL" data-name="Symbol 78 0 Layer0 0 MEMBER 1 MEMBER 2 MEMBER 1 MEMBER 0 MEMBER 2 MEMBER 1 MEMBER 5 FILL">
            <path id="Path_103775" data-name="Path 103775" d="M356.189,1408.915a1.918,1.918,0,0,0-.656-1.462,1.981,1.981,0,0,0-1.564-.454,2.329,2.329,0,0,0-1.564.706,2.247,2.247,0,0,0-.656,1.562,1.973,1.973,0,0,0,.706,1.461,2.05,2.05,0,0,0,1.564.554,2.448,2.448,0,0,0,1.564-.806A1.968,1.968,0,0,0,356.189,1408.915Z" transform="translate(-351.75 -1406.984)" fill="#382943"/>
          </g>
        </g>
      </g>
      <g id="Group_142301" data-name="Group 142301" transform="translate(224.781 188.255)">
        <g id="Group_142300" data-name="Group 142300">
          <g id="Symbol_78_0_Layer0_0_MEMBER_1_MEMBER_2_MEMBER_1_MEMBER_0_MEMBER_2_MEMBER_1_MEMBER_6_FILL" data-name="Symbol 78 0 Layer0 0 MEMBER 1 MEMBER 2 MEMBER 1 MEMBER 0 MEMBER 2 MEMBER 1 MEMBER 6 FILL">
            <path id="Path_103776" data-name="Path 103776" d="M368.406,1406.556a2.247,2.247,0,0,0-.656,1.562,2.083,2.083,0,0,0,2.32,1.966,2.24,2.24,0,0,0,1.564-.756,1.967,1.967,0,0,0,.605-1.562,1.919,1.919,0,0,0-.656-1.462,2.147,2.147,0,0,0-1.564-.5A2.6,2.6,0,0,0,368.406,1406.556Z" transform="translate(-367.75 -1405.796)" fill="#382943"/>
          </g>
        </g>
      </g>
      <g id="Group_142303" data-name="Group 142303" transform="translate(213.836 183.165)">
        <g id="Group_142302" data-name="Group 142302">
          <g id="Symbol_78_0_Layer0_0_MEMBER_1_MEMBER_2_MEMBER_1_MEMBER_0_MEMBER_2_MEMBER_1_MEMBER_7_FILL" data-name="Symbol 78 0 Layer0 0 MEMBER 1 MEMBER 2 MEMBER 1 MEMBER 0 MEMBER 2 MEMBER 1 MEMBER 7 FILL">
            <path id="Path_103777" data-name="Path 103777" d="M364.617,1424.94a5.7,5.7,0,0,0,1.261-.756,2.1,2.1,0,0,0,.605-.655,1.778,1.778,0,0,0,.1-.655l-1.311-21.72c0-.3-.1-.436-.3-.4a.7.7,0,0,0-.151.5l1.311,21.62a1.409,1.409,0,0,1-.706.907,5.538,5.538,0,0,1-2.875,1.21,6.244,6.244,0,0,1-3.127-.3,5.856,5.856,0,0,1-1.765-.907c-.134-.168-.235-.285-.3-.353-.168-.1-.285-.1-.353,0a.54.54,0,0,0-.1.3.341.341,0,0,0,.151.3,7.9,7.9,0,0,0,1.816,1.008,6.908,6.908,0,0,0,3.178.454l.605-.05A11.073,11.073,0,0,0,364.617,1424.94Z" transform="translate(-356.9 -1400.745)" fill="#382943"/>
          </g>
        </g>
      </g>
      <g id="Group_142305" data-name="Group 142305" transform="translate(213.49 213.05)">
        <g id="Group_142304" data-name="Group 142304">
          <g id="Symbol_78_0_Layer0_0_MEMBER_1_MEMBER_2_MEMBER_1_MEMBER_0_MEMBER_2_MEMBER_1_MEMBER_8_FILL" data-name="Symbol 78 0 Layer0 0 MEMBER 1 MEMBER 2 MEMBER 1 MEMBER 0 MEMBER 2 MEMBER 1 MEMBER 8 FILL">
            <path id="Path_103778" data-name="Path 103778" d="M364.915,1436.642a5.19,5.19,0,0,0,1.605-3.425,6.477,6.477,0,0,1-1.773.635,6.726,6.726,0,0,1-3.388-.07,6.073,6.073,0,0,1-2.931-1.845,5.715,5.715,0,0,1-1.011-1.541,5.594,5.594,0,0,0-.723,4.2,4.343,4.343,0,0,0,2.232,3.02,4.817,4.817,0,0,0,3.069.459A5.407,5.407,0,0,0,364.915,1436.642Z" transform="translate(-356.557 -1430.396)" fill="#c9bdcb"/>
          </g>
        </g>
      </g>
      <g id="Group_142307" data-name="Group 142307" transform="translate(203.87 178.709)">
        <g id="Group_142306" data-name="Group 142306">
          <g id="Symbol_78_0_Layer0_0_MEMBER_1_MEMBER_2_MEMBER_1_MEMBER_0_MEMBER_2_MEMBER_1_MEMBER_9_FILL" data-name="Symbol 78 0 Layer0 0 MEMBER 1 MEMBER 2 MEMBER 1 MEMBER 0 MEMBER 2 MEMBER 1 MEMBER 9 FILL">
            <path id="Path_103779" data-name="Path 103779" d="M347.454,1402.6a1.162,1.162,0,0,0,.656.2,1.145,1.145,0,0,0,.857-.453,8.464,8.464,0,0,1,5.7-3.78.918.918,0,0,0,.706-.454,1.347,1.347,0,0,0,.252-.806,1.076,1.076,0,0,0-.353-.756.884.884,0,0,0-.807-.2,9.978,9.978,0,0,0-3.985,1.411,11.692,11.692,0,0,0-3.279,3.276,1.1,1.1,0,0,0-.151.857.956.956,0,0,0,.4.706m21.538-3.225a7.209,7.209,0,0,1,3.077.705,6.641,6.641,0,0,1,2.522,2.217,1.1,1.1,0,0,0,.857.4,1.042,1.042,0,0,0,.605-.3,1.46,1.46,0,0,0,.353-.806,1.046,1.046,0,0,0-.2-.807,9.369,9.369,0,0,0-3.228-2.772,8.779,8.779,0,0,0-3.884-.907.891.891,0,0,0-.757.3,1.673,1.673,0,0,0-.3.806,1.2,1.2,0,0,0,.3.806A.774.774,0,0,0,368.992,1399.374Z" transform="translate(-347.021 -1396.324)" fill="#382943"/>
          </g>
        </g>
      </g>
      <g id="Group_142309" data-name="Group 142309" transform="translate(348.554 559.019)">
        <g id="Group_142308" data-name="Group 142308">
          <g id="Symbol_78_0_Layer0_0_MEMBER_1_MEMBER_2_MEMBER_1_MEMBER_0_MEMBER_3_MEMBER_0_FILL" data-name="Symbol 78 0 Layer0 0 MEMBER 1 MEMBER 2 MEMBER 1 MEMBER 0 MEMBER 3 MEMBER 0 FILL">
            <path id="Path_103780" data-name="Path 103780" d="M558.415,1787q.13-2.416.179-5a62.046,62.046,0,0,1-13.547.392q-10.367-.789-16.126-.982a137.322,137.322,0,0,1-24.237-3.406q-5.793-1.258-9.734-2.471-3.99-1.239-4.332-1.89-.114,3.675-.179,7.762a77.337,77.337,0,0,0,20.328,7.344,96.634,96.634,0,0,0,19.614,2.11A100.189,100.189,0,0,0,558.415,1787Z" transform="translate(-490.44 -1773.646)" fill="#9cc2d9"/>
          </g>
        </g>
      </g>
      <g id="Group_142311" data-name="Group 142311" transform="translate(349.1 548.617)">
        <g id="Group_142310" data-name="Group 142310">
          <g id="Symbol_78_0_Layer0_0_MEMBER_1_MEMBER_2_MEMBER_1_MEMBER_0_MEMBER_3_MEMBER_1_FILL" data-name="Symbol 78 0 Layer0 0 MEMBER 1 MEMBER 2 MEMBER 1 MEMBER 0 MEMBER 3 MEMBER 1 FILL">
            <path id="Path_103781" data-name="Path 103781" d="M520.507,1784.826q1.97.153,3.381.137,5.438-11.778,18.74-15.455a127.31,127.31,0,0,0-12.428-6.184l-39.219,10.446a8.517,8.517,0,0,0,.448,1.536,12.871,12.871,0,0,0,3.281,2.978,29.09,29.09,0,0,0,6.611,3.165,44.447,44.447,0,0,0,5.716,1.509A106.129,106.129,0,0,0,520.507,1784.826Z" transform="translate(-490.981 -1763.324)" fill="#c99379"/>
            <path id="Path_103782" data-name="Path 103782" d="M523.6,1784.915a13.942,13.942,0,0,0,1.541,0,186.294,186.294,0,0,0,33.006-2.641.211.211,0,0,0,.2-.158c.032-.132,0-.212-.1-.239q-5.324-6.418-15.906-12.421Q529.039,1773.138,523.6,1784.915Z" transform="translate(-490.693 -1763.276)" fill="#d4e7f7"/>
          </g>
        </g>
      </g>
      <g id="Group_142313" data-name="Group 142313" transform="translate(188.067 383.444)">
        <g id="Group_142312" data-name="Group 142312">
          <g id="Symbol_78_0_Layer0_0_MEMBER_1_MEMBER_2_MEMBER_1_MEMBER_0_MEMBER_4_MEMBER_0_MEMBER_0_FILL" data-name="Symbol 78 0 Layer0 0 MEMBER 1 MEMBER 2 MEMBER 1 MEMBER 0 MEMBER 4 MEMBER 0 MEMBER 0 FILL">
            <path id="Path_103783" data-name="Path 103783" d="M492.308,1629.284q-2.825-9.071-9.281-10.331l-96.7-19.5-54.426,3.276q-4.187,26.005,23.607,35.378l97,21.217,32.434,120.4q33.09-3.731,47.919-14.867Z" transform="translate(-331.356 -1599.449)" fill="#262254"/>
          </g>
        </g>
      </g>
      <g id="Group_142315" data-name="Group 142315" transform="translate(130.463 328.209)">
        <g id="Group_142314" data-name="Group 142314">
          <g id="Symbol_78_0_Layer0_0_MEMBER_1_MEMBER_2_MEMBER_1_MEMBER_0_MEMBER_5_MEMBER_0_MEMBER_0_FILL" data-name="Symbol 78 0 Layer0 0 MEMBER 1 MEMBER 2 MEMBER 1 MEMBER 0 MEMBER 5 MEMBER 0 MEMBER 0 FILL">
            <path id="Path_103784" data-name="Path 103784" d="M310.265,1554.881q-6.608-3.176-4.641-10.231l-30.971,8.013q-6.053,18.092,80.3,50.043a128.427,128.427,0,0,0,11.148-22.577Z" transform="translate(-274.257 -1544.65)" fill="#cd4050"/>
            <path id="Path_103785" data-name="Path 103785" d="M375.284,1579.249l-9.887.6a128.422,128.422,0,0,1-11.148,22.577q3.783,1.41,7.718,2.822,4.036,2.671,34.653-1.361Q388.752,1587.817,375.284,1579.249Z" transform="translate(-273.551 -1544.375)" fill="#dfa386"/>
          </g>
        </g>
      </g>
      <g id="Group_142317" data-name="Group 142317" transform="translate(130.355 252.502)">
        <g id="Group_142316" data-name="Group 142316" transform="translate(0)">
          <g id="Symbol_78_0_Layer0_0_MEMBER_1_MEMBER_2_MEMBER_1_MEMBER_0_MEMBER_5_MEMBER_0_MEMBER_1_FILL" data-name="Symbol 78 0 Layer0 0 MEMBER 1 MEMBER 2 MEMBER 1 MEMBER 0 MEMBER 5 MEMBER 0 MEMBER 1 FILL">
            <path id="Path_103786" data-name="Path 103786" d="M299.724,1470.911a9.678,9.678,0,0,0-4.388,5.745q-2.976,11.389-21.185,77.711l.908.2a14.289,14.289,0,0,0,0,3.023,11.752,11.752,0,0,0,4.792,8.568,12.317,12.317,0,0,0,9.735,2.268,13.911,13.911,0,0,0,8.928-5.342,13.417,13.417,0,0,0,2.926-6.6,309.908,309.908,0,0,0,14.023-53.369,44.967,44.967,0,0,0,1.261-10.533,42.426,42.426,0,0,0-1.16-10.432,25.292,25.292,0,0,0-3.329-8.316q-2.371-3.477-5.448-4.082A9.817,9.817,0,0,0,299.724,1470.911Z" transform="translate(-274.15 -1469.537)" fill="#cd4050"/>
          </g>
        </g>
      </g>
      <g id="Group_142319" data-name="Group 142319" transform="translate(231.882 314.43)">
        <g id="Group_142318" data-name="Group 142318">
          <g id="Symbol_78_0_Layer0_0_MEMBER_1_MEMBER_2_MEMBER_1_MEMBER_0_MEMBER_6_MEMBER_0_FILL" data-name="Symbol 78 0 Layer0 0 MEMBER 1 MEMBER 2 MEMBER 1 MEMBER 0 MEMBER 6 MEMBER 0 FILL">
            <path id="Path_103787" data-name="Path 103787" d="M494.425,1537.429a6.9,6.9,0,0,0-.387-4.674l-97.976,4.29q-6.029.263-7.185,6.634L377.444,1609.5l2.317.788,97.064-4.249a6.842,6.842,0,0,0,5.2-2.351,9.721,9.721,0,0,0,1.889-4.625Z" transform="translate(-374.764 -1530.965)" fill="#dddedd"/>
            <path id="Path_103788" data-name="Path 103788" d="M494.061,1532.77q-1.137-1.925-4.43-1.781l-97.014,4.247q-5.977.261-7.088,6.976l-10.562,61.638q-.832,4.974,2.189,6.126v.05l.312-.508,11.433-65.824q1.156-6.371,7.185-6.634Z" transform="translate(-374.788 -1530.979)" fill="#f6f7f6"/>
          </g>
        </g>
      </g>
      <g id="Group_142321" data-name="Group 142321" transform="translate(212.473 385.831)">
        <g id="Group_142320" data-name="Group 142320">
          <g id="Symbol_78_0_Layer0_0_MEMBER_1_MEMBER_2_MEMBER_1_MEMBER_0_MEMBER_6_MEMBER_1_FILL" data-name="Symbol 78 0 Layer0 0 MEMBER 1 MEMBER 2 MEMBER 1 MEMBER 0 MEMBER 6 MEMBER 1 FILL">
            <path id="Path_103789" data-name="Path 103789" d="M422.677,1606.535l17.977-.786a1.778,1.778,0,0,0,1.213-.547,1.682,1.682,0,0,0,.524-1.2,1.938,1.938,0,0,0-.055-.492l-21.244.928a1.414,1.414,0,0,0-.1.5,1.491,1.491,0,0,0,.49,1.153A1.573,1.573,0,0,0,422.677,1606.535Z" transform="translate(-354.972 -1601.805)" fill="#919994"/>
            <path id="Path_103790" data-name="Path 103790" d="M361.836,1609.911a2.508,2.508,0,0,0,.8,1.943,2.711,2.711,0,0,0,1.985.748l117.188-5.125,2.041-.924a2.768,2.768,0,0,0,.885-2.015v-.032a2.55,2.55,0,0,0-.827-1.972l-2.018-.716-39.03,1.707a1.934,1.934,0,0,1,.055.492,1.68,1.68,0,0,1-.524,1.2,1.777,1.777,0,0,1-1.213.548l-17.977.786a1.573,1.573,0,0,1-1.2-.443,1.49,1.49,0,0,1-.49-1.153,1.418,1.418,0,0,1,.1-.5l-56.914,2.488a3.117,3.117,0,0,0-2.008.892,2.92,2.92,0,0,0-.853,2.047Z" transform="translate(-355.494 -1601.819)" fill="#dddedd"/>
            <path id="Path_103791" data-name="Path 103791" d="M362.687,1611.814a2.508,2.508,0,0,1-.8-1.943v-.03a2.919,2.919,0,0,1,.853-2.046,3.118,3.118,0,0,1,2.009-.892l-6.278.275a3.076,3.076,0,0,0-2.072.894,2.922,2.922,0,0,0-.853,2.046v.031a2.507,2.507,0,0,0,.8,1.943,2.694,2.694,0,0,0,2.049.745l6.278-.275A2.711,2.711,0,0,1,362.687,1611.814Z" transform="translate(-355.55 -1601.778)" fill="#f6f7f6"/>
          </g>
        </g>
      </g>
      <g id="Group_142323" data-name="Group 142323" transform="translate(328.339 338.327)">
        <g id="Group_142322" data-name="Group 142322">
          <g id="Symbol_78_0_Layer0_0_MEMBER_1_MEMBER_2_MEMBER_1_MEMBER_0_MEMBER_6_MEMBER_2_MEMBER_0_MEMBER_0_FILL" data-name="Symbol 78 0 Layer0 0 MEMBER 1 MEMBER 2 MEMBER 1 MEMBER 0 MEMBER 6 MEMBER 2 MEMBER 0 MEMBER 0 FILL">
            <path id="Path_103792" data-name="Path 103792" d="M488.674,1562.458a121.723,121.723,0,0,1-17.961-.958q-.684,1.695.137,13.328.826,11.572,2.64,12.264,8.309,1.14,11.28-.344,9.1-16.375,5.347-32.06Z" transform="translate(-470.402 -1554.687)" fill="#dfa386"/>
          </g>
        </g>
      </g>
      <g id="Group_142325" data-name="Group 142325" transform="translate(328.615 351.349)">
        <g id="Group_142324" data-name="Group 142324">
          <g id="Symbol_78_0_Layer0_0_MEMBER_1_MEMBER_2_MEMBER_1_MEMBER_0_MEMBER_6_MEMBER_2_MEMBER_0_MEMBER_1_STROKES_1_FILL" data-name="Symbol 78 0 Layer0 0 MEMBER 1 MEMBER 2 MEMBER 1 MEMBER 0 MEMBER 6 MEMBER 2 MEMBER 0 MEMBER 1 STROKES 1 FILL">
            <path id="Path_103793" data-name="Path 103793" d="M482.423,1582.173l-.306-.065-.621-.008-.307-.065-2.972-.159-.307-.064-.994-.013a8.155,8.155,0,0,0-1.175-.076l-3.169-.04-.128.059-.133.12.057.061.363.126.12.063.124,0,3.181.71,1.234.137.306.065,3.035.16.306.065,3.3-.08,1.633-.223.248,0,.382-.117.071-.12-.239-.125-.187,0-.12-.062H486l-3.27-.346-.311,0m6.58-6.609-.182-.063-17.238-.645-.191.058a.116.116,0,0,0-.133.12l.057.062.607.191h.124l.852.255,2.454.457.679.069.182.064.248,0,.368.065,1.606.142.373,0,.43.066,2.481.092,6.571-.585h.124l.635-.174.072-.121-.12-.062m.666-7.354-.119-.062-18.551-.54-.191.059a.116.116,0,0,0-.133.12l.057.061.488.128.119.063.183.063,3.5.653.741.071.243.064.187,0,.431.066,2.1.148.431.067,3.541.045,6.079-.653.19-.059.128-.06.507-.115C489.723,1568.331,489.747,1568.291,489.669,1568.209Z" transform="translate(-470.675 -1567.607)" fill="#b98166"/>
          </g>
        </g>
      </g>
      <g id="Group_142327" data-name="Group 142327" transform="translate(8.044 329.066)">
        <g id="Group_142326" data-name="Group 142326">
          <g id="Symbol_78_0_Layer0_0_MEMBER_1_MEMBER_2_MEMBER_2_FILL" data-name="Symbol 78 0 Layer0 0 MEMBER 1 MEMBER 2 MEMBER 2 FILL">
            <path id="Path_103794" data-name="Path 103794" d="M305.384,1713.066q-5.7-.454-10.341-7.156a378.593,378.593,0,0,1-24.868-44.8q-13.569-28.321-18.512-55.133-4.994-27.365.807-43.542,6.2-17.286,23.4-16.883-1.009-.05-2.068-.051-31.929,0-64.666.252-13.922.1-27.995.3a27.7,27.7,0,0,0-18.26,8.064,33.106,33.106,0,0,0-9.937,23.383,137.332,137.332,0,0,0,1.614,24.644q1.917,12.246,4.994,24.492a235.138,235.138,0,0,0,7.011,22.829,240.684,240.684,0,0,0,9.382,22.527,188.341,188.341,0,0,0,11.955,21.267,74.694,74.694,0,0,0,9.533,11.641q8.373,8.618,13.115,8.164Z" transform="translate(-152.909 -1545.5)" fill="#2d8179"/>
            <path id="Path_103795" data-name="Path 103795" d="M329.508,1627.292q-.151-1.009-.252-1.966-11.1-70.857-46.81-78.87a41.73,41.73,0,0,0-6.91-.857,2.589,2.589,0,0,0-.5-.05q-17.2-.4-23.4,16.883-5.8,16.177-.807,43.542,4.944,26.811,18.512,55.133a378.659,378.659,0,0,0,24.868,44.8q4.641,6.7,10.34,7.156h28.751v-33.514a422.96,422.96,0,0,0-2.926-46.365Q329.962,1630.165,329.508,1627.292Z" transform="translate(-152.065 -1545.499)" fill="#39a298"/>
          </g>
        </g>
      </g>
      <g id="Group_142329" data-name="Group 142329" transform="translate(-59.34 402.324)">
        <g id="Group_142328" data-name="Group 142328">
          <g id="Symbol_78_0_Layer0_0_MEMBER_1_MEMBER_3_FILL" data-name="Symbol 78 0 Layer0 0 MEMBER 1 MEMBER 3 FILL">
            <path id="Path_103796" data-name="Path 103796" d="M713.5,1697.7l.319.137v-.046C713.7,1697.76,713.591,1697.73,713.5,1697.7Z" transform="translate(-611.05 -1601.786)" fill="#907dc7"/>
            <path id="Path_103797" data-name="Path 103797" d="M707.882,1697.809l-.319-.137-61.713-.273v.456l10.81,71.456h41.279Z" transform="translate(-605.113 -1601.76)" fill="#975377"/>
            <path id="Path_103798" data-name="Path 103798" d="M673.221,1635.06q.455-8.158.273-16.314a56.816,56.816,0,0,0-2.281-14.674q-1.55-5.15-7.389-9.661-5.929-4.6-12.178,1.686a34.84,34.84,0,0,0-8.986,14.173,43.18,43.18,0,0,0-2.144,15.585,62.262,62.262,0,0,0,2.737,14.947,39.725,39.725,0,0,0,5.793,11.074,39.381,39.381,0,0,0-14.55-8.476q-.821,9.8,5.2,19.14-28.644-22.649-37.676-10.709-5.655,14.355,27.413,27.069l-.274-.091a46.246,46.246,0,0,1-12.361.228,36.437,36.437,0,0,0,13.365,8.977l11.768.091,61.713.273h.319l.684.228q14.87,3.373,15.052-1.64-.821-4.83-15.554-8.021,30.423-4.6,27.778-14.173-5.337-7.884-26,2.644,18.929-11.3,25.908-21.373,6.933-9.888,2.235-16.041-6.386-8.521-19.567-2.051-11.9,5.787-29.6,23.879l-.182-.182q9.807-20.689,2.554-21.874-7.526-2.279-15.371,20.279l-.411-.137A135.469,135.469,0,0,0,673.221,1635.06Z" transform="translate(-601.194 -1592.465)" fill="#4ba16d"/>
          </g>
        </g>
      </g>
    </g>
  </g>
</svg>
