<svg xmlns="http://www.w3.org/2000/svg" xmlns:xlink="http://www.w3.org/1999/xlink" width="85.001" height="85.003" viewBox="0 0 85.001 85.003">
  <defs>
    <linearGradient id="linear-gradient" y1="-0.175" x2="0.975" y2="1.161" gradientUnits="objectBoundingBox">
      <stop offset="0" stop-color="#f36"/>
      <stop offset="1" stop-color="#ff8c00"/>
    </linearGradient>
  </defs>
  <g id="Group_173750" data-name="Group 173750" transform="translate(1.75 1.751)">
    <path id="Union_49" data-name="Union 49" d="M-5141.954-11857.573a12.6,12.6,0,0,0-11.13-6.677,12.592,12.592,0,0,0-11.127,6.677,2.5,2.5,0,0,1-3.38,1.028,2.5,2.5,0,0,1-1.031-3.381,17.621,17.621,0,0,1,6.479-6.814,17.569,17.569,0,0,1,3.443-1.589,11.907,11.907,0,0,1-2.751-2.052,11.772,11.772,0,0,1-3.464-8.368,11.761,11.761,0,0,1,3.464-8.367,11.76,11.76,0,0,1,8.367-3.467,11.749,11.749,0,0,1,8.367,3.467,11.75,11.75,0,0,1,3.467,8.367,11.761,11.761,0,0,1-3.467,8.368,11.87,11.87,0,0,1-2.748,2.052,17.569,17.569,0,0,1,3.443,1.589,17.64,17.64,0,0,1,6.479,6.814,2.5,2.5,0,0,1-1.031,3.381,2.472,2.472,0,0,1-1.175.3A2.5,2.5,0,0,1-5141.954-11857.573Zm-17.963-21.176a6.841,6.841,0,0,0,6.833,6.833,6.842,6.842,0,0,0,6.836-6.833,6.842,6.842,0,0,0-6.836-6.835A6.842,6.842,0,0,0-5159.917-11878.749Zm-35.372,21.176a12.592,12.592,0,0,0-11.127-6.677,12.592,12.592,0,0,0-11.127,6.677,2.5,2.5,0,0,1-3.383,1.028,2.5,2.5,0,0,1-1.028-3.381,17.61,17.61,0,0,1,6.476-6.814,17.608,17.608,0,0,1,3.445-1.589,11.909,11.909,0,0,1-2.75-2.052,11.761,11.761,0,0,1-3.467-8.368,11.75,11.75,0,0,1,3.467-8.367,11.755,11.755,0,0,1,8.367-3.467,11.755,11.755,0,0,1,8.367,3.467,11.747,11.747,0,0,1,3.464,8.367,11.758,11.758,0,0,1-3.464,8.368,11.912,11.912,0,0,1-2.75,2.052,17.574,17.574,0,0,1,3.442,1.589,17.621,17.621,0,0,1,6.479,6.814,2.5,2.5,0,0,1-1.028,3.381,2.482,2.482,0,0,1-1.175.3A2.5,2.5,0,0,1-5195.289-11857.573Zm-17.96-21.176a6.841,6.841,0,0,0,6.833,6.833,6.841,6.841,0,0,0,6.833-6.833,6.842,6.842,0,0,0-6.833-6.835A6.842,6.842,0,0,0-5213.249-11878.749Zm55-20a.166.166,0,0,0-.165-.167h-42.666a.167.167,0,0,0-.168.167,2.5,2.5,0,0,1-2.5,2.5,2.5,2.5,0,0,1-2.5-2.5,5.171,5.171,0,0,1,5.167-5.166h42.666a5.173,5.173,0,0,1,5.167,5.166,2.5,2.5,0,0,1-2.5,2.5A2.5,2.5,0,0,1-5158.25-11898.75Zm-34.68-11.43a2.5,2.5,0,0,1-.282-3.524,17.672,17.672,0,0,1,7.832-5.3,11.9,11.9,0,0,1-2.737-2.047,11.752,11.752,0,0,1-3.464-8.367,11.753,11.753,0,0,1,3.464-8.368,11.755,11.755,0,0,1,8.367-3.467,11.754,11.754,0,0,1,8.367,3.467,11.755,11.755,0,0,1,3.467,8.368,11.755,11.755,0,0,1-3.467,8.367,11.883,11.883,0,0,1-2.739,2.048,17.669,17.669,0,0,1,7.828,5.3,2.5,2.5,0,0,1-.282,3.524,2.487,2.487,0,0,1-1.622.6,2.5,2.5,0,0,1-1.9-.878,12.655,12.655,0,0,0-9.653-4.46,12.655,12.655,0,0,0-9.653,4.46,2.5,2.5,0,0,1-1.906.878A2.486,2.486,0,0,1-5192.93-11910.18Zm6.347-19.236a6.841,6.841,0,0,0,6.833,6.832,6.841,6.841,0,0,0,6.833-6.832,6.841,6.841,0,0,0-6.833-6.833A6.841,6.841,0,0,0-5186.583-11929.416Z" transform="translate(5220.5 11939.5)" fill="url(#linear-gradient)"/>
  </g>
</svg>
