<svg xmlns="http://www.w3.org/2000/svg" xmlns:xlink="http://www.w3.org/1999/xlink" width="583.31" height="415.601" viewBox="0 0 583.31 415.601">
  <defs>
    <linearGradient id="linear-gradient" y1="0.5" x2="1" y2="0.5" gradientUnits="objectBoundingBox">
      <stop offset="0" stop-color="#00cfff"/>
      <stop offset="1" stop-color="#35a4ff"/>
    </linearGradient>
    <linearGradient id="linear-gradient-2" y1="0.5" x2="1" y2="0.5" gradientUnits="objectBoundingBox">
      <stop offset="0.079" stop-color="#f16c24"/>
      <stop offset="0.559" stop-color="#df5329"/>
      <stop offset="1" stop-color="#cc3a2f"/>
    </linearGradient>
    <linearGradient id="linear-gradient-7" x1="0.828" y1="0.103" x2="0.181" y2="0.887" gradientUnits="objectBoundingBox">
      <stop offset="0" stop-color="#dc4f2a"/>
      <stop offset="1" stop-color="#eb6e00"/>
    </linearGradient>
  </defs>
  <g id="Group_141327" data-name="Group 141327" transform="translate(-155 -1329)">
    <g id="Group_141254" data-name="Group 141254" transform="translate(155 1329)">
      <g id="Group_141231" data-name="Group 141231" transform="translate(9.079 5.699)">
        <rect id="Rectangle_33882" data-name="Rectangle 33882" width="7.307" height="7.307" transform="translate(457.474 24.699)" fill="#78cdea" opacity="0.7"/>
        <rect id="Rectangle_33883" data-name="Rectangle 33883" width="7.307" height="7.307" transform="translate(469.948 24.699)" fill="#78cdea" opacity="0.7"/>
        <path id="Path_102832" data-name="Path 102832" d="M426.574,217.424c-39.619-9.741-88.009,15.827-115.216,51.733-29.119,38.428-40.531,97.348-19.2,135.907,7.263,13.131,25.437,27.752,61.783,56.994,30.479,24.521,32.994,22.891,46.754,36.827,31.961,32.367,27.33,50.21,49.259,70.146,36.23,32.936,92.152,23.58,107.7,20.167,61.162-13.422,104.576-68.068,106.867-71.023,11.609-14.97,18.738-28.944,37.571-38.58,21.013-10.752,36-5.562,57.608-8.768,12.875-1.91,51.593-11.76,76.811-45.595,5.2-6.974,14.13-19.242,17.533-37.7,6.7-36.367-13.82-65.455-18.368-71.9-2.672-3.788-20.195-27.932-50.929-37.7-21.371-6.794-26.4.586-41.745-7.014-22.731-11.261-20.236-31.7-40.075-51.733-24.413-24.65-63.346-29.2-89.335-24.551-27.223,4.867-29.133,17.838-80.151,34.2-17.585,5.639-26.846,8.526-40.075,8.768C461.83,238.168,449.068,222.955,426.574,217.424Z" transform="translate(-281.146 -193.011)" fill="#a9dcff" opacity="0.3"/>
        <g id="Group_141195" data-name="Group 141195" transform="translate(98.394 51.271)">
          <g id="Group_141194" data-name="Group 141194">
            <path id="Path_102834" data-name="Path 102834" d="M900.5,517.251,568.252,501.418V296.3L900.5,276.507Z" transform="translate(-568.252 -276.507)" fill="#fff"/>
            <path id="Path_102835" data-name="Path 102835" d="M905.944,523.988,594.4,508.154V324.676l311.548-15.833Z" transform="translate(-584.047 -296.043)" fill="#cae9f9"/>
            <g id="Group_141192" data-name="Group 141192" transform="translate(42.204 46.231)" opacity="0.7">
              <path id="Path_102836" data-name="Path 102836" d="M919.28,399.237l-244.407,7.917v-5.938L919.28,393.3Z" transform="translate(-674.872 -393.299)" fill="#fff"/>
            </g>
            <g id="Group_141193" data-name="Group 141193" transform="translate(42.204 167.556)" opacity="0.7">
              <path id="Path_102837" data-name="Path 102837" d="M919.28,714.447l-244.407-9.1V699.8l244.407,9.1Z" transform="translate(-674.872 -699.801)" fill="#fff"/>
            </g>
            <path id="Path_102838" data-name="Path 102838" d="M674.872,598.8l244.407,1.583v14.25l-244.407-3.958" transform="translate(-632.668 -471.225)" fill="#fff"/>
          </g>
        </g>
        <g id="Group_141200" data-name="Group 141200" transform="translate(37.684 132.919)">
          <path id="Path_102888" data-name="Path 102888" d="M0,0H94.569V69.964L0,65.366Z" transform="translate(0 6.131)" fill="url(#linear-gradient)"/>
          <g id="Group_141196" data-name="Group 141196" transform="translate(7.052 30.804)">
            <path id="Path_102840" data-name="Path 102840" d="M275.268,781.789H198.631a1.915,1.915,0,1,1,0-3.829h76.637a1.915,1.915,0,1,1,0,3.829Z" transform="translate(-196.716 -777.96)" fill="url(#linear-gradient-2)"/>
          </g>
          <g id="Group_141197" data-name="Group 141197" transform="translate(7.052 39.901)">
            <path id="Path_102841" data-name="Path 102841" d="M275.268,805.545H198.631a1.915,1.915,0,0,1,0-3.829h76.637a1.915,1.915,0,1,1,0,3.829Z" transform="translate(-196.716 -801.716)" fill="#fff"/>
          </g>
          <g id="Group_141198" data-name="Group 141198" transform="translate(7.052 48.998)">
            <path id="Path_102842" data-name="Path 102842" d="M275.268,829.3H198.631a1.915,1.915,0,1,1,0-3.829h76.637a1.915,1.915,0,1,1,0,3.829Z" transform="translate(-196.716 -825.473)" fill="#fff"/>
          </g>
          <g id="Group_141199" data-name="Group 141199" transform="translate(7.052 58.094)">
            <path id="Path_102843" data-name="Path 102843" d="M275.268,853.057H198.631a1.915,1.915,0,1,1,0-3.829h76.637a1.915,1.915,0,1,1,0,3.829Z" transform="translate(-196.716 -849.228)" fill="#fff"/>
          </g>
          <path id="Path_102887" data-name="Path 102887" d="M0-1.869,94.569-8V13.683L0,14.45Z" transform="translate(0 8)" fill="#fff"/>
        </g>
        <rect id="Rectangle_34228" data-name="Rectangle 34228" width="3.917" height="78.679" transform="translate(410.196 11.932)" fill="#fff"/>
        <g id="Group_141224" data-name="Group 141224" transform="translate(135.236 132.194)">
          <g id="Group_141223" data-name="Group 141223" transform="translate(0)">
            <path id="Path_102875" data-name="Path 102875" d="M393.778,500.044a6.212,6.212,0,0,1-2.091-.345c-1.739-.63-2.212-1.909-1.055-2.857,6.288-5.148,14.791-9.242,24.589-11.838,17.834-4.726,34.923-3.18,41.356-2.6a80.955,80.955,0,0,1,14.2,2.5c3.971.954,9.409,2.261,19.07,4.216,18.06,3.654,27.124,5.488,36.256,5.842,8.368.325,22.373.869,35.428-3.272,2.787-.885,5.068-1.842,7.707-2.95a171.364,171.364,0,0,1,18.1-6.578,65.532,65.532,0,0,1,14.586-3.142,44.046,44.046,0,0,1,13.116.948,54.171,54.171,0,0,0,9.018,1.127,60.553,60.553,0,0,0,14.939-1.466c1.939-.426,4.143.083,4.925,1.139s-.153,2.256-2.091,2.682a73.792,73.792,0,0,1-18.221,1.759,66.819,66.819,0,0,1-11.035-1.343,31.193,31.193,0,0,0-9.464-.775,53.617,53.617,0,0,0-12.061,2.663A160.94,160.94,0,0,0,573.854,492c-2.848,1.2-5.307,2.228-8.517,3.247-15.073,4.782-31.144,4.157-39.776,3.822-10.213-.4-19.616-2.3-38.35-6.09-9.876-2-15.434-3.333-19.492-4.309a69.614,69.614,0,0,0-12.381-2.2c-6.326-.572-21.143-1.911-36.807,2.239-10.85,2.875-17.734,7.25-21.6,10.415A5.164,5.164,0,0,1,393.778,500.044Z" transform="translate(-389.999 -478.863)" fill="url(#linear-gradient-2)"/>
          </g>
        </g>
        <g id="Group_141230" data-name="Group 141230" transform="translate(381.628 0)">
          <path id="Path_102878" data-name="Path 102878" d="M1265.11,148.188v93.541L1391.7,249.5V128.7Z" transform="translate(-1257.387 -128.703)" fill="#fff"/>
          <g id="Group_141229" data-name="Group 141229" transform="translate(0 9.469)">
            <path id="Path_102879" data-name="Path 102879" d="M1372.854,295.414l-128.745-6.755V218.422l128.745-6.755Z" transform="translate(-1244.109 -190.629)" fill="url(#linear-gradient)"/>
            <path id="Path_102880" data-name="Path 102880" d="M1372.854,175.492l-128.745,6.755V164.586l128.745-10.132Z" transform="translate(-1244.109 -154.454)" fill="#fff"/>
            <path id="Path_102881" data-name="Path 102881" d="M1522.054,184.586l-8.086.338v-7.66l8.086-1.013Z" transform="translate(-1414.736 -168.235)" fill="#78cdea" opacity="0.7"/>
            <path id="Path_102882" data-name="Path 102882" d="M1559.6,182.506l-8.086.338V174.17l8.086-.676Z" transform="translate(-1438.474 -166.493)" fill="url(#linear-gradient-2)"/>
            <path id="Path_102883" data-name="Path 102883" d="M1303.72,299.582l-3.648-.338v-72.6h3.648Z" transform="translate(-1279.493 -200.096)" fill="#fff"/>
            <g id="Group_141228" data-name="Group 141228" transform="translate(36.135 38.622)">
              <path id="Path_102884" data-name="Path 102884" d="M1407.515,314.284l-2.977-1.571,28.71-53.226,2.977,1.571Z" transform="translate(-1381.681 -259.487)" fill="#fff"/>
              <g id="Group_141226" data-name="Group 141226" transform="translate(0 6.413)">
                <path id="Path_102885" data-name="Path 102885" d="M1363.61,314.637c-2.652-2.221-5.183-4.4-7.63-6.506-4.08-3.511-7.934-6.828-11.659-9.746l-1.944-1.522,21.138-19.935,2.975,3.087-17.563,16.564c3.191,2.577,6.458,5.389,9.883,8.337,2.436,2.1,4.955,4.265,7.586,6.468Z" transform="translate(-1342.378 -276.927)" fill="#fff"/>
              </g>
              <g id="Group_141227" data-name="Group 141227" transform="translate(56.832 6.413)">
                <path id="Path_102886" data-name="Path 102886" d="M1499.812,314.637c2.652-2.221,5.183-4.4,7.63-6.506,4.08-3.511,7.933-6.828,11.658-9.746l1.944-1.522-21.138-19.935-2.975,3.087,17.563,16.564c-3.191,2.577-6.458,5.389-9.883,8.337-2.436,2.1-4.956,4.265-7.586,6.468Z" transform="translate(-1496.931 -276.927)" fill="#fff"/>
              </g>
            </g>
          </g>
        </g>
        <g id="Group_141222" data-name="Group 141222" transform="translate(109.058 126.712)">
          <path id="Rectangle_34221" data-name="Rectangle 34221" d="M72.378,0h0a72.378,72.378,0,0,1,72.378,72.378V95.03a27.533,27.533,0,0,1-27.533,27.533H0a0,0,0,0,1,0,0V72.378A72.378,72.378,0,0,1,72.378,0Z" transform="translate(257.768 160.627)" fill="#a3d1cf"/>
          <path id="Rectangle_34222" data-name="Rectangle 34222" d="M72.378,0h0a72.378,72.378,0,0,1,72.378,72.378V90.126a27.533,27.533,0,0,1-27.533,27.533H0a0,0,0,0,1,0,0V72.378A72.378,72.378,0,0,1,72.378,0Z" transform="translate(252.815 162.118)" fill="#fff"/>
          <g id="Group_141215" data-name="Group 141215" transform="translate(267.026)">
            <path id="Path_102844" data-name="Path 102844" d="M1128.768,606.036c-1.685-2.011-8.987-10.725-9.158-22.646-.136-9.5,4.29-18.28,7.632-24.911,3.278-6.5,4.566-6.911,6.869-12.833a50.709,50.709,0,0,0,3.816-18.872c-.038-8.719-2.659-9.689-3.053-17.362-.135-2.626-.379-13.265,6.106-22.647,6.9-9.982,19.718-16.081,32.817-15.1a37.285,37.285,0,0,1,34.344,34.724c.274,4.833-.78,4.8-1.526,13.588-.785,9.24-1.266,15.717,1.526,22.647.934,2.317,1.006,1.639,6.106,9.813,5.668,9.086,8.5,13.629,9.922,17.362,1.15,3.025,4.972,13.08,1.526,23.4-3.123,9.355-10.711,14.416-15.264,17.362C1187.484,625.417,1146.658,627.385,1128.768,606.036Z" transform="translate(-1119.607 -471.564)" fill="#f2a75e"/>
            <rect id="Rectangle_34223" data-name="Rectangle 34223" width="86.242" height="132.86" transform="translate(10.627 135.605)" fill="#fff"/>
            <path id="Path_102845" data-name="Path 102845" d="M1237.036,724.8c-2.29,5.588-10.585,8.382-15.878,8.382-5.392,0-13.124-1.4-16.177-7.683.509-10.128,1.017-12.573,1.526-22.7l-1.526-30.385h32.054s-1.526,22.788-1.526,30.385S1237.036,724.8,1237.036,724.8Z" transform="translate(-1169.801 -589.647)" fill="#ffb896"/>
            <g id="Group_141201" data-name="Group 141201" transform="translate(15.167 50.676)">
              <path id="Path_102846" data-name="Path 102846" d="M1310.381,614.929V602.077c.15-.272,2.509-7.4,6.869-7.53a6.455,6.455,0,0,1,4.579,1.509c3.17,3.111,1.631,11.065-3.052,15.1A15.616,15.616,0,0,1,1310.381,614.929Z" transform="translate(-1246.935 -594.542)" fill="#ffb896"/>
              <path id="Path_102847" data-name="Path 102847" d="M1169.527,615.838V602.987c-.151-.272-2.509-7.4-6.869-7.53a6.457,6.457,0,0,0-4.579,1.51c-3.171,3.111-1.631,11.065,3.053,15.1A15.615,15.615,0,0,0,1169.527,615.838Z" transform="translate(-1156.413 -595.077)" fill="#ffb896"/>
              <ellipse id="Ellipse_663" data-name="Ellipse 663" cx="2.29" cy="2.265" rx="2.29" ry="2.265" transform="translate(6.587 16.235)" fill="#fff"/>
              <ellipse id="Ellipse_664" data-name="Ellipse 664" cx="2.29" cy="2.265" rx="2.29" ry="2.265" transform="translate(66.117 16.235)" fill="#fff"/>
            </g>
            <path id="Path_102848" data-name="Path 102848" d="M1171.651,560.516a121.688,121.688,0,0,0,31.558-13.063,32.539,32.539,0,0,1-6.534,6.738c-2.519,1.935-4.459,2.828-4.31,3.163.225.507,5-.745,9.314-2.887a35.335,35.335,0,0,0,8.48-5.913,20.962,20.962,0,0,0,4.31,8.526,22.758,22.758,0,0,0,14.736,7.563,64.348,64.348,0,0,1-.278,19.251c-.922,5.535-2.516,14.855-9.314,24.2-4.5,6.186-8.7,8.849-15.988,13.476a9.161,9.161,0,0,1-6.117,1.788c-2.781-.38-4.631-2.455-6.117-4.263a72.449,72.449,0,0,1-9.037-13.613c-3.976-8.48-5.983-12.759-7.785-19.526A88.387,88.387,0,0,1,1171.651,560.516Z" transform="translate(-1150.18 -516.181)" fill="#ffcbb3"/>
            <g id="Group_141214" data-name="Group 141214" transform="translate(22.781 49.458)">
              <g id="Group_141205" data-name="Group 141205" transform="translate(28.683 0)">
                <ellipse id="Ellipse_665" data-name="Ellipse 665" cx="3.053" cy="3.02" rx="3.053" ry="3.02" transform="translate(0 8.563)" fill="#101e30"/>
                <g id="Group_141202" data-name="Group 141202" transform="translate(4.516 6.991)">
                  <path id="Path_102849" data-name="Path 102849" d="M1255.9,612.451a.418.418,0,0,0,.051,0,5.467,5.467,0,0,0,2.772-1.1,3.781,3.781,0,0,0,1.432-2.279.444.444,0,0,0-.874-.155,2.91,2.91,0,0,1-1.112,1.747,4.56,4.56,0,0,1-2.317.914.439.439,0,0,0,.05.875Z" transform="translate(-1255.456 -608.553)" fill="#101e30"/>
                </g>
                <g id="Group_141203" data-name="Group 141203" transform="translate(4.005 9.674)">
                  <path id="Path_102850" data-name="Path 102850" d="M1256.764,617.072a4.8,4.8,0,0,0,.664-.045,3.838,3.838,0,0,0,2.406-1.24.436.436,0,0,0-.047-.619.448.448,0,0,0-.626.047,2.95,2.95,0,0,1-1.857.942,4.571,4.571,0,0,1-2.464-.382.446.446,0,0,0-.587.222.438.438,0,0,0,.224.581A5.655,5.655,0,0,0,1256.764,617.072Z" transform="translate(-1254.215 -615.062)" fill="#101e30"/>
                </g>
                <g id="Group_141204" data-name="Group 141204" transform="translate(0.701)">
                  <path id="Path_102851" data-name="Path 102851" d="M1255.8,597.192l.048,0a.441.441,0,0,0,.394-.484,5.737,5.737,0,0,0-9.926-3.271.436.436,0,0,0,.023.621.447.447,0,0,0,.628-.023,4.846,4.846,0,0,1,8.391,2.767A.442.442,0,0,0,1255.8,597.192Z" transform="translate(-1246.196 -591.586)" fill="#c16f50"/>
                </g>
                <ellipse id="Ellipse_666" data-name="Ellipse 666" cx="0.763" cy="0.755" rx="0.763" ry="0.755" transform="translate(3.434 9.696)" fill="#ddd"/>
              </g>
              <g id="Group_141209" data-name="Group 141209">
                <ellipse id="Ellipse_667" data-name="Ellipse 667" cx="3.053" cy="3.02" rx="3.053" ry="3.02" transform="translate(4.642 8.563)" fill="#101e30"/>
                <g id="Group_141206" data-name="Group 141206" transform="translate(1.527 6.992)">
                  <path id="Path_102852" data-name="Path 102852" d="M1182.855,612.451a.439.439,0,0,0,.05-.875,4.561,4.561,0,0,1-2.317-.914,2.906,2.906,0,0,1-1.112-1.747.444.444,0,0,0-.874.155,3.781,3.781,0,0,0,1.432,2.279,5.465,5.465,0,0,0,2.771,1.1A.415.415,0,0,0,1182.855,612.451Z" transform="translate(-1178.594 -608.553)" fill="#101e30"/>
                </g>
                <g id="Group_141207" data-name="Group 141207" transform="translate(1.015 9.674)">
                  <path id="Path_102853" data-name="Path 102853" d="M1180.531,617.072a5.652,5.652,0,0,0,2.286-.494.437.437,0,0,0,.224-.581.445.445,0,0,0-.586-.222,4.57,4.57,0,0,1-2.464.382,2.951,2.951,0,0,1-1.857-.942.447.447,0,0,0-.626-.047.436.436,0,0,0-.047.619,3.838,3.838,0,0,0,2.406,1.24A4.811,4.811,0,0,0,1180.531,617.072Z" transform="translate(-1177.353 -615.062)" fill="#101e30"/>
                </g>
                <g id="Group_141208" data-name="Group 141208">
                  <path id="Path_102854" data-name="Path 102854" d="M1175.335,597.192a.442.442,0,0,0,.441-.392,4.846,4.846,0,0,1,8.391-2.767.447.447,0,0,0,.627.023.436.436,0,0,0,.024-.621,5.783,5.783,0,0,0-5.789-1.633,5.705,5.705,0,0,0-4.136,4.9.441.441,0,0,0,.394.484Z" transform="translate(-1174.89 -591.586)" fill="#c16f50"/>
                </g>
                <ellipse id="Ellipse_668" data-name="Ellipse 668" cx="0.763" cy="0.755" rx="0.763" ry="0.755" transform="translate(8.458 9.696)" fill="#ddd"/>
              </g>
              <g id="Group_141210" data-name="Group 141210" transform="translate(10.212 12.276)">
                <path id="Path_102855" data-name="Path 102855" d="M1206.2,641.124a8.655,8.655,0,0,0,3.347-.684.437.437,0,0,0,.224-.58.446.446,0,0,0-.587-.221,7.2,7.2,0,0,1-5.733,0,6.339,6.339,0,0,1-2.7-2.466,19.473,19.473,0,0,0,3.7-6.474,19.144,19.144,0,0,0,.781-8.951.445.445,0,0,0-.505-.369.44.44,0,0,0-.373.5,18.268,18.268,0,0,1-.745,8.543,18.644,18.644,0,0,1-3.729,6.41l-.2.227.143.268a7.152,7.152,0,0,0,6.386,3.794Z" transform="translate(-1199.672 -621.378)" fill="#c16f50"/>
              </g>
              <g id="Group_141213" data-name="Group 141213" transform="translate(15.646 36.811)">
                <g id="Group_141211" data-name="Group 141211" transform="translate(0 0.608)">
                  <path id="Path_102856" data-name="Path 102856" d="M1216.563,689.086a6.007,6.007,0,0,0,3.139-.88,5.677,5.677,0,0,0,2.719-5.415.444.444,0,0,0-.884.083,4.81,4.81,0,0,1-2.3,4.586,5.277,5.277,0,0,1-5.679-.2.447.447,0,0,0-.618.108.436.436,0,0,0,.109.612A6.175,6.175,0,0,0,1216.563,689.086Z" transform="translate(-1212.858 -682.392)" fill="#c16f50"/>
                </g>
                <g id="Group_141212" data-name="Group 141212" transform="translate(6.632)">
                  <path id="Path_102857" data-name="Path 102857" d="M1233.057,683.085a.452.452,0,0,0,.143-.023.438.438,0,0,0,.278-.557,2.4,2.4,0,0,0-2.182-1.585,2.587,2.587,0,0,0-2.275,1.192.437.437,0,0,0,.141.6.446.446,0,0,0,.612-.14,1.7,1.7,0,0,1,1.486-.778,1.51,1.51,0,0,1,1.377.989A.443.443,0,0,0,1233.057,683.085Z" transform="translate(-1228.953 -680.918)" fill="#c16f50"/>
                </g>
              </g>
            </g>
          </g>
          <g id="Group_141216" data-name="Group 141216" transform="translate(142.846 132.135)">
            <path id="Path_102858" data-name="Path 102858" d="M821,1091.006h40.92V1070.9a34.376,34.376,0,0,0-24.194-1.07c-10.935,3.725-16.633,12.173-19.184,17.255A2.715,2.715,0,0,0,821,1091.006Z" transform="translate(-818.252 -954.42)" fill="#ffcbb3"/>
            <path id="Path_102859" data-name="Path 102859" d="M1011.188,792.223a12.1,12.1,0,0,0-3.684.963,13.972,13.972,0,0,0-3.476,2.338,38.059,38.059,0,0,0-8.828,13.27c-2.655,7.4-9.678,32.231-19.166,71.268-.819,3.371-3.364,6.779-6.707,7.822-17.682,5.52-34.124,11.31-52.676,16.6.834,8.526,1.668,17.4,2.5,25.928,23.767-6.207,45.753-10.756,68.973-16.886,7.79-2.057,13.788-9.6,15.636-17.362,5.231-21.974,11.653-43.947,16.321-65.92a37.013,37.013,0,0,0,1.39-18.426A37.586,37.586,0,0,0,1011.188,792.223Z" transform="translate(-876.104 -792.223)" fill="#d04349"/>
          </g>
          <path id="Path_102860" data-name="Path 102860" d="M1146.847,921.62a44.385,44.385,0,0,0,4.634-20.764l-5-145.47-25.632,16-12.63,150.23Z" transform="translate(-845.884 -638.431)" fill="#f7444b"/>
          <path id="Path_102861" data-name="Path 102861" d="M1179.122,752.518c-4.509,7.892-8.984,12.656-13.147,20.206,3.643,3.691,5.9,6.909,9.948,10.863-.787,2.613-3.054,5.736-4.94,8.663,2.638,15.951,6.313,44.857,12.593,90.159,1.771-11.84-.272-133.059-.272-133.059C1181.574,749.351,1179.973,751.029,1179.122,752.518Z" transform="translate(-879.842 -634.883)" fill="#d04349"/>
          <path id="Path_102862" data-name="Path 102862" d="M1280.065,919.912l-8.6-151.4-35.41-16.033L1202.11,894.06a46.016,46.016,0,0,0,7.271,25.852Z" transform="translate(-901.086 -636.723)" fill="#f7444b"/>
          <path id="Path_102863" data-name="Path 102863" d="M1240.883,752.518c1.357,4.53,3.9,12.862,7.057,22.819a62.9,62.9,0,0,1-10.77,10.706,62.978,62.978,0,0,1,7.511,11.96c-10.643,21.475-28.994,66.853-38.134,87.332,8.028-38.966,29.16-121.549,30.155-135.984A4.849,4.849,0,0,1,1240.883,752.518Z" transform="translate(-903.695 -634.883)" fill="#d04349"/>
          <g id="Group_141217" data-name="Group 141217" transform="translate(280.561 131.649)">
            <path id="Path_102864" data-name="Path 102864" d="M1155.2,1095.269h40.92v-20.107a34.372,34.372,0,0,0-24.194-1.07c-10.935,3.725-16.634,12.173-19.184,17.255A2.715,2.715,0,0,0,1155.2,1095.269Z" transform="translate(-1152.453 -956.441)" fill="#ffcbb3"/>
            <path id="Path_102865" data-name="Path 102865" d="M1297.569,791.308c-2.671.727-4.154,2.731-5.932,5.134-6.8,9.186-3.941,20.61-3.522,22.185a26.284,26.284,0,0,0,1.112,3.3c4.362,10.556,19.269,44.907,26,60.395a5.237,5.237,0,0,1-3.346,7.181c-22.2,5.773-38.071,8.85-59.913,13.143.515,6.289,1.98,16.532,2.92,27.044,26.381-5.562,55.963-11.363,82.636-17.6a15.925,15.925,0,0,0,11.388-21.122l-30.4-80.228a27.58,27.58,0,0,0-5.561-11.184C1311.823,798.2,1304.5,789.421,1297.569,791.308Z" transform="translate(-1210.961 -791.044)" fill="#d04349"/>
          </g>
          <rect id="Rectangle_34227" data-name="Rectangle 34227" width="162.801" height="3.98" rx="1.99" transform="translate(151.557 266.475)" fill="#fff"/>
          <g id="Group_141221" data-name="Group 141221" transform="translate(0 120.38)">
            <path id="Path_102869" data-name="Path 102869" d="M695.523,888.867H498.266a4.9,4.9,0,0,1-4.834-3.973L471.683,769.451a4.88,4.88,0,0,1,4.834-5.755H676.881a4.9,4.9,0,0,1,4.856,4.1l18.642,115.443A4.881,4.881,0,0,1,695.523,888.867Z" transform="translate(-471.599 -763.696)" fill="#fff"/>
            <path id="Path_102871" data-name="Path 102871" d="M693.461,894.076H501.407a5.371,5.371,0,0,1-5.294-4.344L475.042,778.869a5.345,5.345,0,0,1,5.294-6.312H675.4a5.369,5.369,0,0,1,5.318,4.48L698.78,887.9A5.347,5.347,0,0,1,693.461,894.076Z" transform="translate(-473.568 -768.905)" fill="#cae9f9"/>
            <path id="Path_102870" data-name="Path 102870" d="M735.489,1076.576l-8.226-45.121H693.517l8.226,47.912s2.224,9.163,8.262,9.423h52.559a2.832,2.832,0,0,0,2.847-2.816v-2.033a2.832,2.832,0,0,0-2.847-2.817H740.8C738.258,1081.124,735.489,1079.088,735.489,1076.576Z" transform="translate(-604.982 -938.585)" fill="#fff"/>
          </g>
          <path id="Path_102872" data-name="Path 102872" d="M951.813,1133.981a123.525,123.525,0,0,0,11.836-5.774H525.707a61.98,61.98,0,0,0,5.414,4.193,59.024,59.024,0,0,0,18.137,8.412h380.98A122.532,122.532,0,0,0,951.813,1133.981Z" transform="translate(-503.41 -857.623)" fill="url(#linear-gradient)"/>
        </g>
      </g>
      <path id="Exclusion_1" data-name="Exclusion 1" d="M22.193,54.99h0A21.372,21.372,0,0,1,6.38,48.1,24.6,24.6,0,0,1,0,31.228,32.06,32.06,0,0,1,2.138,20.006,35.622,35.622,0,0,1,7.97,9.976a29.464,29.464,0,0,1,8.65-7.212A22.2,22.2,0,0,1,27.215,0,27.2,27.2,0,0,1,54.43,27.224,24.081,24.081,0,0,1,52.279,37.37a24.819,24.819,0,0,1-5.854,7.9c-4.709,4.318-11.352,7.49-19.21,9.173A23.976,23.976,0,0,1,22.193,54.99ZM27.215,6.409c-5.176,0-10.577,2.72-14.818,7.464-4.088,4.569-6.528,10.46-6.528,15.753,0,9.3,5.639,18.718,16.416,18.719a18.975,18.975,0,0,0,3.329-.3C36.75,46.061,48.025,38,48.025,26.423,48.025,15.574,38.5,6.409,27.215,6.409Z" transform="translate(259.785 0)" fill="url(#linear-gradient-7)"/>
      <path id="Path_102889" data-name="Path 102889" d="M16.907,0C27.155,0,35.463,5.834,35.463,16.082s-7.147,18.556-16.907,21.03S0,30.454,0,20.205,6.658,0,16.907,0Z" transform="translate(0 255.86)" fill="#e46014"/>
      <path id="Path_102892" data-name="Path 102892" d="M11.533,0c6.991,0,12.658,3.075,12.658,8.477s-4.876,9.781-11.533,11.086S0,16.053,0,10.651,4.542,0,11.533,0Z" transform="translate(48.658 30.714)" fill="#e46014"/>
    </g>
  </g>
</svg>
