<svg xmlns="http://www.w3.org/2000/svg" xmlns:xlink="http://www.w3.org/1999/xlink" width="85.001" height="51.933" viewBox="0 0 85.001 51.933">
  <defs>
    <linearGradient id="linear-gradient" y1="-0.175" x2="0.975" y2="1.161" gradientUnits="objectBoundingBox">
      <stop offset="0" stop-color="#ff579a"/>
      <stop offset="1" stop-color="#8957ff"/>
    </linearGradient>
  </defs>
  <g id="Group_173747" data-name="Group 173747" transform="translate(1.75 -2.899)">
    <path id="Union_50" data-name="Union 50" d="M-5184.661-11420.668a7.552,7.552,0,0,1-5.33-2.45c-.006-.006-.012-.015-.018-.02l-11.733-13.173h-6.124a6.088,6.088,0,0,1-.682.734,6.042,6.042,0,0,1-4.077,1.577h-7.126a2.5,2.5,0,0,1-2.5-2.5,2.5,2.5,0,0,1,2.5-2.5h7.126a1.052,1.052,0,0,0,.881-.47,2.415,2.415,0,0,1,.162-.429v-19.807a.543.543,0,0,1,0-.1v-2.629a1.063,1.063,0,0,0-1.048-.9h-7.12a2.5,2.5,0,0,1-2.5-2.5,2.5,2.5,0,0,1,2.5-2.5h7.106a6.047,6.047,0,0,1,4.117,1.6,6.048,6.048,0,0,1,1.852,3.334l12.559-5a9.83,9.83,0,0,1,3.706-.712h.02a10.116,10.116,0,0,1,5.8,1.886c.043.029.086.063.128.1l8.567-4.311a10.752,10.752,0,0,1,4.915-1.157,11.18,11.18,0,0,1,3.66.642l.023.009,15.811,5.755a6.024,6.024,0,0,1,.52-.54,6.04,6.04,0,0,1,4.114-1.6h7.106a2.5,2.5,0,0,1,2.5,2.5,2.5,2.5,0,0,1-2.5,2.5h-7.12a1.06,1.06,0,0,0-1.045.9v22.551a1.048,1.048,0,0,0,1.045.881h7.12a2.5,2.5,0,0,1,2.5,2.5,2.5,2.5,0,0,1-2.5,2.5h-7.126a6.035,6.035,0,0,1-4.074-1.577,6.592,6.592,0,0,1-.481-.49l-17.488,3.473a167.218,167.218,0,0,1-14.206,11.457,2.48,2.48,0,0,1-1.457.469Zm-7.6-43.094a.011.011,0,0,0-.009,0l-14.318,5.7v16.746h5.963a2.5,2.5,0,0,1,1.866.838l12.47,14a2.517,2.517,0,0,0,1.063.683,162.138,162.138,0,0,0,18.47-15.721c-.109-.176-.259-.4-.455-.665l-7.828-10.1-6.4,2.113a8.161,8.161,0,0,1-2.692.455,8.2,8.2,0,0,1-3.248-.671,8.191,8.191,0,0,1-4.247-4.169,8.271,8.271,0,0,1-.311-6.193,8.255,8.255,0,0,1,2.142-3.32,5.141,5.141,0,0,0-.639-.048A4.877,4.877,0,0,0-5192.257-11463.762Zm29.026,18.549a.671.671,0,0,1,.04.057c.723.985,2.223,3.038,1.371,5.439a2.556,2.556,0,0,1-.374.688l9.277-1.843v-20.522l-16.083-5.854a6.188,6.188,0,0,0-2.019-.352,5.744,5.744,0,0,0-2.62.616s-.006,0-.008.006l-9.659,4.857a2.5,2.5,0,0,1-.77.387l-1.515.762a3.285,3.285,0,0,0-1.491,4.325.255.255,0,0,0,.014.028,3.2,3.2,0,0,0,4,1.722c.015,0,.026-.009.041-.012l12.266-4.054a2.5,2.5,0,0,1,3.158,1.59,2.5,2.5,0,0,1-1.589,3.158l-.81.268Z" transform="translate(5220.5 11475.5)" fill="url(#linear-gradient)"/>
  </g>
</svg>
