<svg xmlns="http://www.w3.org/2000/svg" xmlns:xlink="http://www.w3.org/1999/xlink" width="1920.004" height="486.033" viewBox="0 0 1920.004 486.033">
  <defs>
    <linearGradient id="linear-gradient" x1="0.5" x2="0.5" y2="1" gradientUnits="objectBoundingBox">
      <stop offset="0" stop-color="#009cff"/>
      <stop offset="0.482" stop-color="#ba6bfd"/>
      <stop offset="1" stop-color="#ed1c24"/>
    </linearGradient>
  </defs>
  <path id="Union_24" data-name="Union 24" d="M0,166.469H0V0H1920V166.469h0V209.63c-21.573,10.45-44.13,20.887-67.041,31.026-27.292,12.085-55.453,23.895-83.7,35.108-69.056,27.427-139.758,51.76-210.136,72.325-40.879,11.936-82.216,22.75-122.863,32.141-21.867,5.052-43.764,9.747-65.093,13.965-22.175,4.395-44.8,8.48-67.238,12.138-23.162,3.771-46.431,7.136-69.17,9.994-23.684,2.979-47.521,5.513-70.854,7.524-24.218,2.094-48.554,3.692-72.329,4.756-24.431,1.092-49.186,1.646-73.583,1.655h-.08c-21.429,0-43.12-.442-64.469-1.312-21.661-.882-43.584-2.255-65.162-4.074-21.936-1.853-44.019-4.222-65.634-7.04-22.054-2.88-44.251-6.319-65.981-10.226-35.629-6.394-70.668-12-104.144-16.67-32.345-4.521-64.133-8.3-94.478-11.228-28.988-2.809-57.667-4.938-85.249-6.33-26.084-1.312-51.811-1.979-76.456-1.979-19.9,0-39.432.435-58.037,1.288-17.916.824-35.526,2.051-52.348,3.646-16.06,1.527-31.853,3.433-46.941,5.666-14.41,2.142-28.47,4.614-41.794,7.347-46.4,9.544-87.135,22.835-121.065,39.508a302.541,302.541,0,0,0-36.6,21.1,208.643,208.643,0,0,0-23.5,18.407A129.329,129.329,0,0,0,3.521,481.369c-1.875,2.28-3.006,3.9-3.517,4.66V166.469Z" opacity="0.2" fill="url(#linear-gradient)"/>
</svg>
