<svg xmlns="http://www.w3.org/2000/svg" xmlns:xlink="http://www.w3.org/1999/xlink" width="161.884" height="30.002" viewBox="0 0 161.884 30.002">
  <defs>
    <linearGradient id="linear-gradient" x1="1.055" y1="1.103" x2="0.09" y2="0.101" gradientUnits="objectBoundingBox">
      <stop offset="0" stop-color="#01adf6"/>
      <stop offset="0.526" stop-color="#840264"/>
      <stop offset="1" stop-color="#ce1d2c"/>
    </linearGradient>
  </defs>
  <g id="Group_188340" data-name="Group 188340" transform="translate(-0.001 0)">
    <g id="Group_188117" data-name="Group 188117">
      <g id="Group_188116" data-name="Group 188116">
        <g id="Group_188115" data-name="Group 188115">
          <g id="Group_188341" data-name="Group 188341">
            <g id="Group_188114" data-name="Group 188114">
              <path id="Path_171716" data-name="Path 171716" d="M104.013,40.1v5.38h-3.226a7.894,7.894,0,0,1-5.377-1.685q-1.928-1.685-1.928-5.506v-8.23h-2.52V24.793h2.52V19.751h6.341v5.043h4.156v5.265H99.826v8.306a1.739,1.739,0,0,0,.445,1.331,2.172,2.172,0,0,0,1.483.408Zm6.706-17.461A3.841,3.841,0,0,1,108,21.657a3.181,3.181,0,0,1-1.057-2.429A3.225,3.225,0,0,1,108,16.762a3.842,3.842,0,0,1,2.722-.982,3.793,3.793,0,0,1,2.688.982,3.225,3.225,0,0,1,1.057,2.466,3.184,3.184,0,0,1-1.057,2.429,3.792,3.792,0,0,1-2.688.986m3.152,2.151V45.48h-6.335V24.79Zm31-.223a8.183,8.183,0,0,1,6.137,2.336,8.894,8.894,0,0,1,2.28,6.489V45.48h-6.3V34.246a4.275,4.275,0,0,0-1.057-3.1,4.414,4.414,0,0,0-5.821,0,4.271,4.271,0,0,0-1.053,3.1V45.48h-6.3V34.246a4.271,4.271,0,0,0-1.057-3.1,4.414,4.414,0,0,0-5.821,0,4.275,4.275,0,0,0-1.057,3.1V45.48h-6.34V24.79h6.34v2.6a6.787,6.787,0,0,1,2.52-2.058,7.929,7.929,0,0,1,3.523-.759,8.569,8.569,0,0,1,4.171,1,7.176,7.176,0,0,1,2.874,2.855,8.329,8.329,0,0,1,2.929-2.781,7.914,7.914,0,0,1,4.042-1.077ZM177.242,34.8a16.111,16.111,0,0,1-.111,1.854H162.78a4.314,4.314,0,0,0,1.242,2.947,3.792,3.792,0,0,0,2.688,1.02,3.332,3.332,0,0,0,3.3-2h6.749a9.262,9.262,0,0,1-1.873,3.671,9.374,9.374,0,0,1-3.393,2.558,10.894,10.894,0,0,1-4.561.927,11.1,11.1,0,0,1-5.414-1.3,9.229,9.229,0,0,1-3.708-3.708,11.444,11.444,0,0,1-1.332-5.633A11.575,11.575,0,0,1,157.8,29.5a9.11,9.11,0,0,1,3.69-3.708,12,12,0,0,1,10.79-.034,9.053,9.053,0,0,1,3.652,3.6,10.92,10.92,0,0,1,1.316,5.447m-6.489-1.666a3.26,3.26,0,0,0-1.111-2.6,4.1,4.1,0,0,0-2.781-.964,4.015,4.015,0,0,0-2.688.927,4.117,4.117,0,0,0-1.353,2.631Z" transform="translate(-52 -15.777)" fill="#373737"/>
              <path id="Path_171717" data-name="Path 171717" d="M3.781,22.643a3.844,3.844,0,0,1-2.725-.986A3.182,3.182,0,0,1,0,19.228a3.226,3.226,0,0,1,1.057-2.466,3.844,3.844,0,0,1,2.725-.982,3.8,3.8,0,0,1,2.691.982A3.227,3.227,0,0,1,7.53,19.228a3.185,3.185,0,0,1-1.057,2.429,3.8,3.8,0,0,1-2.691.986m3.152,2.151V45.48H.593V24.79Zm17.2-.226a7.509,7.509,0,0,1,5.8,2.354,9.186,9.186,0,0,1,2.169,6.47V45.48H25.8V34.246a4.539,4.539,0,0,0-1.076-3.227,3.77,3.77,0,0,0-2.892-1.149,3.77,3.77,0,0,0-2.892,1.149,4.543,4.543,0,0,0-1.076,3.226V45.479H11.531V24.79h6.34v2.74a6.687,6.687,0,0,1,2.6-2.169,8.254,8.254,0,0,1,3.671-.794" transform="translate(0.002 -15.777)" fill="#373737"/>
            </g>
            <g id="Group_188113" data-name="Group 188113" transform="translate(131.985)">
              <path id="Rectangle_68627" data-name="Rectangle 68627" d="M4.271,0H25.628A4.271,4.271,0,0,1,29.9,4.272V25.628A4.271,4.271,0,0,1,25.627,29.9H4.271A4.271,4.271,0,0,1,0,25.628V4.271A4.271,4.271,0,0,1,4.271,0Z" fill="url(#linear-gradient)"/>
              <g id="Group_188112" data-name="Group 188112" transform="translate(3.844 5.553)">
                <path id="Path_171721" data-name="Path 171721" d="M324.335,64.065v2.6h-1.776V59.423h3.723a3.054,3.054,0,0,1,1.311.246,2.031,2.031,0,0,1,1.172,1.553,3.557,3.557,0,0,1,.065.657,2.176,2.176,0,0,1-.456,1.426,2.054,2.054,0,0,1-1.29.7,4.749,4.749,0,0,1-.758.057Zm0-1.574h1.873c.559,0,.84-.235.84-.709a.641.641,0,0,0-.527-.709,1.918,1.918,0,0,0-.314-.026h-1.873Z" transform="translate(-322.559 -47.853)" fill="#fff"/>
                <path id="Path_171722" data-name="Path 171722" d="M347.15,59.418h3.915a2.357,2.357,0,0,1,1.645.532,2.042,2.042,0,0,1,.679,1.588,2,2,0,0,1-.762,1.61,2.386,2.386,0,0,1,.6,1.078q.057.214.162,2.435h-1.746l-.063-1.367q-.081-.427-.138-.687a.943.943,0,0,0-.762-.707,1.644,1.644,0,0,0-.35-.036h-1.469v2.8h-1.709Zm1.709,2.907h1.879c.384,0,.628-.115.726-.345a.623.623,0,0,0,.065-.278c0-.442-.264-.66-.789-.66h-1.882Z" transform="translate(-339.981 -47.847)" fill="#fff"/>
                <path id="Path_171723" data-name="Path 171723" d="M375.458,59.394a3.771,3.771,0,0,1,2.734,1.015,3.852,3.852,0,0,1,0,5.22,4.175,4.175,0,0,1-5.457,0,3.432,3.432,0,0,1-1.021-2.606,3.487,3.487,0,0,1,1.035-2.631,3.743,3.743,0,0,1,2.708-1Zm0,1.61a1.946,1.946,0,0,0-1.7.821,2.012,2.012,0,0,0-.371,1.2,2.044,2.044,0,0,0,.387,1.221,1.777,1.777,0,0,0,1.028.707,2.349,2.349,0,0,0,.66.093,1.955,1.955,0,0,0,1.709-.82,2.13,2.13,0,0,0-.014-2.427,1.832,1.832,0,0,0-1.035-.713,2.618,2.618,0,0,0-.661-.085Z" transform="translate(-357.385 -47.831)" fill="#fff"/>
                <g id="Group_188426" data-name="Group 188426" transform="translate(0.082)">
                  <path id="Path_171718" data-name="Path 171718" d="M354.03,25.442a2.4,2.4,0,0,0-4.357,0l-1.1-.51a3.612,3.612,0,0,1,6.558,0Z" transform="translate(-340.99 -21.93)" fill="#fff"/>
                  <path id="Path_171719" data-name="Path 171719" d="M327.027,28.672A4.471,4.471,0,1,1,331.5,24.2h0a4.47,4.47,0,0,1-4.47,4.47Zm0-7.731a3.254,3.254,0,1,0,2.3.955,3.254,3.254,0,0,0-2.3-.955" transform="translate(-322.556 -19.729)" fill="#fff"/>
                  <path id="Path_171719-2" data-name="Path 171719" d="M327.027,28.672A4.471,4.471,0,1,1,331.5,24.2h0a4.47,4.47,0,0,1-4.47,4.47Zm0-7.731a3.254,3.254,0,1,0,2.3.955,3.254,3.254,0,0,0-2.3-.955" transform="translate(-309.671 -19.729)" fill="#fff"/>
                </g>
              </g>
            </g>
          </g>
        </g>
      </g>
    </g>
  </g>
</svg>
