<svg xmlns="http://www.w3.org/2000/svg" xmlns:xlink="http://www.w3.org/1999/xlink" width="85.993" height="83.33" viewBox="0 0 85.993 83.33">
  <defs>
    <linearGradient id="linear-gradient" y1="-0.175" x2="0.975" y2="1.161" gradientUnits="objectBoundingBox">
      <stop offset="0" stop-color="#8957ff"/>
      <stop offset="1" stop-color="#00d4ff"/>
    </linearGradient>
  </defs>
  <g id="Group_173748" data-name="Group 173748" transform="translate(2.243 2)">
    <path id="Union_51" data-name="Union 51" d="M-5728.972-11380.961l-3.342-3.705a3.967,3.967,0,0,0-2.943-1.306,3.963,3.963,0,0,0-2.942,1.309l-3.342,3.7a9.995,9.995,0,0,1-11.189,2.514,9.994,9.994,0,0,1-6.146-9.673l.256-4.993a3.96,3.96,0,0,0-1.156-3.015,3.976,3.976,0,0,0-3.018-1.153l-4.988.256a9.987,9.987,0,0,1-9.71-6.145,9.989,9.989,0,0,1,2.534-11.206l3.7-3.343a3.97,3.97,0,0,0,1.309-2.942,3.975,3.975,0,0,0-1.309-2.945,3,3,0,0,1-.216-4.236,3,3,0,0,1,4.237-.216,9.987,9.987,0,0,1,3.288,7.4,9.986,9.986,0,0,1-3.288,7.4l-3.708,3.345a3.976,3.976,0,0,0-1.006,4.459,3.973,3.973,0,0,0,3.863,2.444l4.973-.256a9.974,9.974,0,0,1,7.571,2.9,9.976,9.976,0,0,1,2.911,7.577l-.256,4.973a3.979,3.979,0,0,0,2.448,3.835,3.978,3.978,0,0,0,4.45-1l3.334-3.7a9.979,9.979,0,0,1,7.4-3.288,9.982,9.982,0,0,1,7.4,3.285l3.343,3.707a3.977,3.977,0,0,0,4.464,1.013,3.975,3.975,0,0,0,2.445-3.866l-.256-4.976a9.982,9.982,0,0,1,2.908-7.557,9.995,9.995,0,0,1,7.556-2.908l4.979.256a3.971,3.971,0,0,0,3.869-2.441,3.972,3.972,0,0,0-1.007-4.462l-3.708-3.345a9.985,9.985,0,0,1-3.288-7.4,9.986,9.986,0,0,1,3.288-7.4,3,3,0,0,1,4.237.216,3,3,0,0,1-.215,4.236,3.975,3.975,0,0,0-1.309,2.945,3.97,3.97,0,0,0,1.309,2.942l3.7,3.343a9.983,9.983,0,0,1,2.531,11.212,9.981,9.981,0,0,1-9.719,6.139l-4.979-.256a3.973,3.973,0,0,0-3.006,1.159,3.979,3.979,0,0,0-1.159,3.009l.256,4.976a9.987,9.987,0,0,1-6.147,9.717,9.941,9.941,0,0,1-3.794.751A9.978,9.978,0,0,1-5728.972-11380.961Zm-22.292-36.436a3,3,0,0,1,2.338-3.538,3,3,0,0,1,3.541,2.339,10.372,10.372,0,0,0,10.127,8.267,10.378,10.378,0,0,0,10.131-8.267,3,3,0,0,1,3.538-2.339,3,3,0,0,1,2.339,3.538,16.4,16.4,0,0,1-16.007,13.067A16.4,16.4,0,0,1-5751.264-11417.4Zm8.008-8.267a5.675,5.675,0,0,1-5.669-5.669v-11.371l-.412.343a3,3,0,0,1-4.225-.386,3,3,0,0,1,.382-4.223l5.253-4.377c.054-.049.109-.095.167-.139l10.582-8.819a3,3,0,0,1,3.843,0l10.582,8.818c.058.045.113.092.167.14l5.252,4.377a3,3,0,0,1,.383,4.223,2.989,2.989,0,0,1-2.3,1.082,2.988,2.988,0,0,1-1.918-.7l-.415-.345v11.373a5.674,5.674,0,0,1-5.666,5.669Zm.331-5.669,15.671-.331-.307-16.02-7.7-6.413-7.668,6.392Z" transform="translate(5776.003 11459)" fill="url(#linear-gradient)"/>
  </g>
</svg>
