<svg xmlns="http://www.w3.org/2000/svg" xmlns:xlink="http://www.w3.org/1999/xlink" width="85" height="85" viewBox="0 0 85 85">
  <defs>
    <linearGradient id="linear-gradient" y1="-0.175" x2="0.975" y2="1.161" gradientUnits="objectBoundingBox">
      <stop offset="0" stop-color="#0c8"/>
      <stop offset="1" stop-color="#2dd"/>
    </linearGradient>
  </defs>
  <g id="Group_173751" data-name="Group 173751" transform="translate(1.75 1.751)">
    <path id="Union_52" data-name="Union 52" d="M-5774.249-11856.251a4,4,0,0,1-4-4v-77a4.006,4.006,0,0,1,4-4h77a4.006,4.006,0,0,1,4,4v77a4,4,0,0,1-4,4Zm1-5h75v-75h-75Zm22.4-8.176a2.506,2.506,0,0,1,0-3.536l14.223-14.223a5.175,5.175,0,0,1,7.3,0l6.9,6.9a.167.167,0,0,0,.234,0l14.223-14.223a2.5,2.5,0,0,1,3.533,0,2.5,2.5,0,0,1,0,3.536l-14.22,14.223a5.175,5.175,0,0,1-7.3,0l-6.9-6.9a.173.173,0,0,0-.237,0l-14.22,14.223a2.5,2.5,0,0,1-1.769.731A2.5,2.5,0,0,1-5750.853-11869.426Zm-5.433-24.724a18.437,18.437,0,0,1-5.88-3.965,18.386,18.386,0,0,1-3.962-5.877,18.36,18.36,0,0,1-1.457-7.2,18.365,18.365,0,0,1,1.457-7.2,18.437,18.437,0,0,1,3.962-5.879,18.476,18.476,0,0,1,5.88-3.962,18.383,18.383,0,0,1,7.2-1.457,18.373,18.373,0,0,1,7.2,1.457,18.412,18.412,0,0,1,5.88,3.962,18.446,18.446,0,0,1,3.965,5.879,18.415,18.415,0,0,1,1.454,7.2,18.41,18.41,0,0,1-1.454,7.2,18.4,18.4,0,0,1-3.965,5.877,18.372,18.372,0,0,1-5.88,3.965,18.39,18.39,0,0,1-7.2,1.456A18.4,18.4,0,0,1-5756.286-11894.149Zm-6.3-17.046a13.514,13.514,0,0,0,13.5,13.5,13.424,13.424,0,0,0,7.61-2.355l-9.378-9.378a2.5,2.5,0,0,1-.731-1.768v-13.266A13.517,13.517,0,0,0-5762.582-11911.2Zm16-1.034,8.646,8.645a13.425,13.425,0,0,0,2.355-7.61,13.519,13.519,0,0,0-11-13.266Zm26.834,5.313a2.5,2.5,0,0,1-2.5-2.5,2.5,2.5,0,0,1,2.5-2.5h12.446a2.5,2.5,0,0,1,2.5,2.5,2.5,2.5,0,0,1-2.5,2.5Zm0-12.446a2.5,2.5,0,0,1-2.5-2.5,2.5,2.5,0,0,1,2.5-2.5h12.446a2.5,2.5,0,0,1,2.5,2.5,2.5,2.5,0,0,1-2.5,2.5Z" transform="translate(5776.5 11939.5)" fill="url(#linear-gradient)"/>
  </g>
</svg>
