<svg xmlns="http://www.w3.org/2000/svg" width="25.684" height="22.165" viewBox="0 0 25.684 22.165">
  <path id="vimeo" d="M25.672,5.127Q25.5,8.869,20.434,15.373,15.2,22.165,11.57,22.165q-2.245,0-3.8-4.145L5.7,10.423Q4.547,6.278,3.223,6.278A7.92,7.92,0,0,0,1.209,7.487L0,5.934Q1.9,4.265,3.741,2.6,6.274.408,7.541.293q2.993-.288,3.684,4.086.749,4.72,1.036,5.871.863,3.914,1.9,3.914.806,0,2.418-2.533A9.93,9.93,0,0,0,18.3,7.775q.23-2.187-1.727-2.187a4.97,4.97,0,0,0-1.9.4Q16.577-.168,21.93.005,25.9.12,25.672,5.128Z" fill="#fff"/>
</svg>
