<svg xmlns="http://www.w3.org/2000/svg" xmlns:xlink="http://www.w3.org/1999/xlink" width="86" height="86.014" viewBox="0 0 86 86.014">
  <defs>
    <linearGradient id="linear-gradient" y1="-0.175" x2="0.975" y2="1.161" gradientUnits="objectBoundingBox">
      <stop offset="0" stop-color="#ff8c00"/>
      <stop offset="1" stop-color="#ffc933"/>
    </linearGradient>
  </defs>
  <g id="Group_173749" data-name="Group 173749" transform="translate(2.25 2.263)">
    <path id="Union_54" data-name="Union 54" d="M-6253.374-11375.117l-22.924-22.97a34.85,34.85,0,0,1-7.274,4.748,35.119,35.119,0,0,1-15.351,3.512,35.362,35.362,0,0,1-21.8-7.477,3,3,0,0,1-.506-4.212,3,3,0,0,1,4.211-.509,29.4,29.4,0,0,0,30.825,3.288,29.4,29.4,0,0,0,16.441-26.274,3,3,0,0,1,3-3,3,3,0,0,1,3,3,35.365,35.365,0,0,1-8.31,22.67l22.938,22.985a3,3,0,0,1,0,4.241,2.984,2.984,0,0,1-2.121.877A2.992,2.992,0,0,1-6253.374-11375.117Zm-80-24a3,3,0,0,1,0-4.24l29.583-29.574a6.379,6.379,0,0,1,9,0l8.7,8.7,27.557-27.342h-9.81a3,3,0,0,1-3-3,3,3,0,0,1,3-3h17.091a3,3,0,0,1,1.321.306l.012.006.049.025.024.013.038.021.031.018.029.017.038.021.023.015.041.025.019.012.043.029.018.012.042.029.018.013.041.029.019.015.039.029.021.017.034.027.025.021.03.025.029.025.026.022.03.028.024.022.03.029.02.02,0,0,.016.017a2.983,2.983,0,0,1,.866,2.173v17.078a3,3,0,0,1-3,3,3,3,0,0,1-3-3v-9.857l-27.068,27.291a6.325,6.325,0,0,1-4.511,1.873,6.319,6.319,0,0,1-4.5-1.867l-8.7-8.7-30.1,29.573a2.991,2.991,0,0,1-2.12.878A2.994,2.994,0,0,1-6333.373-11399.116Zm-.687-22.718c-.092-1.036-.141-2.095-.141-3.18a35.153,35.153,0,0,1,21.544-32.459,35.139,35.139,0,0,1,38.271,7.244,3,3,0,0,1,.055,4.243,3,3,0,0,1-4.243.052,29.156,29.156,0,0,0-31.752-6.01,29.163,29.163,0,0,0-17.874,26.93q0,1.352.115,2.642a3,3,0,0,1-2.719,3.257c-.092.008-.181.011-.273.011A3,3,0,0,1-6334.061-11421.834Z" transform="translate(6332 11457.988)" fill="url(#linear-gradient)"/>
  </g>
</svg>
