<svg xmlns="http://www.w3.org/2000/svg" xmlns:xlink="http://www.w3.org/1999/xlink" width="84.849" height="85.002" viewBox="0 0 84.849 85.002">
  <defs>
    <linearGradient id="linear-gradient" y1="-0.175" x2="0.975" y2="1.161" gradientUnits="objectBoundingBox">
      <stop offset="0" stop-color="#09f"/>
      <stop offset="1" stop-color="#00d4ff"/>
    </linearGradient>
  </defs>
  <g id="Group_173752" data-name="Group 173752" transform="translate(1.752 1.621)">
    <path id="Union_53" data-name="Union 53" d="M-6297.015-11856.3a7.124,7.124,0,0,1-3.74-2.215l-2.25-2.463s0,0-.006-.007a2.206,2.206,0,0,0-.737-.533,2.19,2.19,0,0,0-.893-.188,2.19,2.19,0,0,0-.893.188,2.208,2.208,0,0,0-.737.533s0,0-.006.007l-2.251,2.466a7.137,7.137,0,0,1-3.74,2.212,7.22,7.22,0,0,1-1.606.183,7.189,7.189,0,0,1-2.742-.545,7.144,7.144,0,0,1-3.333-2.82,7.151,7.151,0,0,1-1.084-4.145v-3.272c0-.048,0-.093.006-.139a2.157,2.157,0,0,0-.141-.893,2.161,2.161,0,0,0-.491-.761,2.2,2.2,0,0,0-.758-.492,2.179,2.179,0,0,0-.893-.138c-.048,0-.093,0-.141,0h-3.314a7.149,7.149,0,0,1-4.127-1.1,7.117,7.117,0,0,1-2.8-3.317,7.146,7.146,0,0,1-.375-4.33,7.166,7.166,0,0,1,2.188-3.756l.006-.006,2.511-2.26a2.186,2.186,0,0,0,.54-.761,2.182,2.182,0,0,0,.18-.917v-.1a2.219,2.219,0,0,0-.186-.933,2.254,2.254,0,0,0-.537-.764l-2.493-2.209-.018-.018a7.155,7.155,0,0,1-2.194-3.755,7.15,7.15,0,0,1,.366-4.331,7.175,7.175,0,0,1,2.793-3.332,7.194,7.194,0,0,1,3.866-1.124c.111,0,.225,0,.335.006h.018l3.375.18h.006a2.147,2.147,0,0,0,.893-.138,2.184,2.184,0,0,0,.758-.491,2.216,2.216,0,0,0,.491-.759,2.168,2.168,0,0,0,.141-.9c0-.045-.006-.09-.006-.138v-3.264a7.11,7.11,0,0,1,1.061-4.156,7.135,7.135,0,0,1,3.33-2.845,7.134,7.134,0,0,1,2.766-.558,7.159,7.159,0,0,1,1.6.184,7.122,7.122,0,0,1,3.761,2.224l2.25,2.5a2.16,2.16,0,0,0,.737.53,2.167,2.167,0,0,0,.89.189,2.181,2.181,0,0,0,.893-.189,2.147,2.147,0,0,0,.734-.53l2.254-2.5a7.1,7.1,0,0,1,3.758-2.224,7.162,7.162,0,0,1,1.6-.184,7.134,7.134,0,0,1,2.766.558,7.126,7.126,0,0,1,3.333,2.845,7.135,7.135,0,0,1,1.058,4.159v3.261c0,.048,0,.093,0,.138a2.165,2.165,0,0,0,.138.9,2.183,2.183,0,0,0,.495.759,2.17,2.17,0,0,0,.755.491,2.162,2.162,0,0,0,.9.138h.006l3.375-.18h.015c.111-.006.225-.006.336-.006a7.176,7.176,0,0,1,3.866,1.124,7.155,7.155,0,0,1,2.793,3.332,7.173,7.173,0,0,1,.369,4.331,7.174,7.174,0,0,1-2.194,3.755.159.159,0,0,0-.021.018l-2.493,2.209a2.254,2.254,0,0,0-.537.764,2.278,2.278,0,0,0-.183.933c0,.033,0,.063,0,.1a2.212,2.212,0,0,0,.18.92,2.217,2.217,0,0,0,.542.758l2.508,2.26s.006,0,.009.006a7.184,7.184,0,0,1,2.185,3.756,7.16,7.16,0,0,1-.372,4.327,7.117,7.117,0,0,1-2.8,3.32,7.134,7.134,0,0,1-4.126,1.1h-3.314c-.045,0-.093,0-.138,0a2.194,2.194,0,0,0-.9.138,2.226,2.226,0,0,0-.758.492,2.177,2.177,0,0,0-.492.758,2.175,2.175,0,0,0-.138.9c0,.046,0,.091,0,.139v3.272a7.1,7.1,0,0,1-1.085,4.145,7.126,7.126,0,0,1-3.333,2.82,7.166,7.166,0,0,1-2.742.545A7.239,7.239,0,0,1-6297.015-11856.3Zm-4.711-9.791a7.157,7.157,0,0,1,2.416,1.744l2.26,2.473a.281.281,0,0,0,.024.027,2.157,2.157,0,0,0,1.133.674,2.22,2.22,0,0,0,.485.054,2.117,2.117,0,0,0,.83-.165,2.141,2.141,0,0,0,1.007-.851,2.163,2.163,0,0,0,.327-1.279c0-.048,0-.1,0-.147v-3.275a7.1,7.1,0,0,1,.465-2.88,7.094,7.094,0,0,1,1.627-2.509,7.1,7.1,0,0,1,2.509-1.627,7.123,7.123,0,0,1,2.88-.464h3.312c.045,0,.09,0,.132,0a2.182,2.182,0,0,0,1.271-.33,2.164,2.164,0,0,0,.848-1,2.215,2.215,0,0,0,.111-1.321,2.183,2.183,0,0,0-.666-1.146l-2.508-2.256s0,0-.006-.007a7.267,7.267,0,0,1-1.78-2.49,7.175,7.175,0,0,1-.584-2.961,7.229,7.229,0,0,1,.59-2.939,7.22,7.22,0,0,1,1.762-2.481c.012-.012.024-.021.033-.03l2.5-2.218a2.178,2.178,0,0,0,.662-1.139,2.176,2.176,0,0,0-.111-1.324,2.192,2.192,0,0,0-.854-1.019,2.184,2.184,0,0,0-1.28-.342l-3.362.177c-.129.009-.261.012-.393.012a7.124,7.124,0,0,1-2.559-.474,7.057,7.057,0,0,1-2.509-1.627,7.054,7.054,0,0,1-1.627-2.509,7.092,7.092,0,0,1-.465-2.877v-3.278a1.469,1.469,0,0,1,.006-.168,2.155,2.155,0,0,0-.321-1.285,2.167,2.167,0,0,0-1.007-.86,2.157,2.157,0,0,0-.836-.168,2.237,2.237,0,0,0-.482.054,2.175,2.175,0,0,0-1.139.675.064.064,0,0,1-.012.015l-2.263,2.515s0,.006-.006.006a7.163,7.163,0,0,1-2.418,1.747,7.172,7.172,0,0,1-2.916.617,7.172,7.172,0,0,1-2.916-.617,7.157,7.157,0,0,1-2.416-1.747s-.006,0-.009-.006l-2.26-2.515c-.006,0-.009-.009-.015-.012a2.148,2.148,0,0,0-1.139-.678,2.213,2.213,0,0,0-.482-.054,2.178,2.178,0,0,0-.836.168,2.166,2.166,0,0,0-1.007.86,2.149,2.149,0,0,0-.317,1.285c0,.055.006.111.006.168v3.278a7.193,7.193,0,0,1-.464,2.877,7.143,7.143,0,0,1-1.627,2.509,7.144,7.144,0,0,1-2.511,1.63,7.164,7.164,0,0,1-2.56.471c-.129,0-.261,0-.389-.012l-3.366-.177a2.173,2.173,0,0,0-1.276.342,2.177,2.177,0,0,0-.854,1.019,2.2,2.2,0,0,0-.114,1.324,2.183,2.183,0,0,0,.666,1.139l2.5,2.218a.2.2,0,0,1,.033.03,7.205,7.205,0,0,1,1.762,2.484,7.222,7.222,0,0,1,.59,2.937,7.13,7.13,0,0,1-.584,2.961,7.139,7.139,0,0,1-1.78,2.49l-.006.007-2.508,2.256a2.187,2.187,0,0,0-.666,1.146,2.2,2.2,0,0,0,.114,1.324,2.144,2.144,0,0,0,.845,1,2.2,2.2,0,0,0,1.271.33c.045,0,.09,0,.132,0h3.314a7.118,7.118,0,0,1,2.877.464,7.17,7.17,0,0,1,2.511,1.624,7.181,7.181,0,0,1,1.627,2.512,7.2,7.2,0,0,1,.464,2.88v3.275c0,.048,0,.1-.006.147a2.163,2.163,0,0,0,.327,1.279,2.156,2.156,0,0,0,1.007.851,2.139,2.139,0,0,0,.83.165,2.2,2.2,0,0,0,.485-.054,2.173,2.173,0,0,0,1.136-.674.158.158,0,0,1,.024-.027l2.259-2.476a7.182,7.182,0,0,1,2.413-1.741,7.2,7.2,0,0,1,2.916-.614A7.2,7.2,0,0,1-6301.727-11866.093Zm-12.164-19.836a9.261,9.261,0,0,1,9.249-9.248,9.259,9.259,0,0,1,9.248,9.248,9.259,9.259,0,0,1-9.248,9.251A9.262,9.262,0,0,1-6313.891-11885.929Zm5,0a4.252,4.252,0,0,0,4.247,4.25,4.254,4.254,0,0,0,4.25-4.25,4.255,4.255,0,0,0-4.25-4.249A4.253,4.253,0,0,0-6308.889-11885.929Zm41.128-15.733a6.086,6.086,0,0,1-2.907-2.437l-2.134-3.419s0,0,0-.006a.138.138,0,0,0-.081-.061.155.155,0,0,0-.036-.006.14.14,0,0,0-.066.016l-3.542,1.888s-.006,0-.009.006a6.105,6.105,0,0,1-2.823.7,6.231,6.231,0,0,1-.914-.069,6.028,6.028,0,0,1-3.377-1.714,6.1,6.1,0,0,1-1.7-3.387,6.09,6.09,0,0,1,.641-3.728l1.882-3.561a.159.159,0,0,0,.015-.116.147.147,0,0,0-.069-.09l-3.407-2.134a6.089,6.089,0,0,1-2.421-2.907,6.1,6.1,0,0,1-.222-3.782,6.1,6.1,0,0,1,2.068-3.174,6.114,6.114,0,0,1,3.551-1.324h.009l4.016-.138a.133.133,0,0,0,.09-.039.167.167,0,0,0,.042-.1v-.006l.138-4.025a6.082,6.082,0,0,1,1.3-3.56,6.069,6.069,0,0,1,3.17-2.083,6,6,0,0,1,1.562-.207,6.03,6.03,0,0,1,2.229.426,6.071,6.071,0,0,1,2.9,2.437l2.131,3.419a.139.139,0,0,0,.087.066.155.155,0,0,0,.036.006.124.124,0,0,0,.066-.019l3.539-1.885s.009,0,.012-.006a6.082,6.082,0,0,1,2.82-.7,6.07,6.07,0,0,1,.914.069,6.1,6.1,0,0,1,3.38,1.714,6.093,6.093,0,0,1,1.7,3.387,6.089,6.089,0,0,1-.644,3.733l-1.891,3.555a.163.163,0,0,0-.012.113.177.177,0,0,0,.069.093l3.408,2.144a6.066,6.066,0,0,1,2.421,2.906,6.1,6.1,0,0,1,.222,3.782,6.1,6.1,0,0,1-2.068,3.174,6.091,6.091,0,0,1-3.551,1.321h-.009l-4.013.138a.151.151,0,0,0-.093.042.141.141,0,0,0-.039.1l-.129,4.019a6.09,6.09,0,0,1-1.3,3.56,6.091,6.091,0,0,1-3.17,2.086,6.125,6.125,0,0,1-1.562.2A6,6,0,0,1-6267.76-11901.662Zm-3.821-10.749a5.124,5.124,0,0,1,3.026,2.253l2.134,3.42s0,.006.006.009a1.064,1.064,0,0,0,.5.42,1.042,1.042,0,0,0,.647.035,1.031,1.031,0,0,0,.545-.356,1.031,1.031,0,0,0,.222-.611l.129-4.024a5.123,5.123,0,0,1,1.5-3.465,5.107,5.107,0,0,1,3.458-1.51l4.01-.138a1.05,1.05,0,0,0,.614-.231,1.063,1.063,0,0,0,.362-.554,1.048,1.048,0,0,0-.039-.656,1.054,1.054,0,0,0-.423-.51l-.009,0-3.408-2.146a5.129,5.129,0,0,1-2.238-3.033,5.142,5.142,0,0,1,.422-3.749l1.894-3.561a1.054,1.054,0,0,0,.114-.653,1.038,1.038,0,0,0-.3-.59,1.053,1.053,0,0,0-.587-.3,1.062,1.062,0,0,0-.65.107l-3.536,1.883a5.151,5.151,0,0,1-2.413.6,5.158,5.158,0,0,1-1.34-.177,5.122,5.122,0,0,1-3.03-2.253l-2.13-3.423s0-.006-.006-.009a1.058,1.058,0,0,0-.5-.417,1.059,1.059,0,0,0-.65-.039,1.047,1.047,0,0,0-.542.36,1.02,1.02,0,0,0-.222.608v.015l-.141,4.027a5.128,5.128,0,0,1-1.492,3.459,5.135,5.135,0,0,1-3.458,1.51l-4.013.136a1.09,1.09,0,0,0-.614.23,1.081,1.081,0,0,0-.363.555,1.057,1.057,0,0,0,.042.659,1.031,1.031,0,0,0,.422.506l3.411,2.134a5.144,5.144,0,0,1,2.242,3.039,5.145,5.145,0,0,1-.423,3.749l-1.882,3.558a.01.01,0,0,1,0,.006,1.066,1.066,0,0,0-.114.65,1.056,1.056,0,0,0,.3.59,1.047,1.047,0,0,0,.59.3,1.057,1.057,0,0,0,.647-.107l3.539-1.886a5.183,5.183,0,0,1,2.413-.6A5.177,5.177,0,0,1-6271.581-11912.411Zm2.319-13.063a4.3,4.3,0,0,1,4.294,4.3,4.3,4.3,0,0,1-4.294,4.294Zm-4.3,4.3a4.3,4.3,0,0,1,4.3-4.3v8.592A4.3,4.3,0,0,1-6273.559-11921.177Z" transform="translate(6332.499 11939.5)" fill="url(#linear-gradient)"/>
  </g>
</svg>
